G04 ================== begin FILE IDENTIFICATION RECORD ==================*
G04 Layout Name:  RK_EXCAVATOR_MAIN_V12_20161111_FZBFINAL.brd*
G04 Film Name:    silk_bot*
G04 File Format:  Gerber RS274X*
G04 File Origin:  Cadence Allegro 16.6-S050*
G04 Origin Date:  Mon Nov 14 11:45:56 2016*
G04 *
G04 Layer:  PACKAGE GEOMETRY/SILKSCREEN_BOTTOM*
G04 Layer:  BOARD GEOMETRY/OUTLINE*
G04 Layer:  BOARD GEOMETRY/SILKSCREEN_BOTTOM*
G04 *
G04 Offset:    (0.000 0.000)*
G04 Mirror:    Yes*
G04 Mode:      Positive*
G04 Rotation:  0*
G04 FullContactRelief:  No*
G04 UndefLineWidth:     1.575*
G04 ================== end FILE IDENTIFICATION RECORD ====================*
%FSLAX25Y25*MOIN*%
%IR0*IPPOS*OFA0.00000B0.00000*MIA1B0*SFA1.00000B1.00000*%
%ADD10C,.003*%
%ADD11C,.005*%
%ADD12C,.006*%
%ADD13C,.00591*%
%ADD14C,.005118*%
%ADD15C,.003941*%
%ADD16C,.005906*%
%ADD17C,.006059*%
%ADD18C,.00984*%
%ADD19C,.005909*%
%ADD20C,.015*%
%ADD21C,.001575*%
G75*
%LPD*%
G75*
G54D10*
G01X786126Y285471D02*
X787426Y286013D01*
X786126Y286555D01*
G01X786581Y286360D02*
Y285666D01*
G01X786386Y286846D02*
X786234Y286976D01*
X786148Y287150D01*
X786126Y287345D01*
X786148Y287518D01*
X786256Y287691D01*
X786386Y287800D01*
X786516Y287821D01*
X786668Y287778D01*
X786776Y287626D01*
X786819Y287475D01*
Y287280D01*
G01Y287475D02*
X786884Y287605D01*
X786993Y287713D01*
X787123Y287756D01*
X787253Y287713D01*
X787361Y287605D01*
X787426Y287410D01*
X787404Y287215D01*
X787318Y287020D01*
G01X787209Y288221D02*
X787339Y288351D01*
X787404Y288503D01*
X787426Y288676D01*
X787383Y288893D01*
X787274Y289045D01*
X787144Y289088D01*
X787014Y289066D01*
X786906Y288980D01*
X786689Y288546D01*
X786538Y288351D01*
X786321Y288221D01*
X786126Y288178D01*
Y289088D01*
G01X786716Y416613D02*
X788016Y417155D01*
X786716Y417696D01*
G01X787172Y417501D02*
Y416808D01*
G01X786716Y418465D02*
X788016D01*
X787756Y418205D01*
G01X786716D02*
Y418725D01*
G54D20*
G01X318503Y149606D02*
Y162992D01*
G01X312204Y156299D02*
X325196D01*
G54D11*
G01X136631Y326796D02*
X141355D01*
G01Y338214D02*
X136631D01*
G01D02*
Y326796D01*
G01X138422Y333274D02*
X136990Y331775D01*
G01X131031Y326796D02*
X135755D01*
G01D02*
Y338214D01*
G01D02*
X131031D01*
G01D02*
Y326796D01*
G01X135375Y333274D02*
X133974Y331693D01*
G01D02*
X132822Y333274D01*
G01D02*
X131390Y331775D01*
G01X114421Y521407D02*
Y512407D01*
G01D02*
X110421D01*
G01D02*
Y521407D01*
G01X110452Y512379D02*
X111397Y511435D01*
G01D02*
X113484D01*
G01D02*
X114429Y512379D01*
G01X135940Y512933D02*
G02X137908I984J0D01*
G01X134871Y524743D02*
Y512933D01*
G01D02*
X135940D01*
G01X110421Y521407D02*
X114421D01*
G01X139077Y524743D02*
X134871D01*
G01X141355Y326796D02*
Y338214D01*
G01X140975Y333274D02*
X139574Y331693D01*
G01D02*
X138422Y333274D01*
G01X137097Y381466D02*
Y370048D01*
G01D02*
X141820D01*
G01D02*
Y381466D01*
G01D02*
X137097D01*
G01X137477Y374988D02*
X138878Y376569D01*
G01D02*
X140030Y374988D01*
G01D02*
X141462Y376487D01*
G01X155201Y461903D02*
Y457179D01*
G01D02*
X166619D01*
G01X161679Y457559D02*
X160098Y458960D01*
G01X160797Y430966D02*
G02X162765I984J0D01*
G01D02*
X163934D01*
G01D02*
Y442776D01*
G01D02*
X159728D01*
G01D02*
Y430966D01*
G01D02*
X160797D01*
G01X166619Y461903D02*
X155201D01*
G01X160098Y458960D02*
X161679Y460112D01*
G01D02*
X160180Y461544D01*
G01X137908Y512933D02*
X139077D01*
G01D02*
Y524743D01*
G01X181983Y381602D02*
Y370184D01*
G01D02*
X186707D01*
G01D02*
Y381602D01*
G01D02*
X181983D01*
G01X182363Y375124D02*
X183764Y376705D01*
G01D02*
X184916Y375124D01*
G01D02*
X186348Y376623D01*
G01X166619Y457179D02*
Y461903D01*
G01X201168Y473265D02*
X189358D01*
G01D02*
Y469059D01*
G01D02*
X201168D01*
G01X201968Y507665D02*
X190158D01*
G01D02*
Y503459D01*
G01D02*
X201968D01*
G01X201168Y470128D02*
G02Y472096I0J984D01*
G01D02*
Y473265D01*
G01Y469059D02*
Y470128D01*
G01X201968Y504528D02*
G02Y506496I0J984D01*
G01D02*
Y507665D01*
G01Y503459D02*
Y504528D01*
G01X226924Y529495D02*
X215506D01*
G01D02*
Y524771D01*
G01D02*
X226924D01*
G01X220446Y529115D02*
X222027Y527714D01*
G01D02*
X220446Y526562D01*
G01D02*
X221945Y525130D01*
G01X226924Y524771D02*
Y529495D01*
G01X254622Y156672D02*
Y149890D01*
G01X262651Y136648D02*
X259208D01*
G01X299117Y140048D02*
X266051D01*
G01D02*
X262651Y136648D01*
G01X254622Y156672D02*
X264266D01*
G01X302558Y136607D02*
X304194D01*
G01X302558D02*
X299117Y140048D01*
G01X308600Y156672D02*
X298533D01*
G01X308331Y156404D02*
Y149889D01*
G01X308600Y156672D02*
X308331Y156404D01*
G01X540272Y570768D02*
G02X538304I-984J0D01*
G01X537135D02*
Y558958D01*
G01D02*
X541341D01*
G01D02*
Y570768D01*
G01X538304D02*
X537135D01*
G01X541341D02*
X540272D01*
G01X586432Y558743D02*
X577618D01*
G01D02*
Y551657D01*
G01D02*
X586432D01*
G01X584200Y512991D02*
X624359D01*
G01X584200Y533857D02*
Y512991D01*
G01X624359Y533857D02*
X584200D01*
G01X586432Y551657D02*
Y558743D01*
G01X585400D02*
Y551657D01*
G01X596493Y594954D02*
Y594104D01*
G01X586650Y594954D02*
Y594104D01*
G01X596493Y585112D02*
Y586032D01*
G01X586650Y585112D02*
Y586032D01*
G01X596493Y594954D02*
X594680D01*
G01X596493Y585112D02*
X594680D01*
G01X586650Y594954D02*
X588513D01*
G01X586650Y585112D02*
X588513D01*
G01X596024Y581254D02*
X595024Y583754D01*
G01D02*
X594024Y581254D01*
G01D02*
X596024D01*
G01X624359Y512991D02*
Y522046D01*
G01X621801Y501157D02*
G03I-941J0D01*
G01X623280Y522046D02*
Y524802D01*
G01D02*
X624359D01*
G01D02*
Y533857D01*
G01Y522046D02*
X623280D01*
G01X698397Y399473D02*
X694191D01*
G01D02*
Y387663D01*
G01D02*
X695260D01*
G01X710719Y378692D02*
G02X709189Y378648I-767J40D01*
G01X711256Y375110D02*
X708106D01*
G01D02*
Y382196D01*
G01D02*
X711256D01*
G01D02*
Y375110D01*
G01X695260Y387663D02*
G02X697228I984J0D01*
G01D02*
X698397D01*
G01D02*
Y399473D01*
G01X740638Y508726D02*
X741602D01*
G01X740638D02*
Y509641D01*
G01Y526836D02*
Y525841D01*
G01Y526836D02*
X741602D01*
G01X764532Y404668D02*
Y388132D01*
G01X750914Y393518D02*
Y389040D01*
G01D02*
X751650D01*
G01D02*
Y387760D01*
G01D02*
X750914D01*
G01D02*
Y383282D01*
G01D02*
X762686D01*
G01D02*
Y393518D01*
G01D02*
X750914D01*
G01X758521Y509641D02*
X757761Y508880D01*
G01X758748Y526836D02*
Y525841D01*
G01Y526836D02*
X757761D01*
G01X781068Y404668D02*
Y388132D01*
G01X822481Y530578D02*
X814607D01*
G01D02*
Y547900D01*
G01X822481D02*
Y530578D01*
G01X814607Y547900D02*
X822481D01*
G54D21*
G01X826772Y430709D02*
Y494685D01*
X811024D01*
Y514764D01*
X826772D01*
Y598425D01*
G03X814961Y610236I-11811J0D01*
G01X51181D01*
G03X39370Y598425I0J-11811D01*
G01Y11811D01*
G03X51181Y0I11811J0D01*
G01X814961D01*
G03X826772Y11811I0J11811D01*
G01Y276378D01*
X810716D01*
Y367700D01*
X808017Y370400D01*
X791200D01*
G02Y376610I0J3105D01*
G01X808027D01*
X810716Y379300D01*
Y430709D01*
X826772D01*
G01X51181Y0D02*
G02X39370Y11811I0J11811D01*
G01D02*
Y598425D01*
G01X814961Y0D02*
X51181D01*
G01D02*
G02X39370Y11811I0J11811D01*
G01D02*
Y598425D01*
G01X814961Y0D02*
X51181D01*
G01X39370Y598425D02*
G02X51181Y610236I11811J0D01*
G01D02*
X814961D01*
G01X39370Y598425D02*
G02X51181Y610236I11811J0D01*
G01D02*
X814961D01*
G01X810716Y276378D02*
Y367700D01*
X808017Y370400D01*
X791200D01*
G02Y376610I0J3105D01*
G01X808027D01*
X810716Y379300D01*
Y430709D01*
G01X826772Y276378D02*
Y11811D01*
G01D02*
G02X814961Y0I-11811J0D01*
G01X826772Y276378D02*
Y11811D01*
G01D02*
G02X814961Y0I-11811J0D01*
G01X810716Y276378D02*
X826772D01*
G01X810716D02*
X826772D01*
G01Y494685D02*
Y430709D01*
G01D02*
X810716D01*
G01X826772Y494685D02*
Y430709D01*
G01D02*
X810716D01*
G01X811024Y514764D02*
Y494685D01*
G01D02*
X826772D01*
G01X811024Y514764D02*
Y494685D01*
G01D02*
X826772D01*
G01Y598425D02*
Y514764D01*
G01D02*
X811024D01*
G01X826772Y598425D02*
Y514764D01*
G01D02*
X811024D01*
G01X814961Y610236D02*
G02X826772Y598425I0J-11811D01*
G01X814961Y610236D02*
G02X826772Y598425I0J-11811D01*
G54D12*
G01X282150Y126600D02*
X280900Y123600D01*
X279650Y126600D01*
G01X277400Y125200D02*
X277200Y125350D01*
X277050Y125600D01*
X276950Y125950D01*
X277050Y126250D01*
X277250Y126450D01*
X277600Y126600D01*
X278950D01*
Y123600D01*
X277300D01*
X276950Y123800D01*
X276750Y124100D01*
X276650Y124450D01*
X276750Y124800D01*
X277050Y125100D01*
X277400Y125200D01*
X278950D01*
G01X275950Y123600D02*
X274700Y126600D01*
X273450Y123600D01*
G01X273900Y124650D02*
X275500D01*
G01X271600Y126600D02*
Y123600D01*
G01X272750Y126600D02*
X270450D01*
G01X758464Y505901D02*
G03I-1021J0D01*
G01X809190Y528510D02*
X808940Y528910D01*
X808790Y529360D01*
Y529760D01*
X808940Y530160D01*
X809190Y530460D01*
X809540Y530610D01*
X809890Y530510D01*
X810190Y530260D01*
X810390Y529810D01*
X810490Y529210D01*
X810690Y528860D01*
X811040Y528710D01*
X811390Y528810D01*
X811640Y529060D01*
X811790Y529410D01*
Y529760D01*
X811690Y530110D01*
X811440Y530410D01*
G01X808790Y531660D02*
X811790D01*
Y532860D01*
X811640Y533260D01*
X811290Y533560D01*
X810890Y533660D01*
X810490Y533560D01*
X810190Y533310D01*
X810040Y532860D01*
Y531660D01*
G01X808790Y536760D02*
Y534760D01*
X811790D01*
Y536760D01*
G01X810340Y535960D02*
Y534760D01*
G01X808790Y537610D02*
X811790Y538860D01*
X808790Y540110D01*
G01X809840Y539660D02*
Y538060D01*
G01X808790Y540860D02*
X811790D01*
G01Y542760D02*
X809940Y540860D01*
G01X808790Y543060D02*
X810790Y541710D01*
G01X808790Y546060D02*
Y544060D01*
X811790D01*
Y546060D01*
G01X810340Y545260D02*
Y544060D01*
G01X808790Y547160D02*
X811790D01*
Y548410D01*
X811640Y548810D01*
X811440Y549060D01*
X811040Y549160D01*
X810640Y549060D01*
X810390Y548760D01*
X810240Y548410D01*
Y547160D01*
G01Y548410D02*
X808790Y549160D01*
G54D13*
G01X752362Y419492D02*
Y418307D01*
G01D02*
X765748D01*
G01D02*
Y419592D01*
G01X752362Y430560D02*
Y431693D01*
G01X765748D02*
Y430559D01*
G01X773421Y445276D02*
X774606D01*
G01D02*
Y458662D01*
G01X762353Y445276D02*
X761220D01*
G01D02*
Y458662D01*
G01X752362Y431693D02*
X765748D01*
G01X774606Y458662D02*
X773321D01*
G01X761220D02*
X762354D01*
G54D14*
G01X131093Y359084D02*
X133309D01*
G03Y362234I-1786J1575D01*
G01D02*
X131093D01*
G01X129126Y359084D02*
X126909D01*
G02Y362234I1786J1575D01*
G01D02*
X129126D01*
G01X128100Y381184D02*
X125884D01*
G03Y378034I1786J-1575D01*
G01D02*
X128100D01*
G01X130068Y381184D02*
X132284D01*
G02Y378034I-1786J-1575D01*
G01D02*
X130068D01*
G01X118787Y515517D02*
Y513301D01*
G02X115637I-1575J1786D01*
G01D02*
Y515517D01*
G01X118787Y517485D02*
Y519701D01*
G03X115637I-1575J-1786D01*
G01D02*
Y517485D01*
G01X155507Y346822D02*
Y349038D01*
G03X152358I-1575J-1786D01*
G01D02*
Y346822D01*
G01X155507Y344854D02*
Y342638D01*
G02X152358I-1575J1786D01*
G01D02*
Y344854D01*
G01X164707Y346822D02*
Y349038D01*
G03X161558I-1575J-1786D01*
G01D02*
Y346822D01*
G01X164707Y344854D02*
Y342638D01*
G02X161558I-1575J1786D01*
G01D02*
Y344854D01*
G01X145466Y346713D02*
Y348929D01*
G03X142317I-1575J-1786D01*
G01D02*
Y346713D01*
G01X145466Y344745D02*
Y342529D01*
G02X142317I-1575J1786D01*
G01D02*
Y344745D01*
G01X142824Y322205D02*
X145040D01*
G03Y325354I-1786J1575D01*
G01D02*
X142824D01*
G01X140856Y322205D02*
X138640D01*
G02Y325354I1786J1575D01*
G01D02*
X140856D01*
G01X159085Y365560D02*
Y363344D01*
G03X162235I1575J1786D01*
G01D02*
Y365560D01*
G01X159085Y367528D02*
Y369744D01*
G02X162235I1575J-1786D01*
G01D02*
Y367528D01*
G01X149032Y355872D02*
X151248D01*
G03Y359021I-1786J1575D01*
G01D02*
X149032D01*
G01X147064Y355872D02*
X144848D01*
G02Y359021I1786J1575D01*
G01D02*
X147064D01*
G01X162885Y365560D02*
Y363344D01*
G03X166035I1575J1786D01*
G01X162885Y367528D02*
Y369744D01*
G02X166035I1575J-1786D01*
G01X149229Y350929D02*
X151445D01*
G03Y354079I-1786J1575D01*
G01D02*
X149229D01*
G01X147261Y350929D02*
X145045D01*
G02Y354079I1786J1575D01*
G01D02*
X147261D01*
G01X149032Y360524D02*
X151248D01*
G03Y363673I-1786J1575D01*
G01D02*
X149032D01*
G01X147064Y360524D02*
X144848D01*
G02Y363673I1786J1575D01*
G01D02*
X147064D01*
G01X149068Y364645D02*
X151285D01*
G03Y367794I-1786J1575D01*
G01D02*
X149068D01*
G01X147101Y364645D02*
X144885D01*
G02Y367794I1786J1575D01*
G01D02*
X147101D01*
G01X154445Y365560D02*
Y363344D01*
G03X157594I1575J1786D01*
G01D02*
Y365560D01*
G01X154445Y367528D02*
Y369744D01*
G02X157594I1575J-1786D01*
G01D02*
Y367528D01*
G01X159666Y488658D02*
Y486442D01*
G02X156516I-1575J1786D01*
G01X162491Y477470D02*
X164707D01*
G03Y480620I-1786J1575D01*
G01D02*
X162491D01*
G01X160523Y477470D02*
X158307D01*
G02Y480620I1786J1575D01*
G01D02*
X160523D01*
G01X149682Y468571D02*
Y466355D01*
G03X152832I1575J1786D01*
G01D02*
Y468571D01*
G01X149682Y470539D02*
Y472755D01*
G02X152832I1575J-1786D01*
G01D02*
Y470539D01*
G01X143135Y468571D02*
Y466355D01*
G03X146285I1575J1786D01*
G01D02*
Y468571D01*
G01X143135Y470539D02*
Y472755D01*
G02X146285I1575J-1786D01*
G01D02*
Y470539D01*
G01X141121Y480712D02*
X138905D01*
G03Y477562I1786J-1575D01*
G01D02*
X141121D01*
G01X143089Y480712D02*
X145305D01*
G02Y477562I-1786J-1575D01*
G01D02*
X143089D01*
G01X143247Y485699D02*
Y483483D01*
G02X140098I-1575J1786D01*
G01D02*
Y485699D01*
G01X159666Y490626D02*
Y492842D01*
G03X156516I-1575J-1786D01*
G01D02*
Y490626D01*
G01Y486442D02*
Y488658D01*
G01X143247Y487666D02*
Y489883D01*
G03X140098I-1575J-1786D01*
G01D02*
Y487666D01*
G01X166035Y363344D02*
Y365560D01*
G01Y369744D02*
Y367528D01*
G01X169477Y352269D02*
X167261D01*
G03Y349120I1786J-1575D01*
G01D02*
X169477D01*
G01X171444Y352269D02*
X173661D01*
G02Y349120I-1786J-1575D01*
G01D02*
X171444D01*
G01X169477Y356060D02*
X167261D01*
G03Y352910I1786J-1575D01*
G01D02*
X169477D01*
G01X171444Y356060D02*
X173661D01*
G02Y352910I-1786J-1575D01*
G01D02*
X171444D01*
G01X169477Y365600D02*
X167261D01*
G03Y362450I1786J-1575D01*
G01D02*
X169477D01*
G01X171444Y365600D02*
X173661D01*
G02Y362450I-1786J-1575D01*
G01D02*
X171444D01*
G01X171507Y374854D02*
Y377070D01*
G03X168358I-1575J-1786D01*
G01D02*
Y374854D01*
G01X171507Y372886D02*
Y370670D01*
G02X168358I-1575J1786D01*
G01D02*
Y372886D01*
G01X187975Y467384D02*
Y469600D01*
G03X184825I-1575J-1786D01*
G01D02*
Y467384D01*
G01X187975Y465416D02*
Y463200D01*
G02X184825I-1575J1786D01*
G01D02*
Y465416D01*
G01X185625Y477416D02*
Y475200D01*
G03X188775I1575J1786D01*
G01D02*
Y477416D01*
G01X185625Y479384D02*
Y481600D01*
G02X188775I1575J-1786D01*
G01D02*
Y479384D01*
G01X183975Y501384D02*
Y503600D01*
G03X180825I-1575J-1786D01*
G01D02*
Y501384D01*
G01X183975Y499416D02*
Y497200D01*
G02X180825I-1575J1786D01*
G01D02*
Y499416D01*
G01X196216Y460375D02*
X194000D01*
G03Y457225I1786J-1575D01*
G01D02*
X196216D01*
G01X198184Y460375D02*
X200400D01*
G02Y457225I-1786J-1575D01*
G01D02*
X198184D01*
G01X218217Y491841D02*
X220433D01*
G03Y494991I-1786J1575D01*
G01D02*
X218217D01*
G01X216249Y491841D02*
X214033D01*
G02Y494991I1786J1575D01*
G01D02*
X216249D01*
G01X218143Y488146D02*
X220359D01*
G03Y491295I-1786J1575D01*
G01D02*
X218143D01*
G01X216175Y488146D02*
X213959D01*
G02Y491295I1786J1575D01*
G01D02*
X216175D01*
G01X219882Y501969D02*
X217666D01*
G03Y498819I1786J-1575D01*
G01D02*
X219882D01*
G01X220866Y508465D02*
X218650D01*
G03Y505315I1786J-1575D01*
G01D02*
X220866D01*
G01X197784Y487225D02*
X200000D01*
G03Y490375I-1786J1575D01*
G01D02*
X197784D01*
G01X195816Y487225D02*
X193600D01*
G02Y490375I1786J1575D01*
G01D02*
X195816D01*
G01X221381Y534155D02*
X219165D01*
G03Y531006I1786J-1575D01*
G01D02*
X221381D01*
G01X220079Y520472D02*
X217863D01*
G02Y523622I1786J1575D01*
G01D02*
X220079D01*
G01X197416Y517975D02*
X195200D01*
G03Y514825I1786J-1575D01*
G01D02*
X197416D01*
G01X199384Y517975D02*
X201600D01*
G02Y514825I-1786J-1575D01*
G01D02*
X199384D01*
G01X225984Y488386D02*
Y486170D01*
G03X229134I1575J1786D01*
G01D02*
Y488386D01*
G01X232284D02*
Y486170D01*
G03X235433I1575J1786D01*
G01D02*
Y488386D01*
G01X248616Y464775D02*
X246400D01*
G03Y461625I1786J-1575D01*
G01D02*
X248616D01*
G01X237225Y488616D02*
Y486400D01*
G03X240375I1575J1786D01*
G01X229916Y513672D02*
Y515888D01*
G03X226767I-1575J-1786D01*
G01D02*
Y513672D01*
G01X229916Y511704D02*
Y509488D01*
G02X226767I-1575J1786D01*
G01D02*
Y511704D01*
G01X243682Y501928D02*
X245898D01*
G03Y505078I-1786J1575D01*
G01D02*
X243682D01*
G01X241714Y501928D02*
X239498D01*
G02Y505078I1786J1575D01*
G01D02*
X241714D01*
G01X241298Y490999D02*
Y488783D01*
G03X244448I1575J1786D01*
G01D02*
Y490999D01*
G01X241298Y492966D02*
Y495183D01*
G02X244448I1575J-1786D01*
G01D02*
Y492966D01*
G01X241799Y512837D02*
Y515053D01*
G03X238650I-1575J-1786D01*
G01D02*
Y512837D01*
G01X241799Y510870D02*
Y508653D01*
G02X238650I-1575J1786D01*
G01D02*
Y510870D01*
G01X224450Y513746D02*
Y515962D01*
G03X221300I-1575J-1786D01*
G01D02*
Y513746D01*
G01X224450Y511778D02*
Y509562D01*
G02X221300I-1575J1786D01*
G01D02*
Y511778D01*
G01X225984Y490354D02*
Y492570D01*
G02X229134I1575J-1786D01*
G01D02*
Y490354D01*
G01X232284D02*
Y492570D01*
G02X235433I1575J-1786D01*
G01D02*
Y490354D01*
G01X221850Y501969D02*
X224066D01*
G02Y498819I-1786J-1575D01*
G01D02*
X221850D01*
G01X222834Y508465D02*
X225050D01*
G02Y505315I-1786J-1575D01*
G01D02*
X222834D01*
G01X240375Y486400D02*
Y488616D01*
G01X237225Y490584D02*
Y492800D01*
G02X240375I1575J-1786D01*
G01D02*
Y490584D01*
G01X238223Y521767D02*
Y523984D01*
G03X235073I-1575J-1786D01*
G01D02*
Y521767D01*
G01X238223Y519800D02*
Y517584D01*
G02X235073I-1575J1786D01*
G01D02*
Y519800D01*
G01X230266Y521767D02*
Y523984D01*
G03X227116I-1575J-1786D01*
G01D02*
Y521767D01*
G01X230266Y519800D02*
Y517584D01*
G02X227116I-1575J1786D01*
G01D02*
Y519800D01*
G01X223348Y534155D02*
X225565D01*
G02Y531006I-1786J-1575D01*
G01D02*
X223348D01*
G01X222047Y520472D02*
X224263D01*
G03Y523622I-1786J1575D01*
G01D02*
X222047D01*
G01X278564Y170732D02*
X276348D01*
G03Y167582I1786J-1575D01*
G01X274425Y458616D02*
Y456400D01*
G03X277575I1575J1786D01*
G01X261024Y488976D02*
X258808D01*
G03Y485827I1786J-1575D01*
G01D02*
X261024D01*
G01X262992Y488976D02*
X265208D01*
G02Y485827I-1786J-1575D01*
G01D02*
X262992D01*
G01X250584Y464775D02*
X252800D01*
G02Y461625I-1786J-1575D01*
G01D02*
X250584D01*
G01X274425Y460584D02*
Y462800D01*
G02X277575I1575J-1786D01*
G01X257481Y532677D02*
X255265D01*
G03Y529528I1786J-1575D01*
G01D02*
X257481D01*
G01X259448Y532677D02*
X261665D01*
G02Y529528I-1786J-1575D01*
G01D02*
X259448D01*
G01X301605Y171079D02*
X303821D01*
G03Y174228I-1786J1575D01*
G01D02*
X301605D01*
G01X299637Y171079D02*
X297421D01*
G02Y174228I1786J1575D01*
G01D02*
X299637D01*
G01X276348Y167582D02*
X278564D01*
G01X280532Y170732D02*
X282748D01*
G02Y167582I-1786J-1575D01*
G01D02*
X280532D01*
G01X277575Y456400D02*
Y458616D01*
G01Y462800D02*
Y460584D01*
G01X302559Y540551D02*
Y542767D01*
G03X299409I-1575J-1786D01*
G01D02*
Y540551D01*
G01X302559Y538583D02*
Y536367D01*
G02X299409I-1575J1786D01*
G01D02*
Y538583D01*
G01X287992Y548819D02*
X285776D01*
G03Y545669I1786J-1575D01*
G01D02*
X287992D01*
G01X289960Y548819D02*
X292176D01*
G02Y545669I-1786J-1575D01*
G01D02*
X289960D01*
G01X322835Y541929D02*
Y544145D01*
G03X319685I-1575J-1786D01*
G01D02*
Y541929D01*
G01X322835Y539961D02*
Y537745D01*
G02X319685I-1575J1786D01*
G01D02*
Y539961D01*
G01X311417Y540158D02*
Y537942D01*
G02X308268I-1575J1786D01*
G01D02*
Y540158D01*
G01X311417Y542126D02*
Y544342D01*
G03X308268I-1575J-1786D01*
G01D02*
Y542126D01*
G01Y552559D02*
Y550343D01*
G03X311417I1575J1786D01*
G01D02*
Y552559D01*
G01X308268Y554527D02*
Y556743D01*
G02X311417I1575J-1786D01*
G01D02*
Y554527D01*
G01X317713Y597285D02*
Y595069D01*
G02X314564I-1575J1786D01*
G01D02*
Y597285D01*
G01X317713Y599253D02*
Y601469D01*
G03X314564I-1575J-1786D01*
G01D02*
Y599253D01*
G01X337913Y597170D02*
Y594954D01*
G02X334764I-1575J1786D01*
G01D02*
Y597170D01*
G01X337913Y599137D02*
Y601354D01*
G03X334764I-1575J-1786D01*
G01D02*
Y599137D01*
G01X408265Y597285D02*
Y595069D01*
G02X405115I-1575J1786D01*
G01D02*
Y597285D01*
G01X408265Y599253D02*
Y601469D01*
G03X405115I-1575J-1786D01*
G01D02*
Y599253D01*
G01X428465Y597170D02*
Y594954D01*
G02X425315I-1575J1786D01*
G01D02*
Y597170D01*
G01X428465Y599137D02*
Y601354D01*
G03X425315I-1575J-1786D01*
G01D02*
Y599137D01*
G01X496772Y516461D02*
Y514245D01*
G02X493622I-1575J1786D01*
G01D02*
Y516461D01*
G01X475784Y515986D02*
Y513770D01*
G02X472635I-1575J1786D01*
G01D02*
Y515986D01*
G01X496772Y518429D02*
Y520645D01*
G03X493622I-1575J-1786D01*
G01D02*
Y518429D01*
G01X475784Y517954D02*
Y520170D01*
G03X472635I-1575J-1786D01*
G01D02*
Y517954D01*
G01X498028Y596892D02*
Y594676D01*
G02X494879I-1575J1786D01*
G01D02*
Y596892D01*
G01X498028Y598859D02*
Y601076D01*
G03X494879I-1575J-1786D01*
G01D02*
Y598859D01*
G01X519016Y597170D02*
Y594954D01*
G02X515866I-1575J1786D01*
G01D02*
Y597170D01*
G01X519016Y599137D02*
Y601354D01*
G03X515866I-1575J-1786D01*
G01D02*
Y599137D01*
G01X554504Y40201D02*
X556720D01*
G03Y43350I-1786J1575D01*
G01X552537Y40201D02*
X550320D01*
G02Y43350I1786J1575D01*
G01X556720D02*
X554504D01*
G01X550320D02*
X552537D01*
G01X579393Y586326D02*
X577177D01*
G03Y583176I1786J-1575D01*
G01D02*
X579393D01*
G01X581361Y586326D02*
X583577D01*
G02Y583176I-1786J-1575D01*
G01D02*
X581361D01*
G01X604205Y565500D02*
Y563284D01*
G03X607354I1575J1786D01*
G01D02*
Y565500D01*
G01X604205Y567468D02*
Y569684D01*
G02X607354I1575J-1786D01*
G01D02*
Y567468D01*
G01X587116Y567985D02*
X584900D01*
G03Y564835I1786J-1575D01*
G01D02*
X587116D01*
G01X589084Y567985D02*
X591300D01*
G02Y564835I-1786J-1575D01*
G01D02*
X589084D01*
G01X594353Y549404D02*
Y551620D01*
G03X591203I-1575J-1786D01*
G01D02*
Y549404D01*
G01X594353Y547436D02*
Y545220D01*
G02X591203I-1575J1786D01*
G01D02*
Y547436D01*
G01X604256Y589358D02*
X606472D01*
G03Y592508I-1786J1575D01*
G01D02*
X604256D01*
G01X602288Y589358D02*
X600072D01*
G02Y592508I1786J1575D01*
G01D02*
X602288D01*
G01X595992Y578276D02*
X598208D01*
G03Y581425I-1786J1575D01*
G01D02*
X595992D01*
G01X594024Y578276D02*
X591808D01*
G02Y581425I1786J1575D01*
G01D02*
X594024D01*
G01X591572Y600317D02*
X589356D01*
G03Y597168I1786J-1575D01*
G01D02*
X591572D01*
G01X593540Y600317D02*
X595756D01*
G02Y597168I-1786J-1575D01*
G01D02*
X593540D01*
G01X604156Y584658D02*
X606372D01*
G03Y587808I-1786J1575D01*
G01D02*
X604156D01*
G01X602188Y584658D02*
X599972D01*
G02Y587808I1786J1575D01*
G01D02*
X602188D01*
G01X616085Y495408D02*
X618302D01*
G03Y498558I-1786J1575D01*
G01D02*
X616085D01*
G01X614118Y495408D02*
X611902D01*
G02Y498558I1786J1575D01*
G01D02*
X614118D01*
G01X616085Y499408D02*
X618302D01*
G03Y502558I-1786J1575D01*
G01D02*
X616085D01*
G01X614118Y499408D02*
X611902D01*
G02Y502558I1786J1575D01*
G01D02*
X614118D01*
G01X673496Y168306D02*
X675713D01*
G03Y171456I-1786J1575D01*
G01D02*
X673496D01*
G01X671529Y168306D02*
X669313D01*
G02Y171456I1786J1575D01*
G01D02*
X671529D01*
G01X674409Y156102D02*
X676625D01*
G03Y159252I-1786J1575D01*
G01D02*
X674409D01*
G01X672441Y156102D02*
X670225D01*
G02Y159252I1786J1575D01*
G01D02*
X672441D01*
G01X725112Y381859D02*
X722896D01*
G03Y378709I1786J-1575D01*
G01X725112Y391174D02*
X722896D01*
G03Y388024I1786J-1575D01*
G01X718504Y392398D02*
Y390182D01*
G03X721654I1575J1786D01*
G01D02*
Y392398D01*
G01X718504Y394366D02*
Y396582D01*
G02X721654I1575J-1786D01*
G01D02*
Y394366D01*
G01X714691Y392398D02*
Y390182D01*
G03X717841I1575J1786D01*
G01D02*
Y392398D01*
G01X714691Y394366D02*
Y396582D01*
G02X717841I1575J-1786D01*
G01D02*
Y394366D01*
G01X716304Y379637D02*
Y381853D01*
G03X713154I-1575J-1786D01*
G01D02*
Y379637D01*
G01X716304Y377669D02*
Y375453D01*
G02X713154I-1575J1786D01*
G01D02*
Y377669D01*
G01X698942Y405402D02*
X696726D01*
G03Y402253I1786J-1575D01*
G01D02*
X698942D01*
G01X700910Y405402D02*
X703126D01*
G02Y402253I-1786J-1575D01*
G01D02*
X700910D01*
G01X731261Y358452D02*
X733477D01*
G03Y361602I-1786J1575D01*
G01D02*
X731261D01*
G01X729293Y358452D02*
X727077D01*
G02Y361602I1786J1575D01*
G01D02*
X729293D01*
G01X731261Y362252D02*
X733477D01*
G03Y365402I-1786J1575D01*
G01D02*
X731261D01*
G01X729293Y362252D02*
X727077D01*
G02Y365402I1786J1575D01*
G01D02*
X729293D01*
G01X722896Y378709D02*
X725112D01*
G01X727080Y381859D02*
X729296D01*
G02Y378709I-1786J-1575D01*
G01D02*
X727080D01*
G01X722896Y388024D02*
X725112D01*
G01X727080Y391174D02*
X729296D01*
G02Y388024I-1786J-1575D01*
G01D02*
X727080D01*
G01X743816Y385175D02*
X741600D01*
G03Y382025I1786J-1575D01*
G01D02*
X743816D01*
G01X745784Y385175D02*
X748000D01*
G02Y382025I-1786J-1575D01*
G01D02*
X745784D01*
G01X743958Y499197D02*
Y501413D01*
G03X740808I-1575J-1786D01*
G01D02*
Y499197D01*
G01X743958Y497229D02*
Y495013D01*
G02X740808I-1575J1786D01*
G01D02*
Y497229D01*
G01X748761Y499197D02*
Y501413D01*
G03X745612I-1575J-1786D01*
G01D02*
Y499197D01*
G01X748761Y497229D02*
Y495013D01*
G02X745612I-1575J1786D01*
G01D02*
Y497229D01*
G01X744003Y574434D02*
X746219D01*
G03Y577583I-1786J1575D01*
G01D02*
X744003D01*
G01X742035Y574434D02*
X739819D01*
G02Y577583I1786J1575D01*
G01D02*
X742035D01*
G01X728973Y574434D02*
X731189D01*
G03Y577583I-1786J1575D01*
G01D02*
X728973D01*
G01X727006Y574434D02*
X724789D01*
G02Y577583I1786J1575D01*
G01D02*
X727006D01*
G01X762425Y374216D02*
Y372000D01*
G03X765575I1575J1786D01*
G01D02*
Y374216D01*
G01X768896Y380905D02*
Y378689D01*
G03X772046I1575J1786D01*
G01D02*
Y380905D01*
G01X768896Y382873D02*
Y385089D01*
G02X772046I1575J-1786D01*
G01D02*
Y382873D01*
G01X762425Y376184D02*
Y378400D01*
G02X765575I1575J-1786D01*
G01D02*
Y376184D01*
G01X774409Y430118D02*
Y432334D01*
G03X771260I-1575J-1786D01*
G01D02*
Y430118D01*
G01X774409Y428150D02*
Y425934D01*
G02X771260I-1575J1786D01*
G01D02*
Y428150D01*
G01X764170Y443617D02*
X761954D01*
G03Y440468I1786J-1575D01*
G01D02*
X764170D01*
G01X766138Y443617D02*
X768354D01*
G02Y440468I-1786J-1575D01*
G01D02*
X766138D01*
G01X753959Y499197D02*
Y501413D01*
G03X750809I-1575J-1786D01*
G01D02*
Y499197D01*
G01X753959Y497229D02*
Y495013D01*
G02X750809I-1575J1786D01*
G01D02*
Y497229D01*
G01X779132Y379724D02*
Y377508D01*
G03X782282I1575J1786D01*
G01D02*
Y379724D01*
G01X779132Y381692D02*
Y383908D01*
G02X782282I1575J-1786D01*
G01D02*
Y381692D01*
G01X785258Y576572D02*
Y574356D01*
G03X788407I1575J1786D01*
G01D02*
Y576572D01*
G01X785258Y578540D02*
Y580756D01*
G02X788407I1575J-1786D01*
G01D02*
Y578540D01*
G54D15*
G01X736449Y511362D02*
G03I-1378J0D01*
G01Y507362D02*
G03I-1378J0D01*
G01X769886Y504716D02*
G03I-1378J0D01*
G01X758709Y499970D02*
G03I-1378J0D01*
G54D16*
G01X808114Y370304D02*
X790917D01*
G02X790366Y370532I0J780D01*
G01X789685Y371209D01*
G02X789689Y375580I2188J2183D01*
G01X790567Y376454D01*
G02X790917Y376607I359J-342D01*
G01X808114Y376603D01*
G01X807929Y370402D02*
X810724Y367607D01*
Y276977D01*
G01X807929Y376505D02*
X810724Y379300D01*
Y430442D01*
G54D17*
G01X234143Y456469D02*
Y465131D01*
G01X239457D02*
Y456469D01*
G01D02*
X234143D01*
G01Y465131D02*
X239457D01*
G01X230949Y535645D02*
Y538944D01*
G01D02*
X238049D01*
G01X230949Y529645D02*
Y526346D01*
G01D02*
X238049D01*
G01X238035Y533629D02*
Y531661D01*
G01X259400Y458457D02*
X256101D01*
G01D02*
Y465557D01*
G01X265400Y458457D02*
X268699D01*
G01D02*
Y465557D01*
G01X261416Y465543D02*
X263384D01*
G01X606300Y558906D02*
Y562204D01*
G01D02*
X613400D01*
G01X606300Y552906D02*
Y549607D01*
G01D02*
X613400D01*
G01X613385Y556889D02*
Y554922D01*
G01X611418Y594732D02*
Y598031D01*
G01Y588732D02*
Y585434D01*
G01D02*
X618518D01*
G01X618504Y592716D02*
Y590748D01*
G01X611418Y598031D02*
X618518D01*
G01X649212Y573378D02*
Y570079D01*
G01D02*
X642112D01*
G01X649212Y579378D02*
Y582677D01*
G01D02*
X642112D01*
G01X642126Y575394D02*
Y577362D01*
G01X730264Y432487D02*
Y429188D01*
G01D02*
X723164D01*
G01X730264Y438487D02*
Y441785D01*
G01D02*
X723164D01*
G01X723178Y434503D02*
Y436470D01*
G01X743388Y433715D02*
Y442377D01*
G01D02*
X748702D01*
G01D02*
Y433715D01*
G01D02*
X743388D01*
G54D18*
G01X750843Y421223D02*
G03I-839J0D01*
G01X772529Y442918D02*
G03I-839J0D01*
G54D19*
G01X128887Y321418D02*
X125738D01*
G02Y326141I3417J2362D01*
G01D02*
X128887D01*
G01X132037Y321418D02*
X135186D01*
G03Y326141I-3417J2362D01*
G01D02*
X132037D01*
G01X136657Y346444D02*
Y349593D01*
G02X141381I2362J-3417D01*
G01X136657Y343294D02*
Y340145D01*
G03X141381I2362J3417D01*
G01X130747Y346234D02*
Y349383D01*
G02X135470I2362J-3417D01*
G01D02*
Y346234D01*
G01X130747Y343084D02*
Y339935D01*
G03X135470I2362J3417D01*
G01D02*
Y343084D01*
G01X129731Y368850D02*
Y364716D01*
G01D02*
X125007D01*
G01D02*
Y368850D01*
G01X129731Y371212D02*
Y375346D01*
G01X125007D02*
Y371212D01*
G01X131587Y358221D02*
X134737D01*
G02Y353497I-3417J-2362D01*
G01D02*
X131587D01*
G01X128438Y358221D02*
X125289D01*
G03Y353497I3417J-2362D01*
G01D02*
X128438D01*
G01X129731Y375346D02*
X125007D01*
G01X140740Y434956D02*
Y431006D01*
G02X133260I-3740J7585D01*
G01D02*
Y434956D01*
G01Y438500D02*
Y442465D01*
G02X140839I3790J-7024D01*
G01X126852Y515929D02*
Y511979D01*
G02X119372I-3740J7585D01*
G01D02*
Y515929D01*
G01X130287Y511365D02*
G03I-1056J0D01*
G01X132200Y527704D02*
X129641D01*
G01D02*
Y530854D01*
G01D02*
X132200D01*
G01X134168Y527704D02*
X136727D01*
G01D02*
Y530854D01*
G01D02*
X134168D01*
G01X119372Y519473D02*
Y523438D01*
G02X126951I3790J-7024D01*
G01D02*
Y519473D01*
G01X167520Y331627D02*
X164370D01*
G01D02*
Y334186D01*
G01X167520Y338713D02*
X164370D01*
G01D02*
Y336154D01*
G01X160438D02*
Y338713D01*
G01D02*
X163588D01*
G01D02*
Y336154D01*
G01X160438Y334186D02*
Y331627D01*
G01D02*
X163588D01*
G01D02*
Y334186D01*
G01X156438Y336154D02*
Y338713D01*
G01D02*
X159588D01*
G01D02*
Y336154D01*
G01X156438Y334186D02*
Y331627D01*
G01D02*
X159588D01*
G01D02*
Y334186D01*
G01X148376Y336080D02*
Y338639D01*
G01D02*
X151526D01*
G01D02*
Y336080D01*
G01X148376Y334112D02*
Y331553D01*
G01D02*
X151526D01*
G01D02*
Y334112D01*
G01X152438Y336154D02*
Y338713D01*
G01D02*
X155588D01*
G01D02*
Y336154D01*
G01X152438Y334186D02*
Y331627D01*
G01D02*
X155588D01*
G01D02*
Y334186D01*
G01X144376Y336080D02*
Y338639D01*
G01D02*
X147526D01*
G01D02*
Y336080D01*
G01X144376Y334112D02*
Y331553D01*
G01D02*
X147526D01*
G01D02*
Y334112D01*
G01X141381Y349593D02*
Y346444D01*
G01Y340145D02*
Y343294D01*
G01X150134Y373824D02*
Y369874D01*
G02X142654I-3740J7585D01*
G01D02*
Y373824D01*
G01Y377368D02*
Y381334D01*
G02X150233I3790J-7024D01*
G01D02*
Y377368D01*
G01X163055Y421323D02*
X159090D01*
G02Y428902I7024J3790D01*
G01D02*
X163055D01*
G01X149228Y434956D02*
Y431006D01*
G02X141748I-3740J7585D01*
G01X158095Y444214D02*
X155536D01*
G01D02*
Y447364D01*
G01D02*
X158095D01*
G01X160063Y444214D02*
X162622D01*
G01D02*
Y447364D01*
G01D02*
X160063D01*
G01X140839Y442465D02*
Y438500D01*
G01X141748Y431006D02*
Y434956D01*
G01Y438500D02*
Y442465D01*
G02X149327I3790J-7024D01*
G01D02*
Y438500D01*
G01X158893Y448540D02*
X154943D01*
G02Y456020I7585J3740D01*
G01D02*
X158893D01*
G01X162437D02*
X166402D01*
G02Y448441I-7024J-3790D01*
G01D02*
X162437D01*
G01X152388Y432154D02*
G03I-1056J0D01*
G01X162885Y470254D02*
X166835D01*
G02Y462774I-7585J-3740D01*
G01D02*
X162885D01*
G01X159341D02*
X155376D01*
G02Y470353I7024J3790D01*
G01D02*
X159341D01*
G01X154158Y516324D02*
Y512374D01*
G02X146677I-3740J7585D01*
G01D02*
Y516324D01*
G01X144035Y500160D02*
Y503309D01*
G02X148759I2362J-3417D01*
G01D02*
Y500160D01*
G01X144035Y497010D02*
Y493861D01*
G03X148759I2362J3417D01*
G01D02*
Y497010D01*
G01X146677Y519868D02*
Y523833D01*
G02X154256I3790J-7024D01*
G01D02*
Y519868D01*
G01X167520Y334186D02*
Y331627D01*
G01Y336154D02*
Y338713D01*
G01X184927Y350134D02*
Y346985D01*
G01D02*
X182368D01*
G01X177841Y350134D02*
Y346985D01*
G01D02*
X180400D01*
G01X182368Y353874D02*
X184927D01*
G01D02*
Y350725D01*
G01D02*
X182368D01*
G01X180400Y353874D02*
X177841D01*
G01D02*
Y350725D01*
G01D02*
X180400D01*
G01X182368Y361355D02*
X184927D01*
G01D02*
Y358205D01*
G01D02*
X182368D01*
G01X180400Y361355D02*
X177841D01*
G01D02*
Y358205D01*
G01D02*
X180400D01*
G01Y361945D02*
X177841D01*
G01D02*
Y365095D01*
G01D02*
X180400D01*
G01X182368Y361945D02*
X184927D01*
G01D02*
Y365095D01*
G01D02*
X182368D01*
G01X180400Y354465D02*
X177841D01*
G01D02*
Y357615D01*
G01D02*
X180400D01*
G01X182368Y354465D02*
X184927D01*
G01D02*
Y357615D01*
G01D02*
X182368D01*
G01X180400Y365685D02*
X177841D01*
G01D02*
Y368835D01*
G01D02*
X180400D01*
G01X182368Y365685D02*
X184927D01*
G01D02*
Y368835D01*
G01D02*
X182368D01*
G01Y350134D02*
X184927D01*
G01X180400D02*
X177841D01*
G01X181057Y374221D02*
Y370271D01*
G02X173576I-3740J7585D01*
G01D02*
Y374221D01*
G01Y377765D02*
Y381730D01*
G02X181156I3790J-7024D01*
G01D02*
Y377765D01*
G01X166599Y428803D02*
X170549D01*
G02Y421323I-7585J-3740D01*
G01D02*
X166599D01*
G01X180825Y467384D02*
Y469943D01*
G01D02*
X183975D01*
G01D02*
Y467384D01*
G01X180825Y465416D02*
Y462857D01*
G01D02*
X183975D01*
G01D02*
Y465416D01*
G01X194025Y481238D02*
X190876D01*
G02Y485962I3417J2362D01*
G01D02*
X194025D01*
G01X183816Y507225D02*
X181257D01*
G01D02*
Y510375D01*
G01D02*
X183816D01*
G01X185784Y507225D02*
X188343D01*
G01D02*
Y510375D01*
G01D02*
X185784D01*
G01X188343Y514375D02*
Y511225D01*
G01D02*
X185784D01*
G01X181257Y514375D02*
Y511225D01*
G01D02*
X183816D01*
G01X185225Y501384D02*
Y503943D01*
G01D02*
X188375D01*
G01D02*
Y501384D01*
G01X185225Y499416D02*
Y496857D01*
G01D02*
X188375D01*
G01D02*
Y499416D01*
G01X194425Y491638D02*
X191276D01*
G02Y496362I3417J2362D01*
G01D02*
X194425D01*
G01X185784Y514375D02*
X188343D01*
G01X183816D02*
X181257D01*
G01X185784Y518375D02*
X188343D01*
G01D02*
Y515225D01*
G01D02*
X185784D01*
G01X183816Y518375D02*
X181257D01*
G01D02*
Y515225D01*
G01D02*
X183816D01*
G01X212205Y480118D02*
Y482677D01*
G01D02*
X215354D01*
G01D02*
Y480118D01*
G01X212205Y478150D02*
Y475591D01*
G01D02*
X215354D01*
G01D02*
Y478150D01*
G01X212629Y488133D02*
Y484984D01*
G01D02*
X210070D01*
G01X205543Y488133D02*
Y484984D01*
G01D02*
X208102D01*
G01X197175Y481238D02*
X200324D01*
G03Y485962I-3417J2362D01*
G01D02*
X197175D01*
G01X203036Y462663D02*
G03I-1056J0D01*
G01X210070Y495613D02*
X212629D01*
G01D02*
Y492464D01*
G01D02*
X210070D01*
G01X208102Y495613D02*
X205543D01*
G01D02*
Y492464D01*
G01D02*
X208102D01*
G01X210070Y491873D02*
X212629D01*
G01D02*
Y488724D01*
G01D02*
X210070D01*
G01X208102Y491873D02*
X205543D01*
G01D02*
Y488724D01*
G01D02*
X208102D01*
G01X210070Y488133D02*
X212629D01*
G01X208102D02*
X205543D01*
G01X216362Y510025D02*
Y506876D01*
G02X211638I-2362J3417D01*
G01D02*
Y510025D01*
G01X216362Y513175D02*
Y516324D01*
G03X211638I-2362J-3417D01*
G01D02*
Y513175D01*
G01X197575Y491638D02*
X200724D01*
G03Y496362I-3417J2362D01*
G01D02*
X197575D01*
G01X204236Y497463D02*
G03I-1056J0D01*
G01X245774Y204291D02*
X242625D01*
G03Y199567I3417J-2362D01*
G01D02*
X245774D01*
G01X229975Y459816D02*
Y457257D01*
G01D02*
X226825D01*
G01D02*
Y459816D01*
G01X247225Y456038D02*
X244076D01*
G02Y460762I3417J2362D01*
G01X242184Y469575D02*
X244743D01*
G01D02*
Y466425D01*
G01D02*
X242184D01*
G01X240216Y469575D02*
X237657D01*
G01D02*
Y466425D01*
G01D02*
X240216D01*
G01X229975Y461784D02*
Y464343D01*
G01D02*
X226825D01*
G01D02*
Y461784D01*
G01X232216Y466425D02*
X229657D01*
G01D02*
Y469575D01*
G01D02*
X232216D01*
G01X234184Y466425D02*
X236743D01*
G01D02*
Y469575D01*
G01D02*
X234184D01*
G01X244076Y460762D02*
X247225D01*
G01X232552Y496598D02*
Y494039D01*
G01D02*
X229402D01*
G01D02*
Y496598D01*
G01X232552Y498566D02*
Y501125D01*
G01D02*
X229402D01*
G01D02*
Y498566D01*
G01X225197Y498622D02*
Y501181D01*
G01D02*
X228346D01*
G01D02*
Y498622D01*
G01X225197Y496654D02*
Y494095D01*
G01D02*
X228346D01*
G01D02*
Y496654D01*
G01X242029Y519898D02*
Y517339D01*
G01D02*
X238880D01*
G01D02*
Y519898D01*
G01X242029Y521865D02*
Y524424D01*
G01D02*
X238880D01*
G01D02*
Y521865D01*
G01X230985D02*
Y524424D01*
G01D02*
X234135D01*
G01D02*
Y521865D01*
G01X230985Y519898D02*
Y517339D01*
G01D02*
X234135D01*
G01D02*
Y519898D01*
G01X278564Y174725D02*
X276005D01*
G01D02*
Y171576D01*
G01D02*
X278564D01*
G01X248924Y204291D02*
X252073D01*
G02Y199567I-3417J-2362D01*
G01D02*
X248924D01*
G01X270425Y458616D02*
Y456057D01*
G01D02*
X273575D01*
G01D02*
Y458616D01*
G01X250375Y456038D02*
X253524D01*
G03Y460762I-3417J2362D01*
G01X270425Y460584D02*
Y463143D01*
G01D02*
X273575D01*
G01D02*
Y460584D01*
G01X253524Y460762D02*
X250375D01*
G01X280532Y174725D02*
X283091D01*
G01D02*
Y171576D01*
G01D02*
X280532D01*
G01X299301Y175030D02*
X295351D01*
G02Y182510I7585J3740D01*
G01X306810Y174931D02*
X302845D01*
G01X295351Y182510D02*
X299301D01*
G01X302845D02*
X306810D01*
G02Y174931I-7024J-3790D01*
G01X307175Y592457D02*
X304025D01*
G01D02*
Y595016D01*
G01Y599543D02*
Y596984D01*
G01X307175Y599543D02*
X304025D01*
G01X319094Y539863D02*
Y537304D01*
G01D02*
X315945D01*
G01D02*
Y539863D01*
G01X319094Y541831D02*
Y544390D01*
G01X315945D02*
Y541831D01*
G01X319094Y544390D02*
X315945D01*
G01X331693Y557284D02*
Y560433D01*
G02X336417I2362J-3417D01*
G01X331693Y554134D02*
Y550985D01*
G03X336417I2362J3417D01*
G01X324803Y598819D02*
Y596260D01*
G01D02*
X327953D01*
G01D02*
Y598819D01*
G01X307175Y595016D02*
Y592457D01*
G01Y596984D02*
Y599543D01*
G01X309237Y595885D02*
Y592736D01*
G03X313961I2362J3417D01*
G01D02*
Y595885D01*
G01X324803Y600787D02*
Y603346D01*
G01D02*
X327953D01*
G01D02*
Y600787D01*
G01X309237Y599035D02*
Y602184D01*
G02X313961I2362J-3417D01*
G01D02*
Y599035D01*
G01X336417Y560433D02*
Y557284D01*
G01Y550985D02*
Y554134D01*
G01X339377Y596779D02*
Y593630D01*
G03X344100I2362J3417D01*
G01D02*
Y596779D01*
G01X339377Y599928D02*
Y603078D01*
G02X344100I2362J-3417D01*
G01D02*
Y599928D01*
G01X399789Y595885D02*
Y592736D01*
G03X404512I2362J3417D01*
G01D02*
Y595885D01*
G01X399789Y599035D02*
Y602184D01*
G02X404512I2362J-3417D01*
G01D02*
Y599035D01*
G01X429928Y596779D02*
Y593630D01*
G03X434652I2362J3417D01*
G01D02*
Y596779D01*
G01X429928Y599928D02*
Y603078D01*
G02X434652I2362J-3417D01*
G01D02*
Y599928D01*
G01X459595Y513734D02*
X462154D01*
G01D02*
Y510584D01*
G01D02*
X459595D01*
G01X457628Y513734D02*
X455069D01*
G01D02*
Y510584D01*
G01D02*
X457628D01*
G01X467308Y514586D02*
Y511437D01*
G03X472032I2362J3417D01*
G01X457628Y514370D02*
X455069D01*
G01D02*
Y517520D01*
G01D02*
X457628D01*
G01X459595Y514370D02*
X462154D01*
G01D02*
Y517520D01*
G01D02*
X459595D01*
G01X467308Y517735D02*
Y520885D01*
G02X472032I2362J-3417D01*
G01Y511437D02*
Y514586D01*
G01X498235Y516070D02*
Y512921D01*
G03X502959I2362J3417D01*
G01X472032Y520885D02*
Y517735D01*
G01X498235Y519220D02*
Y522369D01*
G02X502959I2362J-3417D01*
G01X489552Y595491D02*
Y592342D01*
G03X494276I2362J3417D01*
G01D02*
Y595491D01*
G01X489552Y598641D02*
Y601790D01*
G02X494276I2362J-3417D01*
G01D02*
Y598641D01*
G01X510037Y53247D02*
X510037Y55806D01*
G01D02*
X513187D01*
G01D02*
X513186Y53247D01*
G01X510037Y51280D02*
X510037Y48720D01*
G01D02*
X513187D01*
G01D02*
X513186Y51280D01*
G01X500322Y53247D02*
Y55806D01*
G01D02*
X503472D01*
G01D02*
Y53247D01*
G01X500322Y51280D02*
Y48720D01*
G01D02*
X503472D01*
G01D02*
Y51280D01*
G01X502959Y512921D02*
Y516070D01*
G01Y522369D02*
Y519220D01*
G01X530375Y550457D02*
X527225D01*
G01D02*
Y553016D01*
G01X530375Y557543D02*
X527225D01*
G01D02*
Y554984D01*
G01X522660Y567372D02*
Y571322D01*
G02X530140I3740J-7585D01*
G01Y563828D02*
Y559863D01*
G02X522561I-3790J7024D01*
G01D02*
Y563828D01*
G01X519692Y596779D02*
Y593630D01*
G03X524415I2362J3417D01*
G01D02*
Y596779D01*
G01X519692Y599928D02*
Y603078D01*
G02X524415I2362J-3417D01*
G01D02*
Y599928D01*
G01X551433Y44915D02*
X547483D01*
G02Y52395I7585J3740D01*
G01D02*
X551433D01*
G01X554977D02*
X558942D01*
G02Y44816I-7024J-3790D01*
G01D02*
X554977D01*
G01X540184Y557575D02*
X542743D01*
G01D02*
Y554425D01*
G01D02*
X540184D01*
G01X538216Y557575D02*
X535657D01*
G01D02*
Y554425D01*
G01D02*
X538216D01*
G01X530375Y553016D02*
Y550457D01*
G01Y554984D02*
Y557543D01*
G01X530825Y554984D02*
Y557543D01*
G01D02*
X533975D01*
G01D02*
Y554984D01*
G01X530825Y553016D02*
Y550457D01*
G01D02*
X533975D01*
G01D02*
Y553016D01*
G01X549460Y566972D02*
Y570922D01*
G02X556940I3740J-7585D01*
G01Y563428D02*
Y559463D01*
G02X549361I-3790J7024D01*
G01D02*
Y563428D01*
G01X530140Y571322D02*
Y567372D01*
G01X547993Y573180D02*
G03I-1056J0D01*
G01X556940Y570922D02*
Y566972D01*
G01X581295Y590252D02*
X583854D01*
G01Y587102D02*
X581295D01*
G01X579327Y590252D02*
X576768D01*
G01D02*
Y587102D01*
G01D02*
X579327D01*
G01X612216Y46775D02*
X609657D01*
G01D02*
Y43625D01*
G01D02*
X612216D01*
G01X587116Y560535D02*
X584558D01*
G01D02*
Y563685D01*
G01D02*
X587116D01*
G01X589084Y560535D02*
X591643D01*
G01D02*
Y563685D01*
G01D02*
X589084D01*
G01X587117Y568993D02*
X584558D01*
G01D02*
Y572142D01*
G01X589085Y568993D02*
X591644D01*
G01D02*
Y572142D01*
G01X594752Y566650D02*
Y570600D01*
G02X602232I3740J-7585D01*
G01D02*
Y566650D01*
G01Y563106D02*
Y559141D01*
G02X594653I-3790J7024D01*
G01D02*
Y563106D01*
G01X583854Y590252D02*
Y587102D01*
G01X584558Y572142D02*
X587117D01*
G01X591644D02*
X589085D01*
G01X614184Y46775D02*
X616743D01*
G01D02*
Y43625D01*
G01D02*
X614184D01*
G01X661016Y172825D02*
X658457D01*
G01D02*
Y175975D01*
G01D02*
X661016D01*
G01X662984Y172825D02*
X665543D01*
G01D02*
Y175975D01*
G01D02*
X662984D01*
G01X661016Y168825D02*
X658457D01*
G01D02*
Y171975D01*
G01D02*
X661016D01*
G01X662984Y168825D02*
X665543D01*
G01D02*
Y171975D01*
G01D02*
X662984D01*
G01X670341Y176904D02*
X667192D01*
G03Y172181I3417J-2362D01*
G01X671653Y148032D02*
X667703D01*
G02Y155512I7585J3740D01*
G01X675197D02*
X679162D01*
G02Y147933I-7024J-3790D01*
G01D02*
X675197D01*
G01X667703Y155512D02*
X671653D01*
G01X675197Y164960D02*
X678346D01*
G02Y160237I-3417J-2362D01*
G01D02*
X675197D01*
G01X672047Y164960D02*
X668898D01*
G03Y160237I3417J-2362D01*
G01D02*
X672047D01*
G01X673491Y176904D02*
X676640D01*
G02Y172181I-3417J-2362D01*
G01D02*
X673491D01*
G01X667192D02*
X670341D01*
G01X696170Y221999D02*
X693020D01*
G01D02*
Y224558D01*
G01X696170Y229085D02*
X693020D01*
G01D02*
Y226526D01*
G01X692380Y224558D02*
Y221999D01*
G01D02*
X689231D01*
G01D02*
Y224558D01*
G01X692380Y226526D02*
Y229085D01*
G01D02*
X689231D01*
G01D02*
Y226526D01*
G01X688590Y224558D02*
Y221999D01*
G01D02*
X685441D01*
G01D02*
Y224558D01*
G01X688590Y226526D02*
Y229085D01*
G01D02*
X685441D01*
G01D02*
Y226526D01*
G01X690339Y402209D02*
X687780D01*
G01D02*
Y405359D01*
G01X692307Y402209D02*
X694866D01*
G01X691885Y385616D02*
X688736D01*
G03Y380893I3417J-2362D01*
G01D02*
X691885D01*
G01X686851Y388851D02*
G03I-1056J0D01*
G01X692307Y409236D02*
X694866D01*
G01Y406087D02*
X692307D01*
G01X690339Y409236D02*
X687780D01*
G01D02*
Y406087D01*
G01D02*
X690339D01*
G01X687780Y405359D02*
X690339D01*
G01X694866D02*
X692307D01*
G01X709261Y224558D02*
Y221999D01*
G01D02*
X706112D01*
G01D02*
Y224558D01*
G01X709261Y226526D02*
Y229085D01*
G01D02*
X706112D01*
G01D02*
Y226526D01*
G01X696170Y224558D02*
Y221999D01*
G01Y226526D02*
Y229085D01*
G01X700009Y224558D02*
Y221999D01*
G01D02*
X696859D01*
G01D02*
Y224558D01*
G01X700009Y226526D02*
Y229085D01*
G01D02*
X696859D01*
G01D02*
Y226526D01*
G01X709141Y368048D02*
X706582D01*
G01D02*
Y371198D01*
G01D02*
X709141D01*
G01X711109Y368048D02*
X713668D01*
G01D02*
Y371198D01*
G01D02*
X711109D01*
G01X709141Y364248D02*
X706582D01*
G01D02*
Y367398D01*
G01D02*
X709141D01*
G01X711109Y364248D02*
X713668D01*
G01D02*
Y367398D01*
G01D02*
X711109D01*
G01X694866Y402209D02*
Y405359D01*
G01X705320Y393632D02*
Y396781D01*
G02X710043I2362J-3417D01*
G01D02*
Y393632D01*
G01X705320Y390482D02*
Y387333D01*
G03X710043I2362J3417D01*
G01D02*
Y390482D01*
G01X695035Y385616D02*
X698184D01*
G02Y380893I-3417J-2362D01*
G01D02*
X695035D01*
G01X694866Y409236D02*
Y406087D01*
G01X715746Y432493D02*
Y429934D01*
G01D02*
X718896D01*
G01D02*
Y432493D01*
G01X723831Y427364D02*
X721272D01*
G01D02*
Y424214D01*
G01D02*
X723831D01*
G01X715746Y434460D02*
Y437019D01*
G01D02*
X718896D01*
G01D02*
Y434460D01*
G01X722756Y366961D02*
Y369520D01*
G01D02*
X725905D01*
G01D02*
Y366961D01*
G01X722756Y364993D02*
Y362434D01*
G01D02*
X725905D01*
G01D02*
Y364993D01*
G01Y356893D02*
Y354334D01*
G01D02*
X722756D01*
G01D02*
Y356893D01*
G01X725905Y358861D02*
Y361420D01*
G01D02*
X722756D01*
G01D02*
Y358861D01*
G01X742452Y364993D02*
Y362434D01*
G01D02*
X739302D01*
G01D02*
Y364993D01*
G01X742452Y366961D02*
Y369520D01*
G01D02*
X739302D01*
G01D02*
Y366961D01*
G01Y358861D02*
Y361420D01*
G01D02*
X742452D01*
G01D02*
Y358861D01*
G01X739302Y356893D02*
Y354334D01*
G01D02*
X742452D01*
G01D02*
Y356893D01*
G01X735002Y366961D02*
Y369520D01*
G01D02*
X738152D01*
G01D02*
Y366961D01*
G01X735002Y364993D02*
Y362434D01*
G01D02*
X738152D01*
G01D02*
Y364993D01*
G01Y356893D02*
Y354334D01*
G01D02*
X735002D01*
G01D02*
Y356893D01*
G01X738152Y358861D02*
Y361420D01*
G01D02*
X735002D01*
G01D02*
Y358861D01*
G01X743816Y386425D02*
X741257D01*
G01D02*
Y389575D01*
G01D02*
X743816D01*
G01X745784Y386425D02*
X748343D01*
G01D02*
Y389575D01*
G01D02*
X745784D01*
G01Y393975D02*
X748343D01*
G01D02*
Y390825D01*
G01D02*
X745784D01*
G01X743816Y393975D02*
X741257D01*
G01D02*
Y390825D01*
G01D02*
X743816D01*
G01X747428Y401060D02*
X743463D01*
G02Y408639I7024J3790D01*
G01X725799Y427364D02*
X728358D01*
G01D02*
Y424214D01*
G01D02*
X725799D01*
G01X747428Y409860D02*
X743463D01*
G02Y417439I7024J3790D01*
G01D02*
X747428D01*
G01X743463Y408639D02*
X747428D01*
G01X738726Y436275D02*
Y433716D01*
G01D02*
X735576D01*
G01D02*
Y436275D01*
G01X738726Y438243D02*
Y440802D01*
G01D02*
X735576D01*
G01D02*
Y438243D01*
G01X733866Y505285D02*
X737015D01*
G02Y500561I-3417J-2362D01*
G01D02*
X733866D01*
G01X730716Y505285D02*
X727567D01*
G03Y500561I3417J-2362D01*
G01D02*
X730716D01*
G01X727261Y513798D02*
Y516948D01*
G02X731985I2362J-3417D01*
G01D02*
Y513798D01*
G01X727261Y510649D02*
Y507500D01*
G03X731985I2362J3417D01*
G01D02*
Y510649D01*
G01X733682Y539161D02*
X736241D01*
G01D02*
Y536011D01*
G01D02*
X733682D01*
G01X731714Y539161D02*
X729155D01*
G01D02*
Y536011D01*
G01D02*
X731714D01*
G01X727261Y525413D02*
Y528562D01*
G02X731985I2362J-3417D01*
G01D02*
Y525413D01*
G01X727261Y522263D02*
Y519114D01*
G03X731985I2362J3417D01*
G01D02*
Y522263D01*
G01X730334Y530222D02*
X727185D01*
G02Y534945I3417J2362D01*
G01D02*
X730334D01*
G01X733484Y530222D02*
X736633D01*
G03Y534945I-3417J2362D01*
G01D02*
X733484D01*
G01X740318Y581592D02*
X742877D01*
G01D02*
Y578443D01*
G01D02*
X740318D01*
G01X738350Y581592D02*
X735791D01*
G01D02*
Y578443D01*
G01D02*
X738350D01*
G01X727006Y570599D02*
X724446D01*
G01D02*
Y573749D01*
G01D02*
X727006D01*
G01X728973Y570599D02*
X731532D01*
G01D02*
Y573749D01*
G01D02*
X728973D01*
G01X730551Y578443D02*
X727992D01*
G01D02*
Y581592D01*
G01D02*
X730551D01*
G01X732518Y578443D02*
X735078D01*
G01D02*
Y581592D01*
G01D02*
X732518D01*
G01X744003Y573749D02*
X746562D01*
G01D02*
Y570599D01*
G01D02*
X744003D01*
G01X742035Y573749D02*
X739476D01*
G01D02*
Y570599D01*
G01D02*
X742035D01*
G01X758425Y374216D02*
Y371657D01*
G01D02*
X761575D01*
G01D02*
Y374216D01*
G01X757575D02*
Y371657D01*
G01D02*
X754425D01*
G01D02*
Y374216D01*
G01X750425D02*
Y371657D01*
G01D02*
X753575D01*
G01D02*
Y374216D01*
G01X758425Y376184D02*
Y378743D01*
G01D02*
X761575D01*
G01D02*
Y376184D01*
G01X757575D02*
Y378743D01*
G01D02*
X754425D01*
G01D02*
Y376184D01*
G01X750425D02*
Y378743D01*
G01D02*
X753575D01*
G01D02*
Y376184D01*
G01X750972Y408540D02*
X754922D01*
G02Y401060I-7585J-3740D01*
G01D02*
X750972D01*
G01X777951Y379133D02*
Y375984D01*
G02X773227I-2362J3417D01*
G01D02*
Y379133D01*
G01X777951Y382283D02*
Y385432D01*
G03X773227I-2362J-3417D01*
G01D02*
Y382283D01*
G01X753919Y398120D02*
G03I-1056J0D01*
G01X750972Y417340D02*
X754922D01*
G02Y409860I-7585J-3740D01*
G01D02*
X750972D01*
G01X775394Y430118D02*
Y433267D01*
G02X780118I2362J-3417D01*
G01X775394Y426969D02*
Y423819D01*
G03X780118I2362J3417D01*
G01X757727Y439620D02*
X760286D01*
G01D02*
Y436471D01*
G01D02*
X757727D01*
G01X755759Y439620D02*
X753200D01*
G01D02*
Y436471D01*
G01D02*
X755759D01*
G01X766138Y439620D02*
X768697D01*
G01D02*
Y436471D01*
G01D02*
X766138D01*
G01X764170Y439620D02*
X761611D01*
G01D02*
Y436471D01*
G01D02*
X764170D01*
G01X775801Y458832D02*
Y455683D01*
G03X780525I2362J3417D01*
G01X775801Y461982D02*
Y465131D01*
G02X780525I2362J-3417D01*
G01X767852Y506863D02*
X765293D01*
G01D02*
Y510013D01*
G01D02*
X767852D01*
G01X769820Y506863D02*
X772379D01*
G01D02*
Y510013D01*
G01D02*
X769820D01*
G01Y521394D02*
X772379D01*
G01D02*
Y518244D01*
G01D02*
X769820D01*
G01X767852Y521394D02*
X765293D01*
G01D02*
Y518244D01*
G01D02*
X767852D01*
G01X769820Y525134D02*
X772379D01*
G01D02*
Y521984D01*
G01D02*
X769820D01*
G01X767852Y525134D02*
X765293D01*
G01D02*
Y521984D01*
G01D02*
X767852D01*
G01X769820Y532614D02*
X772379D01*
G01D02*
Y529465D01*
G01D02*
X769820D01*
G01X767852Y532614D02*
X765293D01*
G01D02*
Y529465D01*
G01D02*
X767852D01*
G01X769820Y528874D02*
X772379D01*
G01D02*
Y525724D01*
G01D02*
X769820D01*
G01X767852Y528874D02*
X765293D01*
G01D02*
Y525724D01*
G01D02*
X767852D01*
G01X769784Y536375D02*
X772343D01*
G01D02*
Y533225D01*
G01D02*
X769784D01*
G01X767816Y536375D02*
X765257D01*
G01D02*
Y533225D01*
G01D02*
X767816D01*
G01X759225Y537384D02*
Y539943D01*
G01D02*
X762375D01*
G01D02*
Y537384D01*
G01X759225Y535416D02*
Y532857D01*
G01D02*
X762375D01*
G01D02*
Y535416D01*
G01X780118Y433267D02*
Y430118D01*
G01Y423819D02*
Y426969D01*
G01X795866Y435630D02*
X798425D01*
G01D02*
Y432480D01*
G01D02*
X795866D01*
G01X793898Y435630D02*
X791339D01*
G01D02*
Y432480D01*
G01D02*
X793898D01*
G01X780525Y455683D02*
Y458832D01*
G01X781801D02*
Y455683D01*
G03X786525I2362J3417D01*
G01D02*
Y458832D01*
G01X780525Y465131D02*
Y461982D01*
G01X781801D02*
Y465131D01*
G02X786525I2362J-3417D01*
G01D02*
Y461982D01*
G01X800394Y538385D02*
Y534435D01*
G02X792913I-3740J7585D01*
G01D02*
Y538385D01*
G01Y541930D02*
Y545894D01*
G02X800492I3790J-7024D01*
G01D02*
Y541930D01*
G01X788407Y584846D02*
Y582287D01*
G01D02*
X785258D01*
G01D02*
Y584846D01*
G01X788407Y586814D02*
Y589373D01*
G01D02*
X785258D01*
G01D02*
Y586814D01*
G01X792375Y585016D02*
Y582457D01*
G01D02*
X789225D01*
G01D02*
Y585016D01*
G01X792375Y586984D02*
Y589543D01*
G01D02*
X789225D01*
G01D02*
Y586984D01*
M02*
