M48
INCH
T01C.00787
T02C.007874
T03C.011811
T04C.015748
T05C.019689
T06C.02165
T07C.027559
T08C.031496
T09C.035039
T10C.035429
T11C.035433
T12C.03622
T13C.03937
T14C.062988
T15C.066929
T16C.08661
T17C.086614
T18C.090551
T19C.133858
T20C.161417
T21C.177165
T22C.025591
T23C.03937
T24C.043307
T25C.059059
T26C.062992
T27C.075858
T28C.07874
T29C.122047
;LEADER: 12 
;HEADER: 
;CODE  : ASCII 
;FILE  : RK_EXCAVATOR_MAIN_V12_20161111_FZBFINAL-1-6.drl for  ... layers TOP and BOTTOM
;DESIGN: RK_EXCAVATOR_MAIN_V12_20161111_FZBFINAL.brd
;T01 Holesize 1. = 7.870000 Tolerance = +0.000000/-0.000000 PLATED MILS Quantity = 7
;T02 Holesize 2. = 7.874000 Tolerance = +0.000000/-0.000000 PLATED MILS Quantity = 3444
;T03 Holesize 3. = 11.811000 Tolerance = +0.000000/-0.000000 PLATED MILS Quantity = 2575
;T04 Holesize 4. = 15.748000 Tolerance = +0.000000/-0.000000 PLATED MILS Quantity = 31
;T05 Holesize 5. = 19.689000 Tolerance = +0.000000/-0.000000 PLATED MILS Quantity = 282
;T06 Holesize 6. = 21.650000 Tolerance = +0.000000/-0.000000 PLATED MILS Quantity = 2
;T07 Holesize 7. = 27.559000 Tolerance = +0.000000/-0.000000 PLATED MILS Quantity = 9
;T08 Holesize 8. = 31.496000 Tolerance = +0.000000/-0.000000 PLATED MILS Quantity = 3
;T09 Holesize 9. = 35.039000 Tolerance = +0.000000/-0.000000 PLATED MILS Quantity = 7
;T10 Holesize 10. = 35.429000 Tolerance = +0.000000/-0.000000 PLATED MILS Quantity = 20
;T11 Holesize 11. = 35.433000 Tolerance = +0.000000/-0.000000 PLATED MILS Quantity = 14
;T12 Holesize 12. = 36.220000 Tolerance = +0.000000/-0.000000 PLATED MILS Quantity = 16
;T13 Holesize 13. = 39.370000 Tolerance = +0.000000/-0.000000 PLATED MILS Quantity = 73
;T14 Holesize 14. = 62.988000 Tolerance = +0.000000/-0.000000 PLATED MILS Quantity = 4
;T15 Holesize 15. = 66.929000 Tolerance = +0.000000/-0.000000 PLATED MILS Quantity = 2
;T16 Holesize 16. = 86.610000 Tolerance = +0.000000/-0.000000 PLATED MILS Quantity = 1
;T17 Holesize 17. = 86.614000 Tolerance = +0.000000/-0.000000 PLATED MILS Quantity = 3
;T18 Holesize 18. = 90.551000 Tolerance = +0.000000/-0.000000 PLATED MILS Quantity = 8
;T19 Holesize 19. = 133.858000 Tolerance = +0.000000/-0.000000 PLATED MILS Quantity = 2
;T20 Holesize 20. = 161.417000 Tolerance = +0.000000/-0.000000 PLATED MILS Quantity = 6
;T21 Holesize 21. = 177.165000 Tolerance = +0.000000/-0.000000 PLATED MILS Quantity = 2
;T22 Holesize 22. = 25.591000 Tolerance = +0.000000/-0.000000 NON_PLATED MILS Quantity = 1
;T23 Holesize 23. = 39.370000 Tolerance = +0.000000/-0.000000 NON_PLATED MILS Quantity = 5
;T24 Holesize 24. = 43.307000 Tolerance = +0.000000/-0.000000 NON_PLATED MILS Quantity = 1
;T25 Holesize 25. = 59.059000 Tolerance = +0.000000/-0.000000 NON_PLATED MILS Quantity = 2
;T26 Holesize 26. = 62.992000 Tolerance = +0.000000/-0.000000 NON_PLATED MILS Quantity = 1
;T27 Holesize 27. = 75.858000 Tolerance = +0.000000/-0.000000 NON_PLATED MILS Quantity = 3
;T28 Holesize 28. = 78.740000 Tolerance = +0.000000/-0.000000 NON_PLATED MILS Quantity = 2
;T29 Holesize 29. = 122.047000 Tolerance = +0.000000/-0.000000 NON_PLATED MILS Quantity = 2
%
G90
T01
X0593307Y0564567
X0594882Y0562992
X0594882Y0561417
X0603937Y0564567
X0628740Y0573032
X0615354Y0567717
X0613780Y0565748
T02
X0741600Y0540400
X0328800Y0499600
X0741200Y0545800
X0329200Y0505200
X0326400Y0508000
X0747200Y0548400
X0326400Y0502600
X0751200Y0548400
X0313600Y0604400
X0494200Y0603000
X0587600Y0598400
X0583600Y0591600
X0348376Y0078140
X0265600Y0455200
X0236294Y0487869
X0239200Y0472400
X0224800Y0472000
X0226000Y0460000
X0240600Y0456000
X0261600Y0466331
X0284972Y0458228
X0366000Y0091200
X0260000Y0458400
X0223425Y0487008
X0220669Y0524409
X0219100Y0510805
X0219200Y0497200
X0756800Y0387600
X0761600Y0380000
X0759200Y0396800
X0338780Y0201772
X0379134Y0372835
X0667913Y0170079
X0571260Y0297047
X0575604Y0319671
X0571235Y0303519
X0589501Y0326050
X0589501Y0318044
X0604676Y0313828
X0608466Y0321455
X0589391Y0360215
X0594430Y0341142
X0458658Y0485236
X0460627Y0485236
X0458658Y0473819
X0460627Y0473819
X0456690Y0473819
X0456690Y0485236
X0145301Y0296628
X0456690Y0486811
R02X0001969
X0456690Y0472244
R02X0001969
X0458658Y0488583
X0456690Y0488583
X0266142Y0488976
X0262402Y0530118
X0262402Y0531890
X0331031Y0553472
X0321620Y0537435
X0303904Y0537565
X0297998Y0537565
X0311778Y0555675
X0309809Y0537369
X0293168Y0547638
X0267913Y0488976
X0502362Y0201181
X0553543Y0252362
X0538583Y0159384
X0554626Y0174705
X0715719Y0364381
X0718348Y0364381
X0770276Y0493110
X0770276Y0498143
X0743504Y0363056
X0743504Y0360428
X0217200Y0152277
X0220472Y0233858
X0650394Y0335630
X0504134Y0189173
X0144332Y0352638
X0144332Y0362238
X0163583Y0372441
X0173032Y0381299
X0144332Y0357438
X0156332Y0371438
X0161417Y0370866
X0539961Y0473228
X0276772Y0180512
X0310630Y0199016
X0705709Y0465945
X0479345Y0511614
X0501575Y0584842
X0409842Y0582284
X0330329Y0582298
X0574606Y0489567
X0567520Y0473228
X0233182Y0193221
X0329527Y0195276
X0319291Y0537205
X0308268Y0518898
X0280019Y0482381
X0351914Y0069600
X0570866Y0474016
X0215748Y0132677
X0172244Y0366929
X0173532Y0352638
X0169932Y0369438
X0153620Y0342149
X0163132Y0342238
X0143701Y0341142
X0588780Y0393504
X0572244Y0393504
X0556299Y0172835
X0539370Y0155118
X0437389Y0504697
X0440017Y0504697
X0454134Y0515354
X0454134Y0512726
X0689600Y0486000
X0316400Y0603200
X0407200Y0602800
X0468124Y0603076
X0496454Y0603146
X0491914Y0603114
X0479935Y0603135
X0278800Y0542800
X0281116Y0587402
X0456102Y0506102
X0673622Y0473228
X0661614Y0473032
X0646850Y0473228
X0626226Y0487459
X0627362Y0002362
X0625787Y0002362
X0624016Y0002362
X0700984Y0041142
X0701575Y0037598
X0716141Y0041176
R02X-0001969
X0712402Y0043144
X0717425Y0043144
X0719393Y0043144
X0719590Y0041176
X0717622Y0041176
X0725196Y0041176
R02X-0001968
X0721457Y0043144
X0714173Y0043110
X0715748Y0043110
X0723228Y0043110
X0724803Y0043110
X0710039Y0041339
X0700247Y0042535
X0702215Y0042338
X0707824Y0038583
X0707824Y0040945
X0726480Y0043144
X0728448Y0043144
X0728645Y0041176
X0726677Y0041176
X0732249Y0042913
X0732249Y0040944
X0730281Y0041142
X0730315Y0042913
X0282087Y0055118
X0377165Y0059252
X0376575Y0055709
X0572638Y0050787
X0575000Y0048622
X0614972Y0047828
X0710792Y0069483
X0710792Y0067515
X0709415Y0070270
X0711220Y0071457
X0707677Y0061614
X0709252Y0058268
X0709680Y0065900
X0709680Y0063931
X0709678Y0061963
X0709678Y0059994
X0700428Y0070821
X0700428Y0068852
X0700426Y0066884
X0700426Y0064915
X0702362Y0058465
X0702559Y0048819
X0702559Y0050394
X0700820Y0053144
X0700822Y0051175
X0700822Y0049207
X0719685Y0056693
X0718110Y0056693
X0721559Y0054759
X0721362Y0056727
X0716339Y0056727
X0716141Y0054759
X0718109Y0054759
X0720078Y0054759
X0721165Y0045704
X0719196Y0045704
X0716732Y0047441
X0720378Y0047475
X0718409Y0047475
X0721062Y0058892
R02X-0001968
X0717323Y0060861
X0722346Y0060861
X0724315Y0060861
X0724511Y0058892
X0722543Y0058892
X0719095Y0060827
X0720669Y0060827
X0702593Y0052159
X0702593Y0054128
X0702591Y0056097
X0707641Y0059545
X0707641Y0057577
X0714568Y0048279
X0712599Y0048279
X0708662Y0048082
X0713874Y0053328
X0715843Y0053328
X0707643Y0069483
X0707641Y0065546
X0707641Y0063578
X0702591Y0065112
X0702591Y0067081
X0702593Y0069049
X0702593Y0071018
X0713387Y0045932
X0715749Y0045932
X0702165Y0063189
X0699803Y0062598
X0700247Y0059895
R02Y-0002362
X0712942Y0057103
X0700247Y0047259
X0700247Y0044897
X0709989Y0043307
X0709989Y0045669
X0715843Y0055675
X0713481Y0055675
X0710580Y0057103
X0702215Y0047063
X0702215Y0044700
X0707824Y0043307
X0707824Y0045669
X0710922Y0053509
X0708559Y0053509
X0708662Y0048098
X0711024Y0048098
X0711024Y0055315
X0715748Y0058268
X0702362Y0060236
X0732249Y0044881
X0730281Y0046165
X0730281Y0048133
X0732249Y0048330
X0732249Y0046362
X0732249Y0053936
R02Y-0001969
X0730281Y0050197
X0730281Y0055220
X0730281Y0057189
X0732249Y0057385
X0732249Y0055417
X0730315Y0044488
X0730315Y0051968
X0730315Y0053543
X0730117Y0058892
R02X-0001969
X0726378Y0060861
X0731401Y0060861
X0731598Y0058892
X0728150Y0060827
X0729724Y0060827
X0300197Y0073032
X0343200Y0074000
X0348622Y0075787
X0353740Y0078150
X0700787Y0073032
X0703594Y0078030
X0702263Y0076580
X0700984Y0075197
X0707770Y0082206
X0706378Y0080814
X0704986Y0079422
X0711417Y0086417
X0708955Y0083661
X0712975Y0087948
X0710191Y0085164
X0717513Y0091950
X0714730Y0089166
X0716142Y0090551
X0723081Y0097518
X0720297Y0094734
X0718898Y0093504
X0721654Y0096063
X0724409Y0098819
X0724168Y0087329
X0721384Y0084545
X0718600Y0081761
X0709415Y0072239
X0713032Y0076194
X0710503Y0073457
X0711640Y0074702
X0717323Y0080118
X0714424Y0077585
X0715816Y0078978
X0720079Y0083071
X0725394Y0088583
X0723032Y0085827
X0726181Y0098819
X0723425Y0096063
X0720866Y0093504
X0717913Y0090551
X0712160Y0085164
X0714944Y0087948
X0711024Y0083661
X0713386Y0086417
X0723622Y0088779
X0720866Y0085827
X0717913Y0083071
X0715158Y0080118
X0702953Y0075197
X0702559Y0073032
X0724786Y0090113
X0722002Y0087329
X0719218Y0084545
X0716435Y0081761
X0713651Y0078978
X0712259Y0077585
X0710867Y0076094
X0709475Y0074702
X0708138Y0073357
X0707643Y0071452
X0704232Y0076580
X0705563Y0078030
X0706955Y0079422
X0708347Y0080814
X0709739Y0082306
X0716698Y0089166
X0719482Y0091950
X0722266Y0094734
X0725050Y0097518
X0732463Y0095428
X0729680Y0092644
X0726952Y0090113
X0728543Y0091142
X0728740Y0088779
X0734252Y0096850
X0732087Y0092126
X0730906Y0093898
X0733661Y0094291
X0735303Y0098465
X0732087Y0097047
X0727514Y0092644
X0730298Y0095428
X0726378Y0091535
X0728740Y0093898
X0733138Y0098365
X0338268Y0104567
X0338228Y0111181
X0725865Y0100302
X0731433Y0105869
X0730041Y0104478
X0728649Y0103085
X0727257Y0101694
X0732677Y0107480
X0733661Y0108858
X0734449Y0110630
X0734842Y0112598
X0735074Y0126467
R06Y-0001968
X0740815Y0104087
X0736695Y0099857
X0738087Y0101249
X0739479Y0102641
X0742717Y0108071
X0741958Y0105689
X0743190Y0110053
X0743851Y0113926
X0743863Y0115894
R05Y0001968
X0743898Y0112008
X0740945Y0107283
X0742126Y0111220
X0736811Y0112598
X0736417Y0110630
X0735630Y0108858
X0734646Y0107480
X0742092Y0126918
R06Y-0001969
X0742080Y0113139
X0741418Y0109266
X0739792Y0105689
X0738649Y0104087
X0737313Y0102641
X0735922Y0101249
X0734530Y0099857
X0727833Y0100302
X0729226Y0101694
X0730617Y0103085
X0732009Y0104478
X0733401Y0105869
X0737042Y0114656
R06Y0001969
X0293110Y0149409
X0679921Y0149606
X0685039Y0152756
X0709646Y0136417
X0702362Y0136614
X0700787Y0131693
X0700197Y0128150
X0700197Y0135039
X0735074Y0134341
R03Y-0001968
X0735074Y0152058
R07Y-0001968
X0735074Y0136309
X0735074Y0154026
X0743863Y0137548
R04Y0001968
X0743863Y0147391
R03Y0001968
X0743863Y0127706
R04Y0001969
X0742092Y0154477
R03Y-0001968
X0742092Y0146603
R09Y-0001968
X0737042Y0128435
R04Y0001968
X0737042Y0138278
R08Y0001968
X0726575Y0152165
X0223425Y0171260
X0227756Y0182677
X0500000Y0169685
X0513780Y0176772
X0514238Y0172376
X0516142Y0169685
X0503543Y0168110
X0553543Y0176772
X0554331Y0166929
X0553937Y0172441
X0549213Y0162205
X0558661Y0175197
X0675000Y0177756
X0674636Y0159336
X0674636Y0155399
X0684085Y0163273
X0684085Y0159336
X0679163Y0164454
X0679163Y0160517
X0677195Y0165438
R02Y0003937
X0725000Y0169882
X0724213Y0168110
X0724409Y0165945
X0725184Y0163420
X0723215Y0163420
X0724016Y0179724
X0711664Y0180527
X0724016Y0175787
X0723622Y0171850
X0714687Y0170516
X0731793Y0162668
X0733185Y0161276
X0734554Y0159861
X0735074Y0157963
X0735074Y0155994
X0743863Y0159055
X0743863Y0155265
X0744208Y0161867
X0744095Y0157087
X0737909Y0168560
X0738927Y0167203
X0741649Y0164820
X0740257Y0166211
X0742816Y0163259
X0726378Y0171850
X0729331Y0161220
X0742323Y0156299
X0742323Y0159842
X0746654Y0164173
X0741044Y0162471
X0742520Y0161614
X0738485Y0165424
X0739878Y0164032
X0734745Y0169164
X0736137Y0167772
X0728740Y0171850
X0737042Y0155994
X0737042Y0157963
X0736522Y0159861
X0735153Y0161276
X0733761Y0162668
X0732270Y0163953
X0730512Y0171850
X0731890Y0169060
X0737156Y0166415
X0742192Y0158168
X0732284Y0178150
X0732284Y0182284
X0731200Y0160800
X0732284Y0174213
X0732284Y0170472
X0726968Y0156102
X0726968Y0160039
X0778361Y0182880
X0777300Y0174202
X0773403Y0169748
X0775351Y0171696
X0095866Y0206890
X0095472Y0210236
X0227953Y0185827
X0502756Y0198819
X0511024Y0207480
X0511417Y0199606
X0505512Y0194094
X0505906Y0201968
X0553543Y0203543
X0684252Y0208268
X0684252Y0201968
X0722266Y0187828
X0722069Y0189402
X0722857Y0195308
X0722660Y0196883
X0722660Y0191568
X0722463Y0193142
X0723819Y0189173
X0724213Y0193504
X0724606Y0198228
X0724606Y0195669
X0724016Y0183858
X0724606Y0187402
X0724016Y0190748
X0720619Y0196123
X0720619Y0193367
X0711664Y0183283
X0711664Y0186039
X0711664Y0197063
X0734436Y0187239
R05X0001969
X0746247Y0187239
R03X0001969
X0752580Y0195832
R11X-0001969
X0751956Y0188814
R10X-0001969
X0731496Y0187205
X0730927Y0193863
R11X0001968
X0743504Y0209055
X0731349Y0199818
X0739911Y0201113
X0731890Y0198228
X0765770Y0187237
X0765573Y0188812
X0770983Y0188617
X0772952Y0188617
X0773148Y0187239
X0771180Y0187239
X0777756Y0188189
X0779528Y0187205
X0761995Y0187237
X0763963Y0187237
X0774723Y0187239
X0776692Y0187239
X0767739Y0187237
X0769707Y0187237
X0780906Y0187239
X0754121Y0187239
X0756089Y0187239
X0758058Y0187239
X0760026Y0187237
X0769522Y0207969
X0769522Y0206000
X0769522Y0210630
X0767554Y0209253
X0767554Y0205804
X0767554Y0207772
X0772672Y0200685
X0772672Y0198717
X0772210Y0202166
R02Y0001968
X0780478Y0202166
X0780478Y0204135
X0780709Y0205906
X0773819Y0203543
X0773819Y0205906
X0761024Y0196850
X0759449Y0196850
X0764391Y0195830
X0762423Y0195830
X0768504Y0195830
X0770472Y0195830
X0766535Y0195866
X0758092Y0195832
X0756517Y0195832
X0754549Y0195832
X0766535Y0193898
X0779690Y0200788
R03Y-0001968
X0774641Y0194977
R03Y0001969
X0780709Y0188814
X0781299Y0193863
X0769510Y0188812
X0767542Y0188812
X0768504Y0193861
X0770472Y0193861
X0772638Y0196850
X0776495Y0188814
X0774526Y0188814
X0763766Y0188812
R02X-0001968
X0757861Y0188814
R02X-0001969
X0754549Y0193863
X0756517Y0193863
X0758092Y0193863
X0762423Y0193861
X0764391Y0193861
X0781299Y0197785
X0778150Y0186417
X0779533Y0184930
X0779134Y0188780
X0781102Y0199950
X0760877Y0205488
X0782875Y0187239
X0782446Y0202363
R02Y0001968
X0788583Y0188814
R03X-0001969
X0783268Y0193863
R03X0001969
X0788583Y0197835
X0786024Y0197785
X0783661Y0197785
X0783465Y0199950
X0785630Y0199409
X0083858Y0223425
X0075984Y0226575
X0076772Y0229134
X0083661Y0231102
X0079724Y0231496
X0076181Y0224803
X0101968Y0232874
X0100000Y0223622
X0096063Y0231102
X0098425Y0232874
X0111355Y0228984
X0106355Y0228984
X0107309Y0231922
X0092948Y0225381
X0090465Y0228437
X0094402Y0228437
X0085074Y0225381
X0086528Y0228437
X0139496Y0234466
X0135961Y0230930
X0131355Y0228984
R03X-0005000
X0112309Y0231922
R04X0005000
X0136080Y0235205
X0139616Y0238741
X0143032Y0238001
X0217370Y0233959
X0511024Y0214567
X0553543Y0235827
X0553543Y0220079
X0568110Y0235039
X0612992Y0228346
X0670305Y0219375
X0676408Y0219572
X0720866Y0239884
X0735039Y0218529
X0736024Y0227953
X0736024Y0237992
X0724177Y0221815
X0718868Y0238701
X0724606Y0228740
X0719739Y0236505
X0712598Y0236024
X0724213Y0215551
X0722047Y0214370
X0721654Y0211417
X0721063Y0221654
X0720866Y0224409
X0720866Y0226968
X0722244Y0228937
X0720226Y0229459
X0736220Y0222835
X0735630Y0232874
X0728347Y0237598
X0730512Y0237992
X0733858Y0237795
X0728347Y0215354
X0726772Y0221654
X0726968Y0228937
X0731693Y0230512
X0729528Y0230512
X0733858Y0234449
X0733071Y0215748
X0733858Y0230709
X0779724Y0217520
X0770669Y0217520
X0781598Y0215585
X0781401Y0217554
X0776378Y0217554
X0778150Y0217520
X0776180Y0215585
R02X0001968
X0772543Y0215585
X0774511Y0215585
X0774315Y0217554
X0772346Y0217554
X0767323Y0217554
X0769095Y0217520
X0767125Y0215585
R02X0001969
X0769522Y0212992
X0767554Y0213190
X0767554Y0211221
X0783566Y0215585
X0783370Y0217554
X0132087Y0266339
X0133268Y0261417
X0133465Y0256890
X0130512Y0253937
X0124606Y0251378
X0118110Y0251968
X0113583Y0254528
X0112992Y0260827
X0113976Y0266339
X0164244Y0259215
X0160709Y0255679
X0157174Y0252143
X0153638Y0248608
X0150103Y0245072
X0146567Y0241537
X0143151Y0242276
X0146687Y0245811
X0150222Y0249347
X0153758Y0252883
X0157293Y0256418
X0160829Y0259954
X0164364Y0263489
X0223857Y0241570
X0230928Y0248641
X0237999Y0255712
X0553543Y0249606
X0558268Y0240551
X0577165Y0259449
X0574409Y0263780
X0574409Y0238976
X0558661Y0248032
X0566535Y0248819
X0690945Y0258268
X0716607Y0241806
X0731693Y0239567
X0726378Y0239764
X0112992Y0274803
X0119291Y0276181
X0121260Y0286417
X0139370Y0285039
X0138976Y0289173
X0132087Y0291339
X0123819Y0290158
X0129134Y0270079
X0134449Y0270866
X0117520Y0270276
X0125787Y0271850
X0139961Y0277756
X0122053Y0274813
X0140041Y0282314
X0155512Y0276772
X0145276Y0277362
X0149606Y0276772
X0141339Y0271457
X0159449Y0278740
X0162795Y0278543
X0156299Y0285236
X0152362Y0285630
X0150000Y0286811
X0153298Y0279376
X0143298Y0279376
X0145041Y0282314
X0155041Y0282314
X0179959Y0274492
X0179921Y0281693
X0190718Y0293258
X0187182Y0289723
X0183646Y0286187
X0186651Y0293347
X0196065Y0291034
X0192529Y0287499
X0188993Y0283963
X0185458Y0280428
X0185578Y0284702
X0189113Y0288238
X0192649Y0291774
X0199600Y0294570
X0252141Y0269854
X0259212Y0276925
X0266284Y0283996
X0316157Y0285583
X0376157Y0285583
X0386157Y0285583
X0396157Y0285583
X0416157Y0285583
X0438386Y0288189
X0594882Y0289764
X0590551Y0273228
X0612992Y0277953
X0688189Y0277165
X0691732Y0274803
X0691064Y0294488
X0148425Y0318898
X0153173Y0315335
X0146102Y0322406
X0156299Y0309646
X0144094Y0321260
X0194253Y0296794
X0190187Y0296882
X0193722Y0300418
X0196184Y0295309
X0215466Y0318007
X0211931Y0314472
X0208395Y0310936
X0204860Y0307400
X0201324Y0303865
X0197789Y0300330
X0197258Y0303954
X0200793Y0307489
X0204329Y0311024
X0207865Y0314560
X0211400Y0318096
X0215495Y0320964
X0220495Y0320964
X0221754Y0314476
X0217278Y0312248
X0213742Y0308712
X0210207Y0305176
X0206671Y0301641
X0203135Y0298106
X0199720Y0298845
X0203255Y0302380
X0206791Y0305916
X0210326Y0309451
X0213862Y0312987
X0217397Y0316522
X0222317Y0317414
X0225495Y0320964
R02X0005000
X0231754Y0314476
X0226754Y0314476
X0227317Y0317414
X0232317Y0317414
X0264764Y0317716
X0285495Y0320964
R04X0005000
X0306754Y0314476
R04X-0005000
X0287317Y0317414
R04X0005000
X0310495Y0320964
X0315495Y0320964
X0316754Y0314476
X0311754Y0314476
X0312317Y0317414
X0317317Y0317414
X0375495Y0320964
X0385495Y0320964
X0390495Y0320964
X0386753Y0314476
R02X-0005000
X0382317Y0317414
X0387317Y0317414
X0395495Y0320964
X0416535Y0321260
X0416754Y0314476
X0396753Y0314476
X0391754Y0314476
X0392317Y0317414
X0397317Y0317414
X0417317Y0317414
X0568110Y0298819
X0600885Y0306200
X0612598Y0304724
X0669488Y0294882
X0661811Y0295079
X0657480Y0295276
X0664961Y0307284
X0664961Y0312992
X0657677Y0303937
X0661614Y0317520
X0662008Y0303740
X0661614Y0311614
X0692126Y0311417
X0692126Y0320866
X0692126Y0300394
X0718898Y0317323
X0717717Y0303740
X0715354Y0309646
X0713189Y0311811
X0708858Y0319685
X0723903Y0309222
X0725478Y0311782
X0711698Y0317687
X0713863Y0317687
X0724213Y0294882
X0721541Y0311782
X0718391Y0319656
X0702274Y0310871
X0699490Y0313655
X0710626Y0302520
X0707842Y0305304
X0705058Y0308087
X0713410Y0299736
X0716194Y0296952
X0719685Y0295079
X0753037Y0296230
X0753430Y0301348
X0753627Y0309222
X0753627Y0303908
X0752643Y0319656
X0733352Y0296230
R02X0003937
X0729415Y0296230
X0745163Y0296230
X0749100Y0296230
X0749493Y0301348
X0745556Y0301348
X0729808Y0301348
X0741619Y0301348
X0737682Y0301348
X0733745Y0301348
X0749690Y0309222
X0745753Y0309222
X0730005Y0309222
X0741816Y0309222
X0737879Y0309222
X0733942Y0309222
X0732170Y0311782
R02X0003937
X0728234Y0311782
X0751856Y0311782
X0743982Y0311782
X0747918Y0311782
X0730005Y0303908
R02X0003937
X0726068Y0303908
X0749690Y0303908
X0741816Y0303908
X0745753Y0303908
X0727840Y0309222
X0744769Y0319656
X0740832Y0319656
X0735827Y0319488
X0732958Y0319656
X0729021Y0319656
X0740158Y0317323
X0750478Y0317097
X0742604Y0317097
X0726968Y0295276
X0756974Y0296230
X0760911Y0296230
X0780596Y0296230
X0764848Y0296230
X0768785Y0296230
X0776181Y0296260
X0774803Y0302953
X0774803Y0310433
X0775000Y0318701
X0769178Y0301348
X0761304Y0301348
X0757367Y0301348
X0769375Y0309222
X0761501Y0309222
X0757564Y0309222
X0755792Y0311782
R02X0003937
X0757564Y0303908
X0761501Y0303908
X0764454Y0319656
R02X-0003937
X0754415Y0317097
R02X0003937
X0788465Y0296038
X0784533Y0296230
X0102058Y0350164
X0127165Y0326378
X0151932Y0350438
X0158532Y0349693
X0162732Y0349493
X0166332Y0349293
X0151932Y0363838
X0151932Y0360238
X0158532Y0356893
X0162732Y0356893
X0162732Y0360493
X0151932Y0353838
X0158532Y0359893
X0162732Y0363800
X0158532Y0353293
X0162732Y0353293
X0166332Y0360493
X0166332Y0363693
X0166332Y0352693
X0166332Y0356893
X0157874Y0364370
X0154989Y0353293
X0154989Y0349693
X0154989Y0356893
X0143504Y0330709
X0143898Y0326181
X0181299Y0334449
X0176575Y0334449
X0212987Y0344784
X0243701Y0328937
X0237556Y0329418
X0227556Y0329418
X0242987Y0344784
X0232987Y0344784
X0252987Y0344784
X0307556Y0329418
R02X-0010000
X0302987Y0344784
X0317556Y0329418
X0312987Y0344784
X0387556Y0329418
X0382987Y0344784
X0416929Y0329134
X0397556Y0329418
X0416535Y0344488
X0392987Y0344784
X0438115Y0339405
X0441650Y0342940
X0445185Y0346476
X0440326Y0334726
X0443861Y0338262
X0445874Y0336119
X0442338Y0332584
X0438803Y0329048
X0448721Y0350011
X0447397Y0341797
X0450932Y0345333
X0454468Y0348868
X0460016Y0350261
X0456480Y0346726
X0452945Y0343190
X0449409Y0339655
X0661417Y0326378
X0692126Y0346457
X0715748Y0334252
X0704724Y0333465
X0699213Y0335236
X0705315Y0326772
X0715241Y0325167
X0706383Y0341309
R02X0003937
X0753430Y0325167
X0729808Y0325167
X0732480Y0325591
X0745556Y0325167
X0743600Y0327600
X0746850Y0333661
X0731693Y0333465
X0745669Y0341535
X0746654Y0344094
X0730399Y0341309
X0742210Y0341309
X0728037Y0335404
X0731974Y0335404
X0727840Y0346821
X0731777Y0346821
X0774803Y0325787
X0775000Y0334646
X0774803Y0341732
X0773032Y0346063
X0755512Y0346260
X0754921Y0341535
X0764848Y0325167
X0757367Y0325167
X0761304Y0325167
X0778347Y0327559
X0754331Y0327559
X0769291Y0334646
X0759252Y0333071
X0755906Y0335039
X0762008Y0341339
X0758268Y0340945
X0789961Y0344488
X0788976Y0334646
X0098145Y0353277
X0097623Y0358250
X0097994Y0377466
X0101772Y0371063
X0101772Y0366339
X0100372Y0362426
X0102179Y0374730
X0112971Y0377947
X0152165Y0371653
X0142323Y0368307
X0325394Y0368898
X0331102Y0374409
X0444006Y0367961
X0469291Y0364961
X0451077Y0375033
X0452257Y0353547
X0455792Y0357082
X0466399Y0367689
X0458003Y0352404
X0460630Y0355512
X0463552Y0353797
X0479217Y0373617
X0482752Y0377152
X0481229Y0371474
X0560827Y0363583
X0560827Y0374803
X0641929Y0371653
X0641929Y0355709
X0698032Y0372441
X0698032Y0356890
X0697638Y0376378
X0700394Y0355512
X0725984Y0355118
X0702390Y0370241
X0698453Y0370241
X0705709Y0371063
X0712795Y0356496
X0721457Y0356299
X0705315Y0364567
X0700984Y0364173
X0701575Y0361811
X0702953Y0356890
X0706496Y0356693
X0711417Y0361614
X0711417Y0358661
X0705315Y0360827
X0699606Y0360433
X0705118Y0375197
X0739173Y0355315
X0740158Y0369685
X0752034Y0366228
X0748097Y0366229
X0744257Y0367100
X0746063Y0356890
X0743898Y0356299
X0731496Y0356496
X0727165Y0356496
X0737992Y0376181
X0737992Y0371850
X0746260Y0376968
X0755971Y0366228
X0759908Y0366228
X0778412Y0364259
X0763780Y0366929
X0759055Y0354921
X0756299Y0352756
X0765158Y0352756
X0761024Y0352756
X0775984Y0352756
X0754329Y0375590
X0778543Y0354528
X0778465Y0359782
X0775984Y0368110
X0767913Y0370472
X0766929Y0367126
X0767126Y0351968
X0763189Y0354921
X0766339Y0354921
X0788976Y0367716
X0786286Y0364259
X0782349Y0364259
X0806299Y0364567
X0787992Y0359646
X0789173Y0354724
X0786417Y0355512
X0783268Y0354134
X0101772Y0391732
X0106299Y0391732
X0110236Y0380906
X0105709Y0380906
X0102362Y0378543
X0122244Y0387205
X0128150Y0390748
X0122441Y0399803
X0117520Y0391339
X0115354Y0399803
X0341732Y0384842
X0502362Y0403740
X0479361Y0403317
X0480541Y0381831
X0546457Y0398819
X0555906Y0389567
X0553543Y0382874
X0568504Y0401378
X0560827Y0399606
X0564764Y0394882
X0591339Y0405315
X0613780Y0393504
X0600394Y0404921
X0604741Y0405221
X0613386Y0378543
X0616535Y0396850
X0697638Y0394488
X0697047Y0390945
X0697244Y0386811
X0697047Y0379724
X0705512Y0396063
X0702362Y0381890
X0699213Y0381102
X0699213Y0384646
X0703150Y0394488
X0705118Y0394488
X0702362Y0384055
X0699606Y0382677
X0702165Y0379331
X0740800Y0392400
X0740400Y0383600
X0737402Y0386417
X0736417Y0390551
X0737008Y0398425
X0762800Y0395600
X0091339Y0415945
X0147716Y0422441
X0494685Y0443307
X0510383Y0426069
X0581890Y0407284
X0582677Y0413386
X0571654Y0417717
X0572638Y0411220
X0560236Y0412205
X0564961Y0425787
X0582284Y0423819
X0585630Y0418504
X0580648Y0428136
X0580582Y0432408
X0560827Y0432677
X0571063Y0431693
X0576378Y0429724
X0578150Y0426378
X0574464Y0432231
X0604468Y0410039
X0597638Y0410039
X0590354Y0416339
X0594224Y0409965
X0588189Y0421654
X0594284Y0416311
X0594094Y0423156
X0588583Y0428150
X0604331Y0415479
X0593504Y0427559
X0603150Y0427559
X0599803Y0407874
X0634055Y0415354
X0615551Y0433268
X0617717Y0431102
X0621260Y0427953
X0626772Y0425197
X0627165Y0428937
X0736220Y0410236
X0745669Y0416929
X0736024Y0408661
X0736024Y0406693
X0737992Y0406693
X0737992Y0408661
X0729724Y0410236
X0729724Y0408268
X0727756Y0408268
X0727756Y0410236
X0760630Y0432677
X0778150Y0433465
X0780118Y0433465
X0776181Y0433465
X0755118Y0432284
X0786024Y0433465
X0787992Y0433465
X0784055Y0433465
X0782087Y0433465
X0082055Y0457651
X0083652Y0459247
X0086221Y0455118
X0091339Y0448228
X0109313Y0452206
X0109313Y0457206
X0107108Y0459859
X0103572Y0456323
X0099834Y0453003
X0094834Y0453003
X0087901Y0451378
X0125061Y0461335
X0125061Y0451335
X0124313Y0446392
X0119313Y0446392
X0194000Y0461200
X0184842Y0460433
X0178740Y0460039
X0440748Y0473425
X0474016Y0455709
X0467913Y0446063
X0469882Y0446063
X0469882Y0448032
X0467913Y0448032
X0467913Y0450000
X0469882Y0450000
X0469882Y0451969
X0467913Y0451969
X0479528Y0455709
X0477756Y0455709
X0475984Y0455709
X0500787Y0455906
X0519095Y0455906
X0514567Y0455906
X0508465Y0455709
X0502953Y0455709
X0514764Y0443307
X0510827Y0440551
X0529331Y0455512
X0525000Y0455512
X0517323Y0455512
X0511614Y0455512
X0505512Y0455512
X0532874Y0456102
X0537598Y0456102
X0546063Y0455709
X0558465Y0441142
X0569488Y0441732
X0581496Y0441732
X0575984Y0441732
X0563976Y0440354
X0565748Y0434055
X0559233Y0436093
X0562277Y0436111
X0569488Y0435039
X0574534Y0436451
X0611614Y0443898
X0599016Y0441732
X0611614Y0455512
X0611220Y0438189
X0593701Y0441732
X0605315Y0443504
X0587795Y0441732
X0627165Y0455118
X0641535Y0456496
X0633268Y0456496
X0638780Y0456496
X0621063Y0443110
X0626772Y0442717
X0654724Y0443504
X0657480Y0456496
X0653740Y0456496
X0650394Y0456496
X0644882Y0456496
X0666929Y0456496
X0661417Y0456496
X0658465Y0437992
X0658661Y0442717
X0654134Y0437402
X0646654Y0442913
X0646850Y0437598
X0674016Y0456496
X0670276Y0456496
X0677559Y0456496
X0683071Y0456496
X0686417Y0456496
X0690158Y0456496
X0689961Y0443110
X0696063Y0456496
X0693504Y0443307
X0706327Y0456356
X0747244Y0455512
X0742913Y0455512
X0780118Y0435433
R02X-0001969
X0757480Y0435039
X0790629Y0437058
X0787992Y0435433
X0786024Y0435433
X0782087Y0435433
X0784055Y0435433
X0796457Y0444094
X0088779Y0479873
X0091732Y0488583
X0110643Y0463394
X0087730Y0467753
R02Y0005000
X0087685Y0487811
X0115126Y0462139
X0120126Y0462139
X0128620Y0469226
R02X-0005000
X0114178Y0466930
X0139200Y0463600
X0175591Y0472275
X0175591Y0476015
X0175591Y0479755
X0175591Y0487334
X0193600Y0469200
X0190800Y0486400
X0192800Y0486400
X0184768Y0480329
X0185600Y0470400
X0184768Y0488596
X0178740Y0467717
X0178740Y0477953
X0178740Y0486220
X0211600Y0469200
X0205200Y0484400
X0219882Y0465354
X0219685Y0471457
X0217716Y0482480
X0210433Y0480118
X0203200Y0474800
X0210433Y0476575
X0304921Y0491929
X0271600Y0489200
X0287600Y0464400
X0332480Y0488583
X0317323Y0488386
X0350000Y0488386
X0366142Y0488583
X0387008Y0488386
X0409842Y0487992
X0419882Y0488583
X0427165Y0477559
X0470669Y0473819
X0470866Y0479331
X0469094Y0489173
X0469094Y0487205
X0471063Y0487205
X0471063Y0489173
X0469094Y0479331
R02Y-0001969
X0471063Y0475394
X0471063Y0477362
X0469094Y0471457
X0469094Y0473425
X0467126Y0473425
X0467126Y0471457
X0463189Y0471457
X0465158Y0471457
X0465158Y0473425
X0463189Y0473425
X0482480Y0471063
X0482284Y0473032
X0482284Y0468898
X0502559Y0471063
X0500591Y0471063
X0500591Y0469094
X0502559Y0469094
X0502165Y0473228
X0500197Y0473228
X0493110Y0488976
X0493504Y0485827
X0491732Y0485827
X0494488Y0487008
X0498425Y0487205
X0494685Y0488583
X0496063Y0485827
X0489961Y0485827
X0492323Y0487598
X0496850Y0487992
X0497835Y0485433
X0527362Y0485039
X0504528Y0471063
X0506693Y0471063
X0528150Y0469094
X0521850Y0469094
X0518504Y0469094
X0524803Y0469094
X0516142Y0469094
X0510039Y0469094
X0504528Y0469094
X0506693Y0469094
X0512992Y0469094
X0526378Y0488976
X0530709Y0473228
X0524409Y0473228
X0518110Y0473228
X0512598Y0473228
X0506299Y0473228
X0504134Y0473228
X0509646Y0473228
X0515748Y0473228
X0521457Y0473228
X0527756Y0473228
X0557419Y0485776
X0533465Y0485236
X0546654Y0485630
X0551181Y0474016
X0551181Y0485630
X0541929Y0471260
X0531102Y0469094
X0535827Y0473228
X0533465Y0473228
X0562992Y0485630
X0579528Y0485827
X0576575Y0488189
X0569274Y0472121
X0562400Y0470400
X0582915Y0487474
X0562795Y0473819
X0588386Y0485039
X0617323Y0493781
X0515281Y0546294
X0618400Y0475300
X0630906Y0467717
X0634842Y0463583
X0638780Y0465748
X0640000Y0472800
X0647244Y0465454
X0668504Y0471457
X0655906Y0473819
X0531310Y0578961
X0681200Y0492000
X0684800Y0488400
X0694685Y0473228
X0694882Y0485236
X0682087Y0472244
X0676378Y0472441
X0684449Y0472244
X0692520Y0473228
X0679134Y0473622
X0713189Y0472047
X0718110Y0471654
X0724406Y0485436
X0710039Y0471063
X0713583Y0469094
X0716339Y0466535
X0706890Y0472835
X0724213Y0473425
X0712252Y0506252
X0736217Y0485436
X0742123Y0485239
X0748028Y0485036
X0753934Y0487799
X0697047Y0551181
X0732677Y0464567
X0746260Y0473425
X0749016Y0473425
X0742913Y0473425
X0733858Y0473425
X0739961Y0473425
X0737205Y0473425
X0727559Y0473425
X0730315Y0473425
X0730285Y0487110
X0753937Y0485827
X0787795Y0465945
X0787795Y0467913
X0791732Y0463976
X0791732Y0462008
X0791732Y0465945
X0791732Y0467913
X0789764Y0467913
X0789764Y0465945
X0793701Y0462008
X0793701Y0463976
X0793701Y0467913
X0793701Y0465945
X0787795Y0463976
X0787795Y0462008
X0789764Y0462008
X0789764Y0463976
X0111614Y0504134
X0085630Y0504528
X0094685Y0504528
X0104331Y0504528
X0085236Y0492913
X0084842Y0499409
X0095785Y0500656
X0109197Y0516236
X0111300Y0500865
X0106300Y0500865
X0131890Y0504331
X0137008Y0500394
X0135827Y0502559
X0136024Y0505906
X0137795Y0497638
X0119291Y0497441
X0137598Y0493701
X0127464Y0493594
X0123929Y0497129
X0120393Y0500665
X0116858Y0504200
X0138189Y0515158
X0136811Y0512402
X0139173Y0499803
X0137402Y0508071
X0139961Y0508071
X0136811Y0510236
X0116178Y0499771
X0154528Y0503543
X0165158Y0499213
X0163189Y0496654
X0159449Y0508071
X0152953Y0496063
X0156430Y0499650
X0158748Y0501969
X0162992Y0508268
X0160039Y0505315
X0147047Y0503543
X0150984Y0507284
X0148819Y0507284
X0147047Y0505512
X0153150Y0507284
X0145276Y0508465
X0142520Y0507874
X0143307Y0496063
X0175394Y0494882
X0194000Y0490800
X0190400Y0493600
X0190400Y0495200
X0184768Y0493715
X0178740Y0491339
X0178740Y0497244
X0173425Y0497441
X0170472Y0498228
X0214157Y0497530
X0202000Y0506400
X0192000Y0517200
X0191814Y0522116
X0198400Y0504400
X0204000Y0504000
X0216000Y0496000
X0255512Y0489961
X0276378Y0507480
X0261600Y0490400
X0262000Y0498000
X0266000Y0504400
X0261600Y0514000
X0273622Y0515354
X0276772Y0516929
X0273622Y0516929
X0293307Y0514567
X0293307Y0512992
X0286220Y0514370
X0286220Y0512795
X0317913Y0494291
X0322441Y0509646
X0317520Y0505118
X0313386Y0500394
X0308661Y0495866
X0332326Y0514420
X0327326Y0514420
X0317365Y0515044
X0326378Y0512205
X0352000Y0502800
X0359055Y0494291
X0340354Y0494094
X0347151Y0515731
X0342326Y0514420
X0337326Y0514420
X0365748Y0507874
X0389961Y0506102
X0382677Y0514370
X0375000Y0494291
X0418898Y0514764
X0409055Y0512795
X0394094Y0511024
X0394488Y0502559
X0407087Y0501575
X0439961Y0512503
X0431313Y0508647
X0425929Y0514315
X0436866Y0514315
X0425197Y0508661
X0447047Y0516535
X0430906Y0503937
X0435472Y0503399
X0436602Y0508270
X0443672Y0515341
X0451786Y0506679
X0463386Y0512008
X0463386Y0513976
X0452756Y0501772
X0456496Y0501772
X0463577Y0505886
X0491156Y0512205
X0489370Y0513780
X0485433Y0514173
X0495866Y0490158
X0479383Y0505192
X0507691Y0519868
X0523425Y0491929
X0526861Y0493796
X0527489Y0498756
X0524729Y0502926
X0512205Y0515945
X0512908Y0501330
X0516443Y0497795
X0519978Y0494259
X0554196Y0512859
X0448425Y0562008
X0371668Y0587402
X0545472Y0516142
X0557600Y0492000
X0550415Y0491804
X0542591Y0497910
X0539256Y0501446
X0533558Y0507087
X0577362Y0506890
R02X0003937
X0573425Y0506890
X0584449Y0511614
R02X-0003937
X0581102Y0491535
X0572638Y0511614
X0565945Y0511614
X0575415Y0491804
X0609055Y0491929
X0599053Y0502002
X0602589Y0498466
X0606124Y0494930
X0619094Y0502165
X0618898Y0499803
X0626226Y0492459
X0623927Y0496898
X0617323Y0503150
X0662512Y0513204
X0658976Y0516739
X0654400Y0516400
X0658400Y0512400
X0669802Y0501184
X0683725Y0491991
X0680189Y0495526
X0676654Y0499062
X0673118Y0502597
X0673338Y0497648
X0676873Y0494113
X0723042Y0512718
X0720639Y0516187
X0720189Y0498163
X0723724Y0494627
X0749606Y0501378
X0752756Y0503150
X0731246Y0505580
X0738319Y0498511
X0727260Y0491092
X0770185Y0515278
X0778937Y0495669
X0779134Y0490354
X0779134Y0498032
X0770276Y0495472
X0768504Y0499803
X0755512Y0497441
X0758465Y0493110
X0779134Y0503937
X0786811Y0496063
X0789764Y0495669
X0792717Y0495866
X0793504Y0494094
X0796654Y0493898
X0807480Y0493898
X0806890Y0513583
X0796260Y0515945
X0793307Y0515945
X0793307Y0512992
X0082864Y0535063
X0079328Y0538599
X0075793Y0542135
X0070079Y0544882
X0109197Y0521236
X0109197Y0526236
X0106657Y0530543
X0101917Y0532137
R03X-0005000
X0122835Y0534646
X0122752Y0530032
X0125050Y0532059
X0119357Y0543702
X0119357Y0537639
X0163893Y0521964
X0152913Y0528753
X0142386Y0520082
X0153814Y0522134
X0146928Y0529361
X0144567Y0529313
X0142451Y0527115
X0191814Y0527116
X0192398Y0532082
X0192398Y0537082
X0215748Y0544882
X0216065Y0535661
X0218021Y0531059
X0220276Y0534646
X0233268Y0526772
X0235039Y0528150
X0225197Y0519095
X0226575Y0517913
X0278700Y0547600
X0261600Y0518400
X0265354Y0528740
X0279134Y0530709
X0275394Y0530709
X0277165Y0530709
X0277165Y0523622
X0275394Y0532480
X0278150Y0532480
X0277953Y0539173
X0275394Y0539173
X0307677Y0549409
X0307480Y0543701
X0310630Y0549606
X0319488Y0545866
X0319153Y0549213
X0313780Y0549409
X0322638Y0549409
X0322835Y0546063
X0301378Y0546457
X0302165Y0549803
X0302165Y0543504
X0309055Y0546457
X0291181Y0543740
X0299687Y0532722
X0287795Y0545276
X0333858Y0540748
X0312008Y0520079
X0308858Y0523032
X0357758Y0526338
X0354222Y0522802
X0350686Y0519267
X0338274Y0529444
X0342416Y0532246
X0350984Y0543110
X0353022Y0542852
X0374400Y0519200
X0387353Y0522312
X0382859Y0520119
X0377884Y0519626
X0373635Y0522261
X0380662Y0531788
X0364000Y0531600
X0393504Y0518110
X0417353Y0522312
R02X-0005000
X0415662Y0531788
R03X-0005000
X0445880Y0522033
X0433268Y0519291
X0442353Y0522312
R04X-0005000
X0445662Y0531788
R05X-0005000
X0457691Y0522230
X0469502Y0522244
X0472047Y0522244
X0452353Y0522312
X0463292Y0522431
X0467205Y0522627
X0468185Y0517724
X0470662Y0531788
R04X-0005000
X0475448Y0522692
X0479528Y0531890
X0504009Y0520401
X0500597Y0522631
X0497638Y0522638
X0492353Y0522312
X0500662Y0531788
R02X-0005000
X0495197Y0522638
X0526000Y0541200
X0522800Y0544400
X0505906Y0519095
X0526378Y0535236
X0520400Y0541200
X0516800Y0544800
X0505662Y0531788
X0545079Y0522244
X0547244Y0520079
X0537598Y0529724
X0539961Y0527362
X0532284Y0535236
X0542520Y0518898
X0539173Y0522244
X0534055Y0527362
X0531693Y0529724
X0543600Y0544800
X0554000Y0534800
X0572000Y0541200
X0565600Y0544400
X0576034Y0541174
X0581034Y0541174
X0595276Y0542126
X0612992Y0543307
X0603150Y0543307
X0610236Y0544094
X0641299Y0534417
X0637763Y0537953
X0635039Y0540945
X0628740Y0540945
X0614961Y0543307
X0630911Y0540075
X0634447Y0536539
X0637982Y0533004
X0641518Y0529468
X0655441Y0520275
X0651905Y0523811
X0648370Y0527346
X0644834Y0530882
X0645054Y0525933
X0648589Y0522397
X0652124Y0518862
X0696638Y0542468
X0674227Y0544125
X0677763Y0540589
X0681298Y0537054
X0684833Y0533518
X0688369Y0529983
X0691905Y0526447
X0695440Y0522911
X0711220Y0526378
X0711811Y0545669
X0699632Y0538464
X0698976Y0519376
X0752800Y0541200
X0763976Y0536417
X0753200Y0543600
X0742000Y0538000
X0744368Y0532306
X0740000Y0538000
X0758858Y0542511
X0757200Y0544400
X0762800Y0526000
X0780326Y0538004
X0780482Y0522260
X0778069Y0539857
X0780304Y0535385
R02Y-0005000
X0793269Y0540710
X0807480Y0527165
X0795276Y0527953
X0796457Y0522441
X0793701Y0522441
X0786220Y0524803
X0787402Y0533465
X0784646Y0530709
X0786220Y0540551
X0792520Y0533071
X0796457Y0533071
X0808268Y0533465
X0822047Y0529528
X0816142Y0529528
X0810630Y0530709
X0813386Y0533071
X0820866Y0538976
X0063185Y0548032
X0068832Y0553993
X0071806Y0558013
X0076509Y0559711
X0081509Y0559711
X0107480Y0557480
X0099606Y0560433
X0086509Y0559711
R02X0005000
X0107088Y0561230
X0120142Y0554256
X0189386Y0571940
X0184386Y0571940
X0192398Y0547082
X0193603Y0551935
X0222441Y0545669
X0217913Y0563780
X0207284Y0571063
X0210039Y0569094
X0218778Y0565547
X0219789Y0570444
X0218800Y0553300
X0197138Y0555471
X0200674Y0559006
X0202400Y0564000
X0207600Y0564000
X0244685Y0572638
X0237008Y0563583
X0230315Y0561024
X0230315Y0571654
X0249258Y0557596
X0230800Y0552400
X0244727Y0561606
X0248262Y0565141
X0226704Y0569799
X0226128Y0564832
X0278400Y0557600
X0278700Y0552400
X0273228Y0572835
X0268898Y0572441
X0276525Y0564459
R04X-0005000
X0252794Y0561131
X0293071Y0558032
X0291525Y0564459
X0287795Y0549213
X0332677Y0571063
X0323383Y0571901
X0328800Y0566400
X0333889Y0561194
X0348622Y0564764
X0342716Y0570669
X0358661Y0552756
X0351378Y0546260
X0347244Y0547835
X0344094Y0550984
X0340354Y0554528
X0336428Y0569998
X0339964Y0566462
X0343500Y0562927
X0347035Y0559391
X0350571Y0555856
X0354106Y0552320
X0341732Y0552165
X0361558Y0546418
X0337425Y0557659
X0353150Y0560236
X0379134Y0553740
X0389838Y0562058
X0385459Y0564470
X0381923Y0568006
X0378387Y0571542
X0366558Y0546418
X0414838Y0562058
X0409838Y0562058
X0394838Y0562058
X0396558Y0546418
R04X0005000
X0437600Y0556400
X0431600Y0555200
X0440000Y0554000
X0439838Y0562058
R04X-0005000
X0421558Y0546418
R05X0005000
X0456693Y0554331
X0454400Y0556000
X0450000Y0546400
X0460461Y0572479
X0463996Y0568943
X0467600Y0569600
X0490400Y0546800
X0488621Y0567043
R02X0005000
X0476558Y0546418
R02X0005000
X0522000Y0566400
X0518110Y0549213
X0520400Y0546800
X0503621Y0567043
R02X0005000
X0523200Y0565200
X0528800Y0559600
X0534800Y0553600
X0550000Y0564800
X0556800Y0564400
X0556800Y0562400
X0540800Y0569200
X0556800Y0560400
X0556299Y0557677
X0536800Y0551600
X0540845Y0547284
X0538381Y0571891
X0548000Y0564800
X0548987Y0561284
X0552523Y0557748
X0556058Y0554213
X0558800Y0560400
R02Y0002000
X0565354Y0548819
X0575984Y0549606
X0571654Y0558071
X0571600Y0554400
X0573622Y0560039
X0576181Y0560039
X0597244Y0558661
X0599213Y0557874
X0594488Y0557874
X0594488Y0549409
X0595472Y0553937
X0594744Y0559654
X0598425Y0553937
X0667717Y0558661
X0662992Y0563780
X0655383Y0571665
X0655383Y0566665
X0656549Y0561802
X0660085Y0558267
X0663620Y0554731
X0667156Y0551196
X0671546Y0572622
X0696732Y0562409
X0697222Y0557434
X0696638Y0547468
X0674040Y0548990
X0672871Y0553851
X0672871Y0558851
X0671940Y0563764
X0671940Y0568764
X0670691Y0547660
X0718110Y0564567
X0711811Y0568110
X0706299Y0563386
X0710326Y0555693
X0710326Y0560693
X0716929Y0555315
X0711811Y0571654
X0720669Y0555118
X0712795Y0554724
X0742913Y0564567
X0731979Y0563961
X0731979Y0568961
X0726467Y0564354
X0726467Y0569354
X0735433Y0555512
X0735427Y0565284
X0739697Y0558420
X0743281Y0568857
X0744035Y0560165
X0742274Y0554729
X0753600Y0550800
X0742274Y0551755
X0741617Y0556711
X0745902Y0558104
X0746308Y0553120
X0744932Y0567456
X0735604Y0563059
R02Y0005000
X0739520Y0554878
X0758858Y0546252
X0757480Y0566929
X0757480Y0570472
X0779528Y0565748
X0775984Y0566142
X0771654Y0566142
X0768898Y0566929
X0768898Y0571260
X0781763Y0572889
X0757980Y0560197
X0766888Y0551289
X0755220Y0551940
X0766537Y0562878
X0775984Y0562961
X0779134Y0562961
X0777718Y0558691
X0768269Y0558691
X0757454Y0554007
X0763022Y0559575
X0769685Y0562843
X0773622Y0562843
X0781496Y0562843
X0780687Y0558809
X0772813Y0558809
X0765712Y0556561
X0760144Y0550992
X0755968Y0546817
X0762610Y0549778
X0755539Y0556850
X0760391Y0557535
X0763927Y0553999
X0770998Y0546928
X0807087Y0545669
X0796457Y0546063
X0791732Y0546063
X0787008Y0545669
X0787519Y0567974
X0781794Y0568619
X0820866Y0548819
X0816929Y0548819
X0813386Y0545669
X0810630Y0547638
X0195803Y0582570
X0200803Y0582570
X0207756Y0575512
X0212800Y0576000
X0219523Y0575437
X0235055Y0576467
X0230055Y0576467
X0249016Y0582677
X0224523Y0575437
X0267071Y0595024
X0272455Y0600576
X0272455Y0589356
X0256890Y0576181
X0270669Y0575197
X0278937Y0598228
X0287022Y0602742
X0298833Y0602939
X0280709Y0594291
X0288189Y0596654
X0300394Y0596850
X0298819Y0593307
X0287008Y0593504
X0310644Y0602953
X0323892Y0597008
X0320472Y0597244
X0335630Y0577559
X0325984Y0577165
X0328543Y0577756
X0309104Y0600752
X0319747Y0575336
X0363006Y0600576
X0368559Y0595024
X0357622Y0595024
X0354386Y0595024
X0348833Y0600576
X0340551Y0589370
X0356299Y0599606
X0351181Y0600394
X0345150Y0601109
X0377573Y0602742
X0383479Y0587387
X0389384Y0602939
X0369685Y0598819
X0365748Y0600000
X0374852Y0575077
X0371531Y0583815
X0370400Y0602000
X0395276Y0587795
X0401195Y0602953
X0418898Y0584806
X0423200Y0593200
X0439384Y0603340
X0461811Y0575591
X0468110Y0593307
X0447041Y0577082
X0452041Y0577082
X0456925Y0576015
X0512205Y0592520
X0535488Y0595024
X0529935Y0600576
X0507206Y0581818
X0510169Y0581911
X0526253Y0601109
X0522841Y0604128
X0519882Y0603346
X0554724Y0585433
X0543378Y0578265
X0534845Y0575426
X0593307Y0588386
X0591572Y0590033
X0609252Y0586614
X0614370Y0581890
X0612402Y0584252
X0607677Y0588780
X0604921Y0588386
X0606890Y0586614
X0596457Y0584449
X0615354Y0586220
X0621260Y0582284
X0641535Y0583661
X0638976Y0586417
X0635827Y0587008
X0623032Y0583858
X0631299Y0587205
X0625984Y0586811
X0617913Y0578937
X0662992Y0581102
X0646063Y0579528
X0655118Y0576378
X0643307Y0583071
X0697654Y0577058
X0692654Y0577058
X0688008Y0577255
X0683008Y0577255
X0679543Y0577058
X0674543Y0577058
X0671546Y0577622
X0725197Y0596457
X0725680Y0577937
X0725680Y0582937
X0713402Y0579026
X0708402Y0579026
X0705724Y0576664
X0700724Y0576664
X0742913Y0598425
X0740158Y0589764
X0726378Y0574016
X0752575Y0576467
X0747575Y0576467
X0735692Y0583250
X0735604Y0578059
X0744466Y0580608
X0768110Y0594882
X0758268Y0594882
X0757480Y0573622
X0756693Y0576772
X0768898Y0574409
X0791057Y0590439
X0276772Y0607677
X0296457Y0607677
X0280709Y0607677
X0323228Y0603150
X0331890Y0607677
X0327953Y0607677
X0312205Y0607677
X0316142Y0607677
X0308127Y0604635
X0355512Y0607677
X0359449Y0607677
X0335827Y0607677
R04X0003937
X0341739Y0603340
X0336339Y0603346
X0338780Y0603346
X0387008Y0607677
X0390945Y0607677
X0363386Y0607677
R02X0003937
X0375197Y0607677
R02X0003937
X0418504Y0607677
X0394882Y0607677
X0398819Y0607677
R04X0003937
X0422441Y0607677
X0426378Y0607677
X0430315Y0607677
R04X0003937
X0426890Y0603346
X0429331Y0603346
X0432290Y0603340
X0453937Y0607677
R05X0003937
X0450000Y0607677
X0497244Y0607677
X0493307Y0607677
R02X-0003937
X0501181Y0607677
X0477559Y0607677
X0481496Y0607677
X0517441Y0603346
X0537008Y0166535
X0537008Y0203150
X0537008Y0185039
X0536811Y0266339
X0536811Y0254528
X0536811Y0242716
R02Y0035433
X0536811Y0301772
X0536811Y0337205
X0536811Y0325394
X0536811Y0372638
X0542126Y0399213
X0537008Y0393898
X0536811Y0384449
X0539764Y0396850
X0530315Y0164173
X0533071Y0162598
X0533661Y0183071
X0533661Y0195866
X0533661Y0259842
X0533661Y0248032
X0533661Y0238583
X0533661Y0283465
X0533661Y0271654
X0533661Y0318898
X0533661Y0307087
X0533661Y0342520
X0533661Y0330709
X0533661Y0377953
X0533661Y0366142
X0537795Y0404331
X0540354Y0401968
X0535039Y0396653
X0533661Y0389764
X0532480Y0398819
X0541732Y0406299
X0538780Y0422835
X0541732Y0425591
X0541732Y0433465
X0538780Y0430709
X0547244Y0388583
X0545276Y0391732
X0553150Y0394488
X0548425Y0394488
X0550787Y0392126
X0550394Y0396457
X0553937Y0405512
X0553937Y0428740
X0550669Y0408465
X0550669Y0413189
X0550669Y0426969
X0553900Y0437200
X0550700Y0434400
X0715945Y0151968
X0721260Y0152165
X0616535Y0304724
X0616535Y0323228
X0616535Y0355512
X0616535Y0375591
X0616535Y0390945
X0220438Y0183481
X0689567Y0210433
X0696457Y0210630
X0707087Y0209055
X0700000Y0208858
X0702756Y0221260
X0633071Y0347441
X0633071Y0355315
X0633071Y0380315
X0680484Y0442295
X0703543Y0209055
X0707687Y0221260
X0703543Y0212008
X0636220Y0350197
X0636220Y0377165
X0636220Y0358071
X0683521Y0442126
X0693110Y0210827
X0158465Y0322244
X0161811Y0319488
X0581392Y0318006
X0588386Y0307480
X0568110Y0303150
X0564567Y0309842
X0567323Y0315158
X0565354Y0312795
X0565354Y0305906
X0586811Y0317716
X0586811Y0322047
X0573622Y0331496
X0579528Y0327362
X0566535Y0334252
X0568701Y0334055
X0568504Y0324606
X0566732Y0329331
X0565354Y0322638
X0611024Y0319291
X0601150Y0328771
X0600197Y0322441
X0597913Y0322716
X0609449Y0330315
X0610039Y0344882
X0600787Y0336220
X0599016Y0348622
X0608589Y0371136
X0610236Y0360236
X0610827Y0368110
X0607677Y0355512
X0610580Y0308021
X0611417Y0314567
X0154732Y0331038
X0146732Y0331038
X0150732Y0331038
X0163132Y0331038
X0167913Y0331102
X0170866Y0326772
X0173819Y0330906
X0232253Y0341292
R02X0010000
X0302253Y0341292
X0312253Y0341292
X0382253Y0341292
X0392253Y0341292
X0443466Y0362596
X0450537Y0369667
X0478821Y0397951
X0497244Y0427165
X0497244Y0433661
X0497244Y0440551
X0159132Y0331038
X0170472Y0339370
X0173951Y0340451
X0181906Y0337552
X0184252Y0337598
X0179528Y0337598
X0238575Y0347840
X0248575Y0347840
X0308575Y0347840
X0318575Y0347840
X0388575Y0347840
X0416535Y0348032
X0440265Y0368542
X0447336Y0375613
X0454407Y0382684
X0489762Y0418039
X0491579Y0427873
X0483071Y0411220
X0491535Y0420079
X0491535Y0423819
X0491535Y0441732
X0192016Y0323785
X0168307Y0322441
X0206158Y0337928
X0199087Y0330857
X0246153Y0338236
X0236153Y0338236
X0306153Y0338236
X0296153Y0338236
X0316153Y0338236
X0386153Y0338236
X0376153Y0338236
X0416153Y0338236
X0396153Y0338236
X0447067Y0361876
X0439996Y0354804
X0454138Y0368946
X0482422Y0397231
X0500347Y0430630
X0500347Y0440630
X0500394Y0436614
X0500394Y0442717
X0575984Y0341929
X0566535Y0357284
X0566535Y0365354
X0577559Y0388189
X0591142Y0334646
X0590748Y0345276
X0650591Y0333071
X0134449Y0351520
X0135433Y0353347
X0135827Y0361417
X0133711Y0361417
X0160606Y0391756
X0157048Y0388938
X0160039Y0388780
X0158135Y0380841
X0155315Y0381063
X0152765Y0383268
X0152765Y0387992
X0152765Y0392323
X0153937Y0395866
X0160039Y0395866
X0164764Y0395866
X0168898Y0395866
X0171748Y0393016
X0171748Y0387205
X0171748Y0383028
X0164764Y0375591
X0165551Y0379235
X0155906Y0373622
X0185433Y0368976
X0185433Y0365039
X0186647Y0362629
X0216647Y0362629
X0236647Y0362629
X0246647Y0362629
X0316647Y0362629
X0376647Y0362629
X0386647Y0362629
X0396647Y0362629
X0416644Y0362899
X0161811Y0383071
X0165711Y0388030
X0163780Y0381890
X0162795Y0387992
X0162135Y0380581
X0179921Y0387402
X0437857Y0384112
X0444928Y0391184
X0451999Y0398254
X0473213Y0419468
X0473863Y0429447
X0473622Y0442520
X0185433Y0352487
X0185433Y0357165
X0579528Y0350984
X0578937Y0355118
X0572835Y0371260
X0571654Y0375197
X0572244Y0358071
X0570866Y0353740
X0585827Y0391732
X0578740Y0382284
X0598032Y0360236
X0605906Y0362598
X0594488Y0363189
X0602362Y0360236
X0609055Y0375984
X0611614Y0373425
X0600197Y0375591
X0604331Y0381496
X0586675Y0369624
X0592717Y0371193
X0592717Y0369118
X0589370Y0365354
X0596063Y0373425
X0595669Y0369488
X0588780Y0375787
X0585039Y0380906
X0679921Y0365158
X0574409Y0395472
X0579331Y0398032
X0604661Y0389764
X0608661Y0383858
X0608661Y0392126
X0597244Y0391732
X0589498Y0389764
X0593289Y0389746
X0701575Y0411024
X0703543Y0412992
X0700394Y0409842
X0691732Y0401181
X0696457Y0405512
X0694882Y0404724
X0687402Y0395669
X0685433Y0395669
X0685433Y0393701
X0687402Y0393701
X0723622Y0414764
X0721654Y0414764
X0717520Y0412008
X0715945Y0412205
X0705118Y0414173
X0710630Y0412205
X0715945Y0413976
X0705118Y0412205
X0710630Y0414370
X0719882Y0414567
X0727559Y0414764
X0729528Y0414764
X0634449Y0428740
X0636024Y0442913
X0744882Y0411811
X0742913Y0413780
X0741142Y0415551
X0747047Y0409055
X0098400Y0460400
X0103150Y0489173
X0096260Y0463976
X0108268Y0477953
X0098819Y0488189
X0098191Y0481272
X0095305Y0477189
X0093848Y0472406
X0093848Y0467406
X0102841Y0464245
X0109912Y0471316
X0118307Y0487205
X0124213Y0482480
X0119685Y0482677
X0112795Y0487008
X0113448Y0474851
X0118424Y0475344
X0123424Y0475344
X0128689Y0476049
X0125154Y0479585
X0107566Y0494746
X0110236Y0489961
X0112566Y0494731
X0114313Y0446392
X0239600Y0458100
X0256400Y0456000
X0729528Y0440945
X0734842Y0442520
X0733268Y0439961
X0741142Y0442913
X0739764Y0441535
X0745472Y0438780
X0749016Y0443110
X0731299Y0443307
X0215748Y0487402
X0242800Y0463600
X0227338Y0501273
X0229897Y0501273
X0237574Y0501273
X0235015Y0501273
X0232440Y0508950
X0227338Y0508950
X0229897Y0508950
X0232456Y0501273
X0232456Y0503832
X0232677Y0498819
X0232456Y0506391
X0239476Y0505111
X0239764Y0498425
X0228617Y0507671
X0234391Y0508326
X0225000Y0498032
X0225787Y0507087
X0225197Y0501378
X0225591Y0504528
X0239567Y0507677
X0236024Y0494291
X0521654Y0485039
X0515748Y0485039
X0503937Y0485433
X0509842Y0485433
X0594488Y0486024
X0600394Y0485039
X0606299Y0485236
X0631890Y0485433
X0637598Y0485827
X0649606Y0485236
X0661414Y0485239
X0667320Y0485036
X0673225Y0485239
X0712595Y0485830
X0700784Y0485233
X0213583Y0490354
X0233800Y0494200
X0225050Y0493850
X0762992Y0509842
X0084331Y0542249
X0087866Y0538713
X0092845Y0538255
R02X0005000
X0107839Y0538013
X0111375Y0534477
X0113239Y0532059
X0113239Y0542059
X0113239Y0537059
X0079134Y0550000
X0082022Y0553593
X0080795Y0545784
X0099409Y0550394
X0106602Y0550725
X0096826Y0552204
X0087022Y0553593
X0108669Y0550915
X0212008Y0519685
X0206299Y0544882
X0210039Y0545079
X0211522Y0531769
X0209646Y0536614
X0212008Y0527362
X0198032Y0519685
X0197835Y0527362
X0691292Y0542229
X0719882Y0543898
X0717520Y0534646
X0708858Y0549803
X0722865Y0519684
X0723042Y0522718
X0719600Y0528400
X0734646Y0524803
X0731600Y0540400
X0728259Y0542892
X0736000Y0543600
X0735200Y0550000
X0731496Y0518110
X0729000Y0529600
X0727000Y0529600
X0208884Y0558702
X0307087Y0556299
X0302756Y0556299
X0322441Y0560630
X0314173Y0561417
X0330526Y0556330
X0605906Y0553937
X0605906Y0561811
X0638976Y0564961
X0641339Y0569094
X0642913Y0560236
X0632284Y0557087
X0632284Y0564567
X0633858Y0568898
X0635827Y0570866
X0625591Y0574606
X0631102Y0579724
X0622638Y0565748
X0648228Y0570669
X0685039Y0553150
X0691292Y0547229
X0691142Y0553346
X0690945Y0561024
X0679134Y0553346
X0679134Y0561024
X0679386Y0549651
X0703347Y0553543
X0703150Y0561417
X0304724Y0587598
X0292928Y0587387
X0485827Y0585039
X0603937Y0580709
X0606496Y0580906
X0605118Y0577953
X0333500Y0533600
X0333600Y0529600
X0482800Y0505200
X0562287Y0491929
X0547200Y0493200
X0527900Y0512800
X0418800Y0577200
X0432800Y0577600
X0266000Y0499200
X0263600Y0506400
X0264000Y0511200
X0263600Y0521600
X0264000Y0526000
X0748800Y0376800
X0197200Y0503200
X0192000Y0469200
X0377200Y0580400
X0383600Y0580400
X0383300Y0595800
X0396400Y0566800
X0402800Y0566800
X0395200Y0570800
X0388800Y0570800
X0390000Y0575600
X0383600Y0575600
X0391500Y0597200
X0395400Y0597200
X0388800Y0596800
X0377600Y0596400
X0486000Y0593200
X0474100Y0593200
X0462000Y0593200
X0539367Y0496457
X0557200Y0473200
X0505118Y0170866
X0521600Y0455600
X0541200Y0489600
X0559600Y0489600
X0488189Y0148819
X0513780Y0104724
X0513976Y0169882
X0519488Y0116142
X0518110Y0174016
X0441339Y0087205
X0389200Y0049600
X0449344Y0092587
X0379251Y0049526
X0240540Y0463600
X0455984Y0097194
X0358000Y0064800
X0462402Y0098580
X0355739Y0067061
X0331600Y0477200
X0371200Y0083600
X0456880Y0095322
X0374292Y0049526
X0469685Y0101378
X0351600Y0072400
X0541732Y0455315
X0511600Y0547600
X0316400Y0475800
X0382400Y0068400
X0384135Y0049526
X0466535Y0089370
X0579528Y0389764
X0589567Y0379528
X0576772Y0472441
X0572422Y0367501
X0190225Y0538660
X0269189Y0540411
X0205200Y0494039
X0205118Y0490298
X0186614Y0540097
X0268800Y0546000
X0205118Y0486558
X0185039Y0541535
X0268965Y0550454
X0213780Y0474986
X0182310Y0542972
X0270800Y0554900
X0222000Y0478000
X0313200Y0475800
X0340476Y0089360
X0195600Y0505600
X0237200Y0464400
X0225000Y0482087
X0323600Y0476800
X0379331Y0521672
X0379331Y0524606
X0747392Y0535444
X0744291Y0535236
X0762598Y0462008
X0669488Y0300394
X0703150Y0465748
X0175197Y0491142
X0153470Y0465625
X0143627Y0465674
X0137903Y0479242
X0141732Y0490354
X0165246Y0479242
X0158071Y0493504
X0233200Y0473600
X0292400Y0478000
X0759055Y0458661
X0784842Y0513976
X0516746Y0106102
X0572835Y0487992
X0573361Y0472047
X0251968Y0182874
X0507690Y0339805
X0323425Y0191929
X0576000Y0588800
X0744095Y0409449
X0703740Y0456356
X0689567Y0472441
X0433163Y0553163
X0584257Y0327761
X0579528Y0311417
X0606191Y0324320
X0601575Y0371260
X0610630Y0380315
X0483282Y0513839
X0326463Y0579639
X0505512Y0584646
X0417717Y0579528
X0233200Y0471500
X0294200Y0476600
X0758661Y0456102
X0784842Y0511811
X0518321Y0107480
X0574803Y0486614
X0574840Y0473503
X0250787Y0181102
X0509658Y0338989
X0321457Y0189961
X0574300Y0590000
X0741732Y0409449
X0701181Y0456356
X0687402Y0472244
X0428800Y0554800
X0326392Y0603332
X0586614Y0327362
X0582459Y0311242
X0604331Y0320276
X0601378Y0373425
X0612205Y0382284
X0485250Y0516339
X0416943Y0597047
X0507480Y0602756
X0328353Y0597244
X0737205Y0455709
X0781693Y0516535
X0657480Y0337205
X0739173Y0463086
X0773503Y0531076
X0735236Y0457874
X0779134Y0517126
X0741142Y0461649
X0776378Y0533858
X0659055Y0331496
X0749016Y0462795
X0776378Y0531299
X0662107Y0339093
X0660532Y0335353
X0663780Y0261417
X0663583Y0194882
X0659842Y0259646
X0661811Y0184252
X0668898Y0262402
X0666732Y0187795
X0668898Y0264764
X0665158Y0191339
X0750981Y0461812
X0778067Y0513780
X0166732Y0339370
X0537450Y0153937
X0549213Y0167323
X0714370Y0465354
X0477756Y0515551
X0496063Y0585039
X0405118Y0584252
X0711811Y0466929
X0480709Y0521654
X0503543Y0603805
X0412992Y0603937
X0332400Y0603346
X0709252Y0468701
X0478346Y0521654
X0409600Y0605512
X0318800Y0603600
X0499606Y0605315
X0176575Y0364961
X0068198Y0316841
X0176378Y0367716
X0176575Y0358268
X0176181Y0356102
X0769882Y0502756
X0778347Y0537205
X0737907Y0582565
X0312400Y0586800
X0313417Y0559004
X0261807Y0510371
X0316045Y0559004
X0261807Y0507742
X0331375Y0533018
X0261649Y0495410
X0261649Y0492782
X0331375Y0530389
X0321291Y0558426
X0263775Y0503087
X0323919Y0558426
X0263775Y0500459
X0263775Y0517851
X0303574Y0558216
X0263775Y0515223
X0306202Y0558216
X0261807Y0525332
X0293333Y0551435
X0261807Y0522703
X0293333Y0554064
X0387837Y0575600
X0387600Y0594800
X0385763Y0575600
X0385200Y0594800
X0400637Y0566800
X0398400Y0595200
X0398563Y0566800
X0396000Y0595200
X0390963Y0570800
X0390800Y0595200
X0393037Y0570800
X0393321Y0595321
X0379363Y0594800
X0379363Y0580400
X0381437Y0594800
X0381437Y0580400
X0605559Y0544291
X0608118Y0543504
X0577650Y0544727
X0577650Y0547661
X0193045Y0170604
X0763878Y0435728
X0747164Y0429054
X0744181Y0529417
X0146063Y0493504
X0726772Y0548876
X0733149Y0555393
X0813976Y0537005
X0813976Y0541677
X0232480Y0515945
X0236417Y0514764
X0755520Y0396800
X0747200Y0399200
X0773200Y0386000
X0766928Y0383464
X0777825Y0385561
X0770866Y0294882
X0525197Y0118110
X0689764Y0290945
X0742000Y0417600
X0776790Y0356096
X0570028Y0437079
X0776710Y0358674
X0570028Y0439708
X0774862Y0336805
X0582518Y0429034
X0774862Y0339433
X0582518Y0431663
X0774862Y0321057
X0593396Y0418402
X0774862Y0323685
X0593396Y0421031
X0774862Y0305309
X0602842Y0411385
X0774862Y0307937
X0602842Y0414013
X0786896Y0590439
X0177953Y0350197
X0176575Y0360575
X0693307Y0372244
X0636220Y0416929
X0661811Y0180709
X0659842Y0256496
X0148228Y0338976
X0151575Y0338976
X0154528Y0339173
X0157087Y0339370
X0159449Y0339567
X0707687Y0229331
X0690806Y0229331
X0687015Y0229331
X0694595Y0229331
X0698434Y0229331
X0564958Y0473425
X0500591Y0392913
X0450079Y0057087
X0450197Y0053427
X0735433Y0463386
X0659449Y0328740
X0774606Y0547244
X0659449Y0472244
X0487219Y0512402
X0420079Y0586614
X0508858Y0584646
X0666339Y0472441
X0489187Y0516339
X0511417Y0603150
X0419200Y0597200
X0619555Y0560685
X0622490Y0560685
X0687005Y0486417
X0646280Y0569314
X0643479Y0569488
X0648836Y0567986
X0673228Y0144488
X0660490Y0142861
X0672047Y0147835
X0665748Y0146063
X0622835Y0458661
X0624803Y0455906
X0622862Y0573228
X0612934Y0573622
X0611024Y0574803
X0667913Y0162992
X0730118Y0463386
X0716929Y0528346
X0593504Y0473200
X0447638Y0484842
X0449409Y0484646
X0466639Y0487008
X0464564Y0487008
X0723701Y0560709
X0649803Y0466142
X0464564Y0485433
X0466639Y0485433
X0207466Y0484238
X0281600Y0486800
X0541335Y0486220
X0273893Y0481707
X0167323Y0512992
X0177165Y0483465
X0141535Y0525000
X0177165Y0444882
X0480312Y0485630
X0474406Y0485630
X0476375Y0485630
X0478343Y0485630
X0474406Y0473819
R03X0001969
X0497061Y0516550
X0495093Y0512219
X0493124Y0516535
X0515369Y0597244
X0519306Y0597258
X0517323Y0593307
X0343110Y0592913
X0430709Y0591732
X0432284Y0591732
X0428740Y0591732
X0424817Y0597441
X0428754Y0597455
X0340354Y0592913
X0338203Y0597258
X0334266Y0597244
X0336235Y0592928
X0802756Y0549803
X0793071Y0538150
X0275787Y0581496
X0478343Y0487205
R02X-0001968
X0480312Y0487205
X0480312Y0472244
X0478343Y0472244
R02X-0001968
X0474406Y0470669
R03X0001969
X0790800Y0552400
X0760762Y0512269
X0743504Y0506299
X0745362Y0506189
X0737795Y0522244
X0502856Y0195966
X0558071Y0250984
X0590511Y0395341
X0577165Y0395341
X0757284Y0506693
X0704035Y0543799
X0580706Y0473619
X0578740Y0473622
X0613330Y0473088
X0636811Y0468701
X0404800Y0475200
X0571200Y0458733
X0320800Y0473500
X0308800Y0474000
X0496060Y0474016
R06X-0001968
X0496060Y0472047
R05X-0001969
X0484313Y0472037
X0218898Y0229921
X0218910Y0165539
X0219661Y0514068
X0220940Y0487476
X0219101Y0494875
X0245200Y0488400
X0239370Y0516046
X0245866Y0505709
X0226058Y0514641
X0269246Y0178104
X0249606Y0205512
X0705221Y0398732
X0519685Y0171654
X0696457Y0298622
X0562180Y0438361
X0559551Y0438361
X0576413Y0432943
X0576413Y0435572
X0587547Y0423680
X0587547Y0426308
X0593332Y0411839
X0593332Y0414467
X0602841Y0406057
X0602841Y0408685
X0691114Y0296850
X0519488Y0118216
X0738078Y0380007
X0734646Y0367749
X0734646Y0356105
X0229897Y0506391
X0235015Y0496155
X0237574Y0506391
X0237574Y0498714
X0239936Y0496155
X0237574Y0496155
X0235015Y0498714
X0237574Y0503832
X0235015Y0503832
X0224803Y0509252
X0227338Y0506391
X0235015Y0506391
X0229897Y0503832
X0227338Y0503832
X0237992Y0508858
X0238780Y0494291
X0228740Y0495866
X0232480Y0495866
X0620808Y0568523
X0690806Y0221260
X0687015Y0221260
X0694595Y0221260
X0698434Y0221260
X0727495Y0378213
X0727495Y0391993
X0720183Y0397151
X0716246Y0397151
X0714278Y0373282
X0641339Y0565919
X0648648Y0565919
T03
X0202000Y0486800
X0254000Y0463200
X0219291Y0519600
X0317913Y0594094
X0315158Y0594094
X0473228Y0513386
X0475591Y0513386
X0498425Y0594882
X0406693Y0593701
X0130118Y0340354
X0130118Y0337598
X0537722Y0603740
X0557678Y0571260
X0067913Y0014173
X0053738Y0007874
X0048802Y0008674
X0047244Y0013425
X0055515Y0002756
X0050515Y0002780
X0045824Y0004510
X0042766Y0008466
X0042126Y0013425
X0049753Y0014441
X0053651Y0010557
X0083738Y0007874
R02X-0005000
X0063738Y0007874
X0080515Y0002756
R04X-0005000
X0066929Y0007874
X0064281Y0010575
X0058968Y0009142
X0098738Y0007874
X0093738Y0007874
X0110515Y0002756
R05X-0005000
X0086614Y0007874
X0106299Y0007874
X0138738Y0007874
R02X-0005000
X0118738Y0007874
X0113738Y0007874
X0135515Y0002756
R04X-0005000
X0125984Y0007874
X0158738Y0007874
X0153738Y0007874
X0148738Y0007874
X0165515Y0002756
R05X-0005000
X0145669Y0007874
X0165354Y0007874
X0193738Y0007874
X0188738Y0007874
X0178738Y0007874
R02X-0005000
X0195515Y0002756
R05X-0005000
X0185039Y0007874
X0218738Y0007874
X0213738Y0007874
X0208738Y0007874
X0198738Y0007874
X0220515Y0002756
R04X-0005000
X0204724Y0007874
X0250509Y0013386
X0248738Y0007874
X0238738Y0007874
X0233738Y0007874
X0228738Y0007874
X0250515Y0002756
R05X-0005000
X0224409Y0007874
X0244094Y0007874
X0279134Y0014567
X0271572Y0014567
X0258071Y0013386
X0278738Y0007874
R02X-0005000
X0258738Y0007874
X0253738Y0007874
X0275515Y0002756
R04X-0005000
X0263780Y0007874
X0298738Y0007874
X0293738Y0007874
X0288738Y0007874
X0305515Y0002756
R05X-0005000
X0283465Y0007874
X0303150Y0007874
X0333738Y0007874
X0328738Y0007874
X0318738Y0007874
R02X-0005000
X0335515Y0002756
R05X-0005000
X0322835Y0007874
X0358738Y0007874
X0353738Y0007874
X0348738Y0007874
X0338738Y0007874
X0360515Y0002756
R04X-0005000
X0342520Y0007874
X0362205Y0007874
X0368738Y0007874
X0390515Y0002756
R05X-0005000
X0417717Y0006693
X0413738Y0007087
X0415515Y0002756
R04X-0005000
X0433858Y0010236
X0437205Y0015552
X0441142Y0015552
X0441733Y0011024
X0423738Y0007087
X0445515Y0002756
R05X-0005000
X0437796Y0011024
X0470515Y0002756
R04X-0005000
X0492323Y0005512
X0500515Y0002756
R05X-0005000
X0501378Y0012402
X0528937Y0013583
X0522441Y0012992
X0530515Y0002756
R05X-0005000
X0553738Y0007874
R02X-0005000
X0555515Y0002756
R04X-0005000
X0573032Y0014764
X0583738Y0007874
X0573738Y0007874
X0568738Y0007874
X0563738Y0007874
X0585515Y0002756
R05X-0005000
X0559055Y0007874
X0578740Y0007874
X0608738Y0007874
X0603738Y0007874
X0593738Y0007874
X0588738Y0007874
X0610515Y0002756
R04X-0005000
X0598425Y0007874
X0620515Y0002756
X0615515Y0002756
X0626772Y0013780
R04Y-0001968
X0624803Y0013780
R04Y-0001968
X0626772Y0003937
X0624803Y0003937
X0803600Y0006000
X0798738Y0007874
X0805515Y0002756
R02X-0005000
X0795276Y0007874
X0797982Y0014441
X0801879Y0010557
X0807196Y0009142
X0787402Y0004331
R05Y0001969
X0789370Y0004331
R05Y0001969
X0787402Y0002362
X0789370Y0002362
X0820800Y0015200
X0818349Y0009806
X0824016Y0013316
X0823333Y0008363
X0820227Y0004445
X0815515Y0002773
X0810515Y0002756
X0814961Y0007874
X0816142Y0014173
X0812509Y0010575
X0047244Y0023425
X0047244Y0033425
X0047244Y0038425
X0047244Y0043425
X0042126Y0018425
R05Y0005000
X0047244Y0027559
X0048320Y0019753
X0049735Y0025070
X0053618Y0028968
X0069580Y0019790
X0068146Y0025103
X0064248Y0028987
X0058931Y0030402
X0104921Y0016339
X0097360Y0016339
X0106299Y0027559
X0131299Y0015748
X0123738Y0015748
X0125984Y0027559
X0155709Y0016339
X0148147Y0016339
X0159449Y0027165
X0183071Y0015945
X0175509Y0015945
X0185039Y0027559
X0208268Y0016339
X0200706Y0016339
X0232480Y0016142
X0224919Y0016142
X0260630Y0020472
X0253068Y0020472
X0258465Y0027165
X0302478Y0015945
X0290551Y0018110
X0282990Y0018110
X0283465Y0027559
X0303150Y0027559
X0305512Y0030906
X0335236Y0016535
X0327675Y0016535
X0310039Y0015945
X0322835Y0027559
X0348622Y0024410
X0360827Y0022638
X0363583Y0019489
X0342520Y0027559
X0390158Y0026771
X0368701Y0022441
X0414961Y0035827
X0398426Y0035827
X0424016Y0036221
X0434633Y0035984
X0448959Y0035447
X0478741Y0035434
X0494489Y0036615
X0488977Y0036221
X0521654Y0043111
X0519685Y0027559
X0551772Y0017913
X0550984Y0030315
X0551181Y0026772
X0578543Y0019685
X0574607Y0034843
X0578740Y0027559
X0642520Y0037402
R02X-0001968
X0642520Y0039370
R02X-0001968
X0636614Y0037402
R05X-0001969
X0626772Y0035433
X0626772Y0033465
X0636614Y0039370
R05X-0001969
X0624803Y0039370
R03Y-0001969
X0626772Y0031496
R03Y-0001969
X0626772Y0023622
R04Y-0001969
X0624803Y0031496
R03Y-0001969
X0624803Y0023622
R04Y-0001969
X0670079Y0037402
R02X-0001968
X0670079Y0039370
R02X-0001968
X0664173Y0037402
R10X-0001969
X0664173Y0039370
R10X-0001969
X0697638Y0037402
X0695669Y0037402
X0697638Y0039370
X0695669Y0039370
X0693701Y0037402
R09X-0001969
X0674016Y0037402
X0672047Y0037402
X0693701Y0039370
R09X-0001969
X0674016Y0039370
X0672047Y0039370
X0721260Y0039370
R05X-0001969
X0725197Y0037402
X0725197Y0039370
X0723228Y0037402
X0709449Y0037402
X0699606Y0037402
X0723228Y0039370
X0709449Y0039370
X0701575Y0039370
X0699606Y0039370
X0752756Y0037402
X0752756Y0039370
X0750787Y0037402
R12X-0001968
X0750787Y0039370
R12X-0001968
X0780315Y0037402
R02X-0001969
X0774409Y0037402
R10X-0001969
X0780315Y0039370
R02X-0001969
X0774409Y0039370
R10X-0001969
X0795276Y0027559
X0796548Y0019753
X0807159Y0030402
X0797963Y0025070
X0801847Y0028968
X0787402Y0033858
X0787402Y0035827
X0786220Y0037402
R02X-0001969
X0789370Y0033858
R02Y0001969
X0788189Y0039370
R03X-0001969
X0787402Y0016142
R04Y0001969
X0787402Y0025984
R03Y0001969
X0789370Y0016142
R04Y0001969
X0789370Y0025984
R03Y0001969
X0818898Y0039776
R02Y-0005000
X0824016Y0043316
R05Y-0005000
X0814000Y0026800
X0816800Y0018400
X0816400Y0023600
X0811600Y0028800
X0047244Y0053425
R02Y0005000
X0042126Y0048425
R04Y0005000
X0047244Y0047244
X0047244Y0066929
X0066929Y0047244
X0066929Y0066929
X0086614Y0047244
X0106299Y0047244
X0086614Y0066929
X0125984Y0047244
X0125984Y0066929
X0145669Y0047244
X0165354Y0047244
X0145669Y0066929
X0165354Y0066929
X0185039Y0047244
X0185039Y0066929
X0204724Y0047244
X0204724Y0066929
X0224409Y0047244
X0244094Y0047244
X0224409Y0066929
X0244094Y0066929
X0274607Y0044095
X0276378Y0048426
X0263780Y0047244
X0263780Y0066929
X0303150Y0047244
X0283465Y0066929
X0303150Y0066929
X0322835Y0047244
X0322835Y0066929
X0342520Y0047244
X0342520Y0066929
X0389764Y0047244
X0389320Y0062866
X0387887Y0068178
X0394291Y0046456
X0393218Y0058982
X0404635Y0059000
X0398535Y0057567
X0407480Y0062598
X0409146Y0068215
X0428741Y0046457
X0444489Y0051182
X0444095Y0061615
X0421260Y0047244
X0440945Y0047244
X0440945Y0066929
X0474016Y0048032
X0472048Y0059252
X0474016Y0067323
X0463968Y0061689
X0479528Y0045670
X0496063Y0060237
X0485827Y0046260
X0489961Y0046457
X0500000Y0066929
X0483268Y0058465
X0514174Y0059449
X0521260Y0059843
X0530315Y0058268
X0523622Y0064174
X0533465Y0058268
X0555709Y0056300
X0557874Y0056300
X0557481Y0053937
X0555315Y0053937
X0536024Y0058268
X0554528Y0044882
X0556693Y0044882
X0574016Y0062402
X0560040Y0056103
X0562205Y0056103
X0561811Y0053741
X0559646Y0053741
X0565158Y0044685
X0559055Y0066929
X0618110Y0047244
X0637795Y0047244
X0618110Y0066929
X0637795Y0066929
X0657480Y0047244
X0657480Y0066929
X0677165Y0047244
X0696850Y0047244
X0677165Y0066929
R02X0019685
X0736220Y0047244
X0736220Y0066929
X0755906Y0047244
X0775591Y0047244
X0755906Y0066929
X0775591Y0066929
X0795276Y0047244
X0796942Y0067982
X0798375Y0062669
X0802273Y0058785
X0807590Y0057370
X0818898Y0064776
R04Y-0005000
X0824016Y0068316
R04Y-0005000
X0814961Y0047244
X0814961Y0066929
X0818202Y0068018
X0816535Y0062402
X0812903Y0058803
X0047244Y0073425
R02Y0005000
X0047244Y0093425
X0047244Y0098425
X0042126Y0073425
R05Y0005000
X0047244Y0086614
X0066929Y0086614
X0086614Y0086614
X0165354Y0086614
X0185039Y0086614
R02X0019685
X0244094Y0086614
X0263780Y0086614
X0283465Y0086614
X0303150Y0086614
X0385039Y0099016
X0387518Y0096457
X0390709Y0094883
X0389302Y0073496
X0403544Y0083859
X0392323Y0091732
X0407713Y0073528
X0403815Y0077412
X0393185Y0077393
X0398498Y0078827
X0422835Y0081102
X0454528Y0073032
X0449410Y0075788
X0461221Y0081497
X0460237Y0077559
X0496063Y0073426
X0498819Y0083268
X0500000Y0086614
X0513780Y0077559
X0539370Y0086614
X0557196Y0098906
X0574016Y0082087
X0559055Y0086614
X0618110Y0086614
X0637795Y0086614
X0657480Y0086614
X0677165Y0086614
X0696850Y0086614
X0736220Y0086614
X0755906Y0086614
X0775591Y0086614
X0795276Y0086614
X0802241Y0077196
X0798357Y0073299
X0807553Y0078630
X0818898Y0094776
R04Y-0005000
X0824016Y0098316
R05Y-0005000
X0814961Y0086614
X0816768Y0073331
X0812870Y0077215
X0047244Y0103425
X0047244Y0113425
X0047244Y0118425
X0042126Y0103425
R04Y0005000
X0047244Y0106299
X0047244Y0125984
X0066929Y0106299
X0066929Y0125984
X0086614Y0106299
X0165354Y0106299
X0145669Y0125984
X0185039Y0106299
X0185039Y0125984
X0204724Y0106299
X0204724Y0125984
X0224409Y0106299
X0244094Y0106299
X0224409Y0125984
X0244094Y0125984
X0263780Y0106299
X0263780Y0125984
X0283465Y0106299
X0303150Y0106299
X0283465Y0125984
X0303150Y0125984
X0322835Y0106299
X0322835Y0125984
X0381890Y0106299
X0381890Y0125984
X0401575Y0106299
X0421260Y0106299
X0440945Y0106299
X0421260Y0125984
X0460630Y0125984
X0539370Y0106299
X0557159Y0120165
X0547963Y0114834
X0551847Y0118732
X0551879Y0100321
X0546548Y0109517
X0547981Y0104204
X0574016Y0121457
X0574016Y0101772
X0559055Y0106299
X0559055Y0125984
X0562477Y0118750
X0566374Y0114866
X0562509Y0100339
X0566142Y0103937
X0567808Y0109554
X0618110Y0106299
X0637795Y0106299
X0618110Y0125984
X0637795Y0125984
X0657480Y0106299
X0657480Y0125984
X0677165Y0106299
X0696850Y0106299
X0677165Y0125984
X0696850Y0125984
X0716535Y0106299
X0716535Y0125984
X0755906Y0106299
X0775591Y0106299
X0755906Y0125984
X0775591Y0125984
X0795276Y0106299
X0787598Y0126378
X0787598Y0124409
X0787598Y0122441
X0787598Y0120472
X0789567Y0126378
X0789567Y0124409
X0789567Y0122441
X0789567Y0120472
X0785630Y0126378
X0785630Y0124409
X0785630Y0122441
X0785630Y0120472
X0787598Y0118504
R03Y-0001969
X0788780Y0111024
R05X0001969
X0800591Y0111024
R04X0001968
X0789567Y0118504
R02Y-0001968
X0790748Y0112992
R04X0001969
X0800591Y0112992
R04X0001968
X0785630Y0118504
R04Y-0001968
X0786811Y0109055
R06X0001969
X0800591Y0109055
R04X0001968
X0818898Y0104776
X0818898Y0099776
X0824016Y0103316
X0814961Y0106299
X0810433Y0111024
R07X0001968
X0810433Y0112992
R07X0001968
X0810433Y0109055
R07X0001968
X0047244Y0133425
X0047244Y0138425
X0047244Y0148425
X0047244Y0153425
X0042126Y0128425
R05Y0005000
X0047244Y0145669
X0066929Y0145669
X0089814Y0146469
X0109499Y0146469
X0129184Y0146469
X0224409Y0145669
X0244094Y0145669
X0263780Y0145669
X0283465Y0145669
X0303150Y0145669
X0322835Y0145669
X0381890Y0145669
X0421260Y0145669
X0440945Y0145669
X0496851Y0151969
X0478544Y0141930
X0488780Y0152953
X0574016Y0145079
X0559055Y0145669
X0618110Y0145669
X0637795Y0145669
X0721851Y0146260
X0755906Y0145669
X0775591Y0145669
X0787598Y0153937
R02Y-0001968
X0789567Y0153937
R02Y-0001968
X0785630Y0153937
R02Y-0001968
X0787598Y0148032
R10Y-0001969
X0789567Y0148032
R10Y-0001969
X0785630Y0148032
R10Y-0001969
X0047244Y0158425
X0047244Y0168425
X0047244Y0173425
X0047244Y0178425
X0042126Y0158425
R04Y0005000
X0047244Y0165354
X0066929Y0165354
X0086614Y0165354
X0224409Y0165354
X0244094Y0165354
X0225985Y0169685
X0227166Y0173622
X0263780Y0165354
X0324410Y0179922
X0322441Y0178150
X0326378Y0177953
X0326575Y0181693
X0322638Y0181890
X0335630Y0171063
X0327166Y0160237
X0317914Y0160434
X0319292Y0174213
X0328150Y0171260
X0321653Y0161220
X0381890Y0165354
X0421260Y0165354
X0474016Y0163780
X0460630Y0165354
X0477953Y0156300
X0500000Y0182284
X0489567Y0161418
X0500000Y0165354
X0565748Y0172835
X0574606Y0164764
X0559055Y0165354
X0618110Y0165354
X0665355Y0182481
X0659252Y0180512
X0691142Y0164174
X0684253Y0170670
X0684252Y0170670
X0689764Y0173622
X0688386Y0182481
X0696850Y0165354
X0705315Y0166536
X0705118Y0172835
X0699607Y0176969
X0716535Y0165354
X0755906Y0165354
X0775591Y0165354
X0787598Y0181496
R02Y-0001969
X0789567Y0181496
R02Y-0001969
X0785630Y0181496
R02Y-0001969
X0787598Y0175591
X0787598Y0173622
X0787598Y0171654
R08Y-0001968
X0789567Y0175591
X0789567Y0173622
X0789567Y0171654
R08Y-0001968
X0785630Y0175591
X0785630Y0173622
X0785630Y0171654
R08Y-0001968
X0047244Y0188425
R02Y0005000
X0047244Y0208425
X0042126Y0183425
R05Y0005000
X0047244Y0185039
X0047244Y0204724
X0066929Y0185039
X0086614Y0185039
X0086614Y0204724
X0145669Y0204724
X0224409Y0185039
X0226575Y0191142
X0272638Y0183859
X0308071Y0197244
X0320079Y0197244
X0335630Y0197048
X0330709Y0187008
X0335630Y0185237
X0318504Y0186024
X0381890Y0185039
X0381890Y0204724
X0415748Y0184055
X0415748Y0203740
X0440945Y0185039
X0440945Y0204724
X0460630Y0185039
X0460630Y0204724
X0500000Y0188583
X0480315Y0185039
X0480315Y0204724
X0500000Y0204724
X0566142Y0210630
X0574606Y0204134
X0574606Y0184449
X0559055Y0185039
X0663780Y0189174
X0651378Y0197048
X0657480Y0185039
X0685827Y0190355
X0691536Y0191339
X0681890Y0185827
X0680906Y0194882
X0687402Y0197835
X0676969Y0199804
X0677165Y0185039
X0696850Y0185039
X0713977Y0210040
X0716536Y0194095
X0718898Y0198622
X0708465Y0190945
X0706496Y0183071
X0700985Y0196260
X0716535Y0185039
X0729331Y0209843
X0726772Y0202559
X0736220Y0185039
X0736220Y0204724
X0755906Y0185039
X0775591Y0185039
X0755906Y0204724
X0789567Y0207087
R04Y-0001968
X0787598Y0209055
X0787598Y0207087
X0789567Y0209055
X0785630Y0209055
X0785630Y0207087
X0787598Y0205118
R03Y-0001968
X0787598Y0187402
R02Y-0001968
X0789567Y0187402
R02Y-0001968
X0785630Y0205118
R02Y-0001969
X0785630Y0187402
R02Y-0001968
X0047244Y0213425
X0047244Y0218425
X0047244Y0228425
R02Y0005000
X0042126Y0213425
R05Y0005000
X0047244Y0224409
X0066732Y0211811
X0064961Y0222244
X0106299Y0224409
X0125984Y0224409
X0165354Y0224409
X0224409Y0224409
X0283465Y0224409
X0415748Y0223425
X0440945Y0224409
X0460630Y0224409
X0480315Y0224409
X0500000Y0224409
X0574606Y0223819
X0559055Y0224409
X0670079Y0223622
X0650591Y0220276
X0651575Y0229724
X0669292Y0228150
X0657480Y0224409
X0678544Y0222048
X0678741Y0227559
X0681693Y0213583
X0675000Y0223426
X0672835Y0223229
X0684055Y0228543
X0714567Y0217323
X0755906Y0224409
X0775591Y0224409
X0787598Y0238583
X0787598Y0236614
X0789567Y0238583
X0789567Y0236614
X0785630Y0238583
X0785630Y0236614
X0787598Y0234646
R04Y-0001968
X0787598Y0224803
R07Y-0001968
X0789567Y0234646
R04Y-0001968
X0789567Y0224803
R07Y-0001968
X0785630Y0234646
R04Y-0001968
X0785630Y0224803
R07Y-0001968
X0047244Y0248425
R02Y0005000
X0042126Y0243425
R04Y0005000
X0047244Y0244094
X0047244Y0263780
X0066929Y0244094
X0066929Y0263780
X0086614Y0244094
X0106299Y0244094
X0085433Y0262205
X0106299Y0263780
X0125984Y0244094
X0145669Y0263780
X0185039Y0244094
X0185039Y0263780
X0224409Y0244094
X0244094Y0244094
X0244094Y0263780
X0263780Y0244094
X0263780Y0263780
X0283465Y0244094
X0303150Y0244094
X0283465Y0263780
X0381890Y0244094
X0381890Y0263780
X0415748Y0240354
X0440945Y0244094
X0440945Y0263780
X0460630Y0244094
X0460630Y0263780
X0474123Y0265300
X0468811Y0263866
X0463493Y0265281
X0480315Y0244094
X0500000Y0244094
X0480315Y0263780
X0500000Y0263780
X0585434Y0250788
X0560630Y0254331
X0598425Y0263780
X0627559Y0254331
X0630709Y0241339
X0656890Y0258661
X0677165Y0263780
R02X0019685
X0736220Y0244094
X0736220Y0263780
X0755906Y0244094
X0775591Y0244094
X0755906Y0263780
X0775591Y0263780
X0787598Y0266142
X0787598Y0264173
X0789567Y0266142
X0789567Y0264173
X0785630Y0266142
X0785630Y0264173
X0787598Y0262205
R11Y-0001968
X0789567Y0262205
R11Y-0001968
X0785630Y0262205
R11Y-0001968
X0047244Y0268425
R02Y0005000
X0047244Y0288425
X0047244Y0293425
X0042126Y0268425
R05Y0005000
X0047244Y0283465
X0066929Y0283465
X0081102Y0284646
X0106299Y0283465
X0263780Y0283465
X0460630Y0283465
X0459577Y0279795
X0474091Y0283711
X0468774Y0285126
X0463461Y0283693
X0459596Y0269165
X0458162Y0274478
X0480315Y0283465
X0500000Y0283465
X0477989Y0279827
X0477756Y0268898
X0479422Y0274515
X0499410Y0287598
X0511024Y0279921
X0562205Y0282678
X0568111Y0269292
X0578740Y0283465
X0691733Y0283859
X0716535Y0283465
X0724485Y0289026
X0719167Y0290441
X0709971Y0285110
X0708556Y0279792
X0713855Y0289008
X0724517Y0270615
X0719204Y0269181
X0716929Y0276772
X0709989Y0274480
X0736220Y0283465
X0728382Y0285142
X0729816Y0279830
X0728150Y0274213
X0755906Y0283465
X0775591Y0283465
X0802842Y0282698
X0807961Y0293508
R02Y-0005000
X0788189Y0290158
X0793701Y0284252
X0799016Y0280709
X0808465Y0275591
R04X-0001969
X0798622Y0275591
R05X-0001968
X0787598Y0274016
R03Y-0001968
X0808465Y0273622
R04X-0001969
X0798622Y0273622
R04X-0001969
X0789567Y0272047
R02Y-0001968
X0808465Y0277559
R04X-0001969
X0798622Y0277559
R06X-0001969
X0785630Y0275984
X0785630Y0274016
X0785630Y0272047
R02Y-0001968
X0824213Y0273622
R07X-0001968
X0047244Y0298425
X0047244Y0308425
X0047244Y0313425
X0047244Y0318425
X0042126Y0298425
R04Y0005000
X0047244Y0303150
X0066929Y0303150
X0087796Y0314764
X0087796Y0311024
X0090748Y0311024
X0090748Y0314764
X0086614Y0303150
X0106299Y0303150
X0125984Y0303150
X0480315Y0303150
X0500000Y0303150
X0492717Y0309646
X0485630Y0300197
X0511615Y0317323
X0511615Y0307087
X0586615Y0298426
X0561024Y0301969
X0612993Y0295276
X0598425Y0303150
X0698819Y0301968
X0777953Y0318308
X0778150Y0310827
X0776968Y0301772
X0807961Y0318508
R04Y-0005000
X0788189Y0319685
X0782087Y0318701
X0787993Y0310040
X0783859Y0310237
X0788780Y0303150
X0785434Y0303741
X0782284Y0302363
X0047244Y0328425
R02Y0005000
X0047244Y0348425
X0042126Y0323425
R05Y0005000
X0047244Y0322835
X0047244Y0342520
X0066929Y0322835
X0097835Y0347638
X0097835Y0343898
X0102166Y0341536
X0086614Y0322835
X0086614Y0342520
X0112796Y0336615
X0116536Y0333859
X0123622Y0337402
X0124606Y0322835
X0283465Y0322835
X0303150Y0322835
X0381890Y0322835
X0500000Y0322835
X0500000Y0342520
X0511811Y0340158
X0561024Y0337796
X0661698Y0333033
X0657480Y0322835
X0699606Y0344488
X0712402Y0345866
X0781300Y0342323
X0777953Y0333662
X0807961Y0348508
R05Y-0005000
X0784449Y0334055
X0785434Y0340945
X0787205Y0325000
X0047244Y0353425
X0047244Y0358425
X0047244Y0368425
X0047244Y0373425
X0042126Y0353425
R04Y0005000
X0047244Y0362205
X0073819Y0353937
X0066929Y0362205
X0086614Y0362205
X0234449Y0373819
X0251772Y0374410
X0502756Y0368504
X0511615Y0367913
X0724804Y0375197
X0727953Y0370473
X0771654Y0377166
X0776770Y0371653
X0782282Y0373228
X0807961Y0358508
X0807961Y0353508
X0047244Y0378425
X0047244Y0388425
X0047244Y0393425
X0047244Y0398425
X0042126Y0378425
R05Y0005000
X0047244Y0381890
X0047244Y0401575
X0075394Y0400591
X0077953Y0397638
X0066929Y0401575
X0112402Y0398229
X0108662Y0398819
X0095473Y0398819
X0100591Y0396457
X0103937Y0399804
X0091142Y0400788
X0086614Y0401575
X0133071Y0378741
X0130906Y0382481
X0131103Y0387402
X0130906Y0396654
X0130512Y0400788
X0118701Y0397638
X0126378Y0397638
X0155119Y0400000
X0157874Y0401575
X0159449Y0404528
X0165354Y0401575
X0171063Y0400788
X0193898Y0390748
X0185039Y0401575
X0209842Y0402362
X0214567Y0381102
X0204724Y0401575
X0251182Y0395670
X0235827Y0396063
X0254724Y0402756
X0299016Y0387599
X0285630Y0395670
X0283465Y0381890
X0303150Y0401575
X0511417Y0396850
X0559055Y0401575
X0720669Y0380906
R02Y0003937
X0716732Y0388780
R02Y-0003937
X0712795Y0388780
R02Y-0003937
X0807961Y0403508
R04Y-0005000
X0788386Y0396457
X0788189Y0393504
X0786024Y0405709
X0047244Y0408425
R02Y0005000
X0047244Y0428425
X0047244Y0433425
X0042126Y0408425
R05Y0005000
X0047244Y0421260
X0080709Y0419292
X0084252Y0426575
X0066929Y0421260
X0109843Y0417717
X0104725Y0418898
X0101182Y0422835
X0093701Y0418504
X0096457Y0415355
X0102363Y0410630
X0111418Y0410630
X0090355Y0412008
X0094292Y0429922
X0089174Y0429922
X0087008Y0424213
X0091221Y0420748
X0110237Y0428544
X0103150Y0428741
X0098819Y0433465
X0086221Y0414961
X0090355Y0407481
X0106299Y0421260
X0119685Y0418111
X0119685Y0410630
X0126378Y0410630
X0133859Y0410630
X0138977Y0414961
X0139370Y0422441
X0136024Y0421654
X0125591Y0422835
X0114764Y0419882
X0114174Y0430709
X0146457Y0414961
X0159843Y0420866
X0162599Y0420866
X0162993Y0431496
X0160237Y0431496
X0162993Y0428741
X0160237Y0428741
X0166142Y0407087
X0160630Y0408859
X0142913Y0413780
X0193307Y0412992
X0184252Y0413386
X0173622Y0412992
X0176969Y0412402
X0188976Y0413386
X0215552Y0428544
X0221260Y0428544
X0245079Y0413189
X0250000Y0412598
X0234056Y0428741
X0224409Y0421260
X0238976Y0430709
X0252953Y0420866
X0253150Y0412796
X0302363Y0413780
X0283071Y0421260
X0300788Y0411418
X0329134Y0414174
X0309449Y0413386
X0320079Y0413386
X0317914Y0407678
X0326575Y0412402
X0338189Y0421654
X0342126Y0429922
X0394095Y0431103
X0396457Y0421654
X0559055Y0421260
X0578740Y0421260
X0802842Y0407698
X0794882Y0427363
X0802842Y0432698
X0802842Y0427698
X0808614Y0433465
X0807961Y0428508
R03Y-0005000
X0789764Y0406890
X0806300Y0406890
X0823614Y0433465
R02X-0005000
X0047244Y0448425
X0047244Y0453425
X0042126Y0438425
R04Y0005000
X0047244Y0440945
X0047244Y0460630
X0079134Y0440945
X0066929Y0440945
X0066929Y0460630
X0092520Y0440945
X0086221Y0445276
X0085827Y0436615
X0110630Y0439961
X0100788Y0437008
X0103347Y0441339
X0104922Y0445276
X0109449Y0449607
X0114961Y0443308
X0133465Y0439764
X0122835Y0442126
X0135040Y0445670
X0137796Y0445670
X0137796Y0442914
X0135040Y0442914
X0114764Y0435434
X0113189Y0457481
X0116142Y0458268
X0129528Y0460237
X0134252Y0459056
X0140355Y0458465
X0137796Y0450197
X0132481Y0449410
X0127953Y0449213
X0166930Y0437402
X0163386Y0438583
X0160630Y0438583
X0160630Y0441733
X0163386Y0441733
X0151969Y0438977
X0149213Y0438977
X0143308Y0445670
X0146063Y0445670
X0140552Y0445670
X0148819Y0442914
X0146063Y0442914
X0140552Y0442914
X0143308Y0442914
X0154331Y0454725
X0147048Y0455119
X0145669Y0460630
X0150394Y0452559
X0153150Y0452559
X0165158Y0443898
X0167913Y0443898
X0172441Y0437796
X0189567Y0442323
X0193308Y0444095
X0213780Y0437796
X0209056Y0460237
X0217717Y0456300
X0215355Y0456300
X0212008Y0459646
X0220079Y0458859
X0197441Y0442323
X0218307Y0438780
X0237008Y0438583
X0242126Y0438583
X0226378Y0438189
X0246063Y0438189
X0254528Y0438386
X0264961Y0438189
X0299804Y0453544
X0324800Y0453200
X0352756Y0453347
X0378544Y0453544
X0388189Y0454725
X0411811Y0455118
X0397441Y0451969
X0753150Y0456496
X0757284Y0461418
X0772835Y0461221
X0796063Y0452756
X0807763Y0438583
X0792913Y0441142
X0795276Y0460630
X0818898Y0458452
R03Y-0005000
X0817763Y0438583
X0812763Y0438583
X0824016Y0458448
R04Y-0005000
X0814961Y0440945
X0814961Y0460630
X0047244Y0463425
R02Y0005000
X0047244Y0483425
X0047244Y0488425
X0042126Y0463425
R05Y0005000
X0047244Y0480315
X0066929Y0480315
X0133859Y0467914
X0151501Y0479242
X0146063Y0484646
X0151501Y0484646
X0156496Y0484646
X0156496Y0479242
X0156496Y0474213
X0146063Y0479242
X0146063Y0474213
X0151501Y0474213
X0167716Y0467323
X0167716Y0464567
X0170472Y0467323
X0170472Y0464567
X0208662Y0464174
X0208800Y0469600
X0211811Y0464370
X0205200Y0480400
X0225600Y0465200
X0225600Y0462800
X0262000Y0469200
X0278741Y0485434
X0276400Y0483200
X0293600Y0471200
X0289200Y0469200
X0302800Y0477200
X0334800Y0476800
X0360433Y0475394
X0340748Y0476994
X0380118Y0475394
X0399803Y0475394
X0618307Y0483661
X0770866Y0470276
X0783268Y0479725
X0795276Y0480315
X0810194Y0486811
X0815194Y0486811
X0818898Y0483452
R04Y-0005000
X0824016Y0488448
R05Y-0005000
X0814961Y0480315
X0047244Y0493425
X0047244Y0503425
X0047244Y0508425
X0047244Y0513425
X0042126Y0493425
R04Y0005000
X0047244Y0500000
X0066929Y0500000
X0322835Y0500000
X0349200Y0498400
X0362205Y0500000
X0362800Y0511600
X0377165Y0499606
X0420866Y0502362
X0519685Y0500000
X0604528Y0502756
X0608071Y0502756
X0618504Y0490945
X0752316Y0513780
R02Y0003937
X0748380Y0521654
R02Y-0003937
X0744443Y0521654
R02Y-0003937
X0808268Y0516439
X0808268Y0511439
X0808268Y0496439
X0823150Y0517520
R02X-0005000
X0810426Y0491929
R02X0005000
X0047244Y0523425
R02Y0005000
X0047244Y0543425
X0042126Y0518425
R05Y0005000
X0047244Y0519685
X0047244Y0539370
X0066929Y0519685
X0066929Y0539370
X0086614Y0519685
X0106299Y0519685
X0135913Y0524890
X0121063Y0540748
X0123425Y0538386
X0123032Y0543111
X0129134Y0525985
X0123425Y0518111
X0139370Y0526378
X0137795Y0518110
X0135039Y0518110
X0127165Y0518110
X0137795Y0520866
X0135039Y0520866
X0127165Y0520866
X0160841Y0543642
X0142500Y0528988
X0163032Y0526750
X0160584Y0526750
X0155360Y0539922
X0155466Y0542284
X0157696Y0542252
X0163011Y0543606
X0160192Y0536322
X0162640Y0536322
X0145669Y0519685
X0145669Y0539370
X0141339Y0539567
X0162836Y0529013
X0150197Y0528150
X0146850Y0522047
X0244094Y0519685
X0339567Y0536811
X0421260Y0519685
X0500000Y0519685
X0696850Y0539370
X0807987Y0522638
X0797244Y0519685
X0818898Y0527554
X0817987Y0522638
X0812987Y0522638
X0824016Y0542444
R04Y-0005000
X0814961Y0539370
X0047244Y0548425
X0047244Y0553425
X0047244Y0563425
R02Y0005000
X0042126Y0548425
R05Y0005000
X0047244Y0559055
X0066929Y0559055
X0068110Y0546457
X0116929Y0562796
X0123819Y0563976
X0123425Y0553150
X0145669Y0559055
X0165354Y0559055
X0182677Y0551181
X0254528Y0555118
X0266142Y0558268
X0275984Y0561024
X0363189Y0568701
X0377953Y0562599
X0370276Y0571457
X0369882Y0561615
X0414800Y0553200
X0403600Y0553200
X0557600Y0568400
X0576179Y0569095
X0573425Y0569094
X0576179Y0566733
X0573425Y0566732
X0574409Y0564173
X0587205Y0564370
X0795276Y0559055
X0818898Y0572554
R04Y-0005000
X0824016Y0572444
R05Y-0005000
X0814961Y0559055
X0067913Y0584842
X0047244Y0583425
X0047244Y0593425
X0042126Y0578425
R04Y0005000
X0047244Y0578740
X0047244Y0598425
X0049932Y0595740
X0053815Y0599637
X0053848Y0581226
X0048517Y0590422
X0049950Y0585110
X0082284Y0587008
X0066929Y0578740
X0068343Y0595772
X0064445Y0599656
X0069776Y0590459
X0064478Y0581244
X0059128Y0601071
X0059165Y0579811
X0086614Y0578740
X0106299Y0578740
X0086614Y0598425
X0106299Y0598425
X0125984Y0578740
X0125984Y0598425
X0146457Y0588583
X0145669Y0578740
X0165354Y0578740
X0145669Y0598425
X0165354Y0598425
X0191733Y0594882
X0169685Y0592520
X0204724Y0578740
X0204724Y0598425
X0224409Y0578740
X0244094Y0578740
X0224409Y0598425
X0244094Y0598425
X0263780Y0598425
X0356890Y0575394
X0366142Y0576378
X0445276Y0598032
X0458268Y0598426
X0448426Y0598032
X0460630Y0598425
X0552800Y0578800
X0553924Y0600208
X0548622Y0579331
X0535434Y0578741
X0539406Y0578591
X0535337Y0600014
X0567717Y0575197
X0576378Y0584055
X0559449Y0599606
X0584800Y0602000
X0611024Y0588583
X0628741Y0588583
X0623228Y0587795
X0647638Y0582678
X0642914Y0588189
X0657480Y0578740
X0649606Y0579537
X0657480Y0598425
X0677165Y0578740
X0696850Y0578740
X0677165Y0598425
X0696850Y0598425
X0716535Y0578740
X0716535Y0598425
X0736220Y0598425
X0775591Y0598425
X0795276Y0578740
X0795276Y0598425
X0797963Y0595937
X0801847Y0599834
X0807159Y0601268
X0801879Y0581423
X0807196Y0580008
X0797982Y0585307
X0796548Y0590619
X0818898Y0597554
X0818898Y0587554
X0818898Y0582554
X0818898Y0577554
X0824016Y0597444
R04Y-0005000
X0814961Y0578740
X0814961Y0598425
X0816374Y0595969
X0817808Y0590656
X0812477Y0599853
X0812509Y0581441
X0052525Y0602362
X0044685Y0604733
X0049023Y0607219
X0054016Y0607480
X0062525Y0602362
R04X0005000
X0059016Y0607480
R05X0005000
X0087525Y0602362
R05X0005000
X0089016Y0607480
R04X0005000
X0117525Y0602362
R04X0005000
X0114016Y0607480
R05X0005000
X0142525Y0602362
R05X0005000
X0144016Y0607480
R04X0005000
X0172525Y0602362
R04X0005000
X0169016Y0607480
R05X0005000
X0197525Y0602362
R05X0005000
X0199016Y0607480
R05X0005000
X0227525Y0602362
R04X0005000
X0229016Y0607480
R04X0005000
X0252525Y0602362
R03X0005000
X0277525Y0602362
X0254016Y0607480
R14X0005000
X0334016Y0607480
X0353325Y0601562
X0358325Y0601562
X0368000Y0601200
X0436000Y0603300
X0474016Y0603150
X0504016Y0607480
R05X0005000
X0532525Y0602362
X0542722Y0603740
X0547525Y0602362
R02X0005000
X0534016Y0607480
R04X0005000
X0562525Y0602362
X0567525Y0602362
X0572441Y0603937
X0577525Y0602362
X0582525Y0602362
X0559016Y0607480
R05X0005000
X0587525Y0602362
R05X0005000
X0589016Y0607480
R05X0005000
X0617525Y0602362
R05X0005000
X0619016Y0607480
R04X0005000
X0647525Y0602362
R04X0005000
X0644016Y0607480
R05X0005000
X0672525Y0602362
R05X0005000
X0674016Y0607480
R04X0005000
X0702525Y0602362
R04X0005000
X0699016Y0607480
R05X0005000
X0727525Y0602362
R05X0005000
X0729016Y0607480
R05X0005000
X0757525Y0602362
R04X0005000
X0759016Y0607480
R04X0005000
X0782525Y0602362
R04X0005000
X0784016Y0607480
R05X0005000
X0822441Y0602559
X0817525Y0602362
X0814016Y0607480
X0818898Y0606496
X0389567Y0010237
X0399410Y0014961
X0399213Y0010434
X0204724Y0027559
X0224409Y0027559
X0404331Y0035827
X0409056Y0047638
X0431890Y0067323
X0446260Y0082678
X0463780Y0087795
X0460630Y0086614
X0403150Y0048032
X0440355Y0084843
X0453150Y0092323
X0464174Y0095866
X0456496Y0092520
X0479922Y0109056
X0449607Y0051182
X0449723Y0046191
X0508268Y0071260
X0508465Y0058465
X0507874Y0081890
X0185039Y0145669
X0696850Y0145669
X0706693Y0145473
X0702756Y0150985
X0236221Y0173819
X0237008Y0180906
X0242717Y0171260
X0251378Y0173819
X0246654Y0171457
X0263977Y0179922
X0249845Y0195907
X0252601Y0195908
X0244333Y0195907
X0244333Y0193151
X0252601Y0193152
X0249845Y0193151
X0249845Y0190395
X0252601Y0190396
X0244333Y0190395
X0249845Y0198663
X0252601Y0198663
X0244333Y0198663
X0247089Y0190395
R03Y0002756
X0238189Y0185827
X0252363Y0210237
X0251969Y0216536
X0237205Y0210434
X0230709Y0207481
X0232678Y0207678
X0231102Y0209449
X0234252Y0205512
X0232087Y0205512
X0229922Y0205512
X0227756Y0205512
X0237008Y0217520
X0237008Y0215158
X0237205Y0212796
X0235040Y0212796
X0234843Y0215158
X0234843Y0217520
X0578740Y0303150
X0593307Y0314961
X0598425Y0342520
X0187599Y0346654
X0189764Y0364174
X0191733Y0369882
X0188386Y0384055
X0175788Y0395079
X0179528Y0392323
X0180709Y0378937
X0178741Y0382874
X0189961Y0352559
X0193701Y0359055
X0788386Y0401182
X0784252Y0401182
X0438780Y0419292
X0802842Y0422698
X0106299Y0480315
X0247600Y0485600
X0640158Y0561417
X0192400Y0404800
X0212824Y0155287
X0767323Y0435039
X0769385Y0434874
X0771354Y0434874
X0769385Y0436843
X0771354Y0436843
X0769385Y0438811
X0771354Y0438811
X0769385Y0440780
X0771354Y0440780
X0771354Y0442748
X0769385Y0442748
X0745669Y0423228
X0747638Y0423228
X0747638Y0421260
R02X-0001969
X0743701Y0423228
X0741732Y0421260
X0741732Y0423228
X0739764Y0421260
X0739764Y0423228
X0747638Y0425197
X0242520Y0206102
X0221422Y0222603
X0249606Y0208268
X0235074Y0220241
X0270940Y0226894
X0253150Y0206890
X0270940Y0210507
X0259449Y0202559
X0778937Y0422441
X0776575Y0422441
X0776575Y0420079
X0778937Y0420079
X0774213Y0420079
X0774213Y0422441
X0774213Y0417717
X0771850Y0417717
X0776575Y0417717
X0778937Y0417717
X0776575Y0415748
X0771850Y0415748
X0774213Y0415748
X0778937Y0415748
X0769882Y0415748
X0769882Y0417717
X0786614Y0387598
X0602592Y0568996
X0601969Y0566930
X0600441Y0545079
X0523600Y0583600
X0272835Y0578543
X0275591Y0578543
X0272835Y0581299
X0275591Y0581299
X0524409Y0595079
X0524409Y0597047
X0601500Y0592989
X0284842Y0527362
X0284842Y0530118
X0282087Y0527362
X0282087Y0530118
X0283858Y0558661
X0286614Y0558661
X0283858Y0560827
X0286614Y0560827
X0526400Y0583600
X0529600Y0583600
X0787992Y0455315
X0790748Y0455315
X0790748Y0452559
X0787992Y0452559
X0790748Y0458228
X0787992Y0458228
X0489002Y0369924
X0491358Y0369924
X0488602Y0365354
X0491358Y0365354
X0491358Y0367710
X0489002Y0367710
X0489002Y0372192
X0491358Y0372192
X0486633Y0367710
X0486633Y0369924
X0486633Y0372192
X0488902Y0374361
X0491258Y0374361
X0787992Y0450197
X0790748Y0450197
X0785630Y0450197
X0782874Y0450197
X0782874Y0452559
X0785630Y0452559
X0785630Y0455315
X0782874Y0455315
X0780512Y0450197
X0777756Y0450197
X0777756Y0452559
X0780512Y0452559
X0780512Y0455315
X0777756Y0455315
X0775394Y0455315
X0775394Y0452559
X0775394Y0450197
X0149661Y0410862
X0152417Y0410862
X0133465Y0526575
X0157589Y0539890
X0160388Y0529013
X0769290Y0377952
T04
X0203754Y0561354
X0206707Y0567259
X0209660Y0561354
X0209660Y0573164
X0212612Y0567259
X0215565Y0573164
X0215565Y0561354
X0218519Y0567259
X0221471Y0561354
X0221471Y0573164
X0224423Y0567259
X0227376Y0573164
X0227376Y0561354
X0230329Y0567259
X0233282Y0561354
X0233282Y0573164
X0236234Y0567259
X0239187Y0573164
X0239187Y0561354
X0628878Y0575829
X0627304Y0578585
X0624154Y0578585
X0622579Y0575829
X0621004Y0578585
X0619430Y0575829
X0616280Y0575829
X0614705Y0578585
X0613130Y0575829
X0611556Y0578585
X0608406Y0578585
X0606831Y0575829
T05
X0653937Y0262205
X0568504Y0343110
X0571850Y0343307
X0428346Y0453150
X0431693Y0453346
X0649606Y0263976
X0696654Y0440945
X0709055Y0422835
X0705512Y0422835
X0701181Y0417717
X0704331Y0417717
X0676772Y0380512
X0676772Y0384449
X0680709Y0384449
X0680709Y0380512
X0678543Y0281890
X0678543Y0285827
X0674606Y0285827
X0674606Y0281890
X0682480Y0281890
R02Y0003937
X0678543Y0289764
X0674606Y0289764
X0111811Y0069685
X0107874Y0069685
X0111811Y0065748
X0107874Y0065748
X0115748Y0069685
X0115748Y0065748
X0192914Y0119095
X0216733Y0124804
X0208662Y0106890
X0221457Y0119685
X0201969Y0114961
X0235630Y0118308
X0167323Y0149410
X0158662Y0145866
X0166732Y0133268
X0162795Y0133268
X0158465Y0133268
X0158465Y0137205
X0166732Y0137205
X0162795Y0137205
X0166732Y0145079
X0162795Y0145079
X0166732Y0141142
X0162795Y0141142
X0171260Y0152559
X0191733Y0150788
X0185630Y0129528
X0170669Y0133268
X0170669Y0137205
X0170669Y0145079
X0170669Y0141142
X0213386Y0150591
X0201200Y0144800
X0213583Y0136418
X0250787Y0152362
X0250394Y0129331
X0250000Y0143111
X0277363Y0138780
X0273819Y0153741
X0277165Y0153740
X0277165Y0150591
X0273819Y0150591
X0254724Y0152362
X0265945Y0150591
X0269291Y0150591
X0269291Y0153740
X0265945Y0153741
X0262598Y0152362
X0258661Y0152362
X0259252Y0143111
X0256299Y0133465
X0300197Y0139961
X0307678Y0132481
X0307678Y0151378
X0282874Y0152756
X0312205Y0142914
X0159449Y0156890
X0175985Y0158465
X0193110Y0178150
X0193110Y0182087
X0193110Y0174213
X0197047Y0178150
X0197047Y0182087
X0197047Y0174213
X0250787Y0160236
X0250787Y0156299
X0254724Y0160236
X0254724Y0156299
X0262598Y0156299
X0262598Y0160236
X0270472Y0165551
X0270472Y0173425
X0270472Y0169488
X0274409Y0165551
X0274409Y0173425
X0274409Y0169488
X0258661Y0156299
X0258661Y0160236
X0308071Y0178740
X0303346Y0170472
X0303346Y0166535
X0307284Y0170669
X0307284Y0174606
X0307284Y0166732
X0312008Y0178740
X0311220Y0170669
X0311220Y0174606
X0311220Y0166732
X0100000Y0205315
X0104331Y0205315
X0191929Y0186811
X0196457Y0191732
X0192520Y0191732
X0280118Y0206693
X0283465Y0206890
X0287008Y0206890
X0292717Y0206693
X0307480Y0183661
X0303543Y0183661
X0307480Y0187598
X0303543Y0187598
X0281890Y0203937
X0285040Y0204134
X0309646Y0203544
X0311417Y0183661
X0311417Y0187598
X0303937Y0231693
X0303937Y0235630
X0291535Y0231496
X0295472Y0231496
X0291535Y0235433
X0295472Y0235433
X0300000Y0231693
X0300000Y0235630
X0307874Y0231693
X0307874Y0235630
X0287598Y0231496
X0287598Y0235433
X0316339Y0231693
X0316339Y0235630
X0312402Y0235630
X0312402Y0231693
X0303740Y0239764
X0295276Y0239567
X0299803Y0239764
X0307677Y0239764
X0287402Y0239567
X0291339Y0239567
X0316142Y0239764
X0312205Y0239764
X0695276Y0275197
R03Y0003937
X0699213Y0275197
R03Y0003937
X0260237Y0175591
X0552800Y0574000
X0536024Y0054134
X0461417Y0054134
X0665551Y0156102
X0665551Y0160039
X0446457Y0487008
X0418489Y0467111
X0446850Y0482284
X0442913Y0487402
X0418489Y0463174
X0209449Y0450787
X0204400Y0498400
X0405118Y0114173
X0414552Y0463174
X0414552Y0467111
X0662598Y0158071
X0419685Y0470276
X0444488Y0484449
X0449804Y0487402
X0172637Y0520729
X0172637Y0516792
X0687008Y0385039
X0118504Y0205512
X0118504Y0209449
X0224606Y0385433
X0176574Y0520729
X0176574Y0516792
X0427953Y0425197
X0176574Y0540158
X0176574Y0536221
X0228543Y0385433
X0228543Y0381496
X0224606Y0381496
X0427953Y0421260
X0424016Y0421260
X0424016Y0425197
X0547244Y0067323
X0547244Y0063386
X0543307Y0063386
X0543307Y0067323
X0687008Y0388976
X0212205Y0412598
X0216142Y0412598
X0216142Y0408661
X0212205Y0408661
X0577559Y0374606
X0286220Y0180315
X0290158Y0180315
X0286220Y0176378
X0290158Y0176378
X0286220Y0184252
X0290158Y0184252
X0294094Y0180315
X0294094Y0184252
X0294094Y0176378
X0286220Y0168504
X0286220Y0172441
X0294094Y0168504
X0294094Y0172441
X0290158Y0168504
X0290158Y0172441
X0213995Y0184633
X0212795Y0189370
X0212795Y0193307
X0204921Y0193307
X0208858Y0193307
X0208858Y0189370
X0204921Y0189370
X0210058Y0184633
X0206121Y0184633
X0347638Y0376378
X0355512Y0376378
X0351575Y0376378
X0359449Y0376378
X0347638Y0384252
X0347638Y0380315
X0359449Y0380315
X0359449Y0384252
X0351575Y0380315
X0355512Y0380315
X0355512Y0384252
X0351575Y0384252
X0299016Y0215748
X0299016Y0211811
X0310827Y0211811
X0302953Y0211811
X0306890Y0211811
X0302953Y0215748
R03X0003937
X0314764Y0211811
X0318701Y0215748
X0318701Y0211811
X0322638Y0215748
X0322638Y0211811
X0367323Y0376378
X0363386Y0376378
X0363386Y0384252
X0363386Y0380315
X0367323Y0384252
X0367323Y0380315
X0371260Y0380315
X0371260Y0384252
X0371260Y0376378
X0314764Y0203937
X0314764Y0207874
X0322638Y0203937
X0322638Y0207874
X0318701Y0203937
X0318701Y0207874
X0326575Y0207874
X0326575Y0203937
X0326575Y0211811
X0326575Y0215748
X0330512Y0215748
X0330512Y0211811
X0330512Y0203937
X0330512Y0207874
T06
X0569389Y0587874
X0550296Y0587874
T07
X0120750Y0433470
X0110907Y0433470
X0103033Y0433470
X0093190Y0433470
X0091222Y0426385
R04X0007874
T08
X0080914Y0226853
R02Y-0009843
T09
X0236234Y0548756
X0226392Y0548756
X0218519Y0548756
X0208675Y0548756
X0393926Y0013158
R02X0009800
T10
X0446746Y0018267
X0446746Y0008267
X0456746Y0018232
X0456746Y0008232
X0466746Y0018232
X0466746Y0008232
X0476747Y0018232
X0476747Y0008232
X0486746Y0018232
X0486746Y0008232
X0496747Y0018232
X0496747Y0008232
X0506746Y0018232
X0506746Y0008232
X0516746Y0018232
X0516746Y0008232
X0526747Y0018232
X0526747Y0008232
X0536746Y0018232
X0536746Y0008232
T11
X0117332Y0379958
X0107332Y0374958
X0117332Y0369958
X0107332Y0364958
X0117332Y0359958
X0107332Y0354958
X0117332Y0349958
X0107332Y0344958
X0117332Y0339958
X0107332Y0334958
X0063041Y0383521
X0063041Y0373521
X0063041Y0341355
X0063041Y0331355
T12
X0090194Y0484026
X0090194Y0493869
X0090194Y0501742
X0090194Y0511585
X0100510Y0484026
X0100510Y0493869
X0100510Y0501742
X0100510Y0511585
X0103303Y0558721
X0113146Y0558721
X0121020Y0558721
X0130862Y0558721
X0103303Y0548406
X0113146Y0548406
X0121020Y0548406
X0130862Y0548406
T13
X0142362Y0035984
X0162362Y0035984
X0142362Y0015984
X0162362Y0015984
X0163780Y0025984
X0140945Y0025984
X0091181Y0035984
X0111181Y0035984
X0091181Y0015984
X0111181Y0015984
X0112599Y0025984
X0089764Y0025984
X0244724Y0035984
X0264724Y0035984
X0244724Y0015984
X0264724Y0015984
X0266142Y0025984
X0243307Y0025984
X0193543Y0035984
X0213543Y0035984
X0193543Y0015984
X0213543Y0015984
X0214961Y0025984
X0192126Y0025984
X0295905Y0035984
X0315906Y0035984
X0295905Y0015984
X0315906Y0015984
X0317323Y0025984
X0294488Y0025984
X0536746Y0040997
X0536746Y0030997
X0526746Y0040997
X0526746Y0030997
X0516746Y0040997
X0516746Y0030997
X0506746Y0040997
X0506746Y0030997
X0496746Y0040997
X0496746Y0030997
X0486746Y0040997
X0486746Y0030997
X0476746Y0040997
X0476746Y0030997
X0466746Y0040997
X0466746Y0030997
X0456746Y0040997
X0456746Y0030997
X0446746Y0040997
X0446746Y0030997
X0436746Y0040997
X0436746Y0030997
X0426746Y0040997
X0426746Y0030997
X0416746Y0040997
X0416746Y0030997
X0406746Y0040997
X0406746Y0030997
X0396746Y0040997
X0396746Y0030997
X0386746Y0040997
X0386746Y0030997
X0376746Y0040997
X0376746Y0030997
X0366746Y0040997
X0366746Y0030997
X0356746Y0040997
X0356746Y0030997
X0346746Y0040997
X0346746Y0030997
X0617247Y0010993
R02Y0010000
T14
X0184561Y0558598
X0260152Y0558598
X0184561Y0594031
X0260152Y0594031
T15
X0094340Y0326946
X0094340Y0387930
T16
X0055571Y0150473
T17
X0090793Y0280845
X0122289Y0261160
X0130163Y0280845
T18
X0101887Y0471939
X0079525Y0471939
X0079525Y0523672
X0101887Y0523672
X0091217Y0547028
X0091217Y0569391
X0142949Y0569391
X0142949Y0547028
T19
X0082332Y0379938
X0082332Y0334938
T20
X0059055Y0019685
X0059055Y0590551
X0398269Y0068000
X0807087Y0590551
X0807087Y0019685
X0806668Y0068000
T21
X0563031Y0026502
X0591574Y0026502
T22
X0632028Y0573270
T23
X0152362Y0035984
X0101181Y0035984
X0254724Y0035984
X0203543Y0035984
X0305906Y0035984
T24
X0445863Y0464998
T25
X0763291Y0568786
X0763291Y0596345
T26
X0768698Y0464998
T27
X0090793Y0295215
X0116384Y0280845
X0090793Y0266475
T28
X0194010Y0577102
X0250703Y0577102
T29
X0065166Y0231578
X0065166Y0202444
M30
