M48
INCH
T01C.017709
T02C.019
T03C.023618
T04C.025
T05C.027559
T06C.031488
T07C.031488
T08C.035433
;EXTENTS: -41.845 -38.071 50.050  49.804  
;LEADER: 12 
;HEADER: 
;CODE  : ASCII 
;FILE  : F:/fzb/word/11/RK_EXCAVATOR_MAIN/pcb/1114/gerber/RK_EXCAVATOR_MAIN_V12_20161111_FZBFINAL.rou for board #Taaaaam10804.tmp
%
G90
F1
M16
T05
M16
G00X0084529Y0419259
G40
M15
G01X0087285Y0419259
M16
T06
M16
G00X0083348Y0442171
G41
M15
G03X0083348Y0439022A0001575
G01X0088466Y0439022
G03X0088466Y0442171A0001575
G01X0083348Y0442171
M16
T05
M16
G00X0126655Y0440596
G40
M15
G01X0129411Y0440596
M16
T06
M16
G00X0125474Y0420833
G41
M15
G03X0125474Y0417684A0001575
G01X0130592Y0417684
G03X0130592Y0420833A0001575
G01X0125474Y0420833
M16
T01
M16
G00X0545768Y0597342
G40
M15
G01X0545768Y0599902
M16
G00X0573917Y0597342
G40
M15
G01X0573917Y0599902
M16
T08
M16
G00X0720472Y0594371
G40
M15
G01X0720472Y0597520
M16
G00X0663385Y0594371
G40
M15
G01X0663385Y0597520
M16
G00X0663385Y0568937
G40
M15
G01X0663385Y0576024
M16
G00X0720472Y0568937
G40
M15
G01X0720472Y0576024
M16
T06
M16
G00X0098335Y0067740
G41
M15
G03X0098335Y0064591A0001575
G01X0101091Y0064591
G03X0101091Y0067740A0001575
G01X0098335Y0067740
M16
G00X0098335Y0087425
G41
M15
G03X0098335Y0084276A0001575
G01X0101091Y0084276
G03X0101091Y0087425A0001575
G01X0098335Y0087425
M16
G00X0098335Y0107110
G41
M15
G03X0098335Y0103961A0001575
G01X0101091Y0103961
G03X0101091Y0107110A0001575
G01X0098335Y0107110
M16
T04
M16
G00X0603081Y0573270
G40
M15
G01X0604282Y0573270
M16
T02
M16
G00X0634115Y0576992
G40
M15
G01X0634115Y0579391
M16
G00X0601595Y0576992
G40
M15
G01X0601595Y0579391
M16
G00X0635453Y0600417
G40
M15
G01X0635453Y0602816
M16
G00X0600256Y0600417
G40
M15
G01X0600256Y0602816
M16
T03
M16
G00X0048484Y0135906
G40
M15
G01X0053996Y0135906
M16
G00X0048484Y0174489
G40
M15
G01X0053996Y0174489
M16
T06
M16
G00X0077618Y0170945
G40
M15
G01X0082343Y0170945
M16
G00X0077618Y0150473
G40
M15
G01X0082343Y0150473
M16
G00X0077618Y0137875
G40
M15
G01X0082343Y0137875
M16
G40
M30
