G04 ================== begin FILE IDENTIFICATION RECORD ==================*
G04 Layout Name:  RK_EXCAVATOR_MAIN_V12_20161111_FZBFINAL.brd*
G04 Film Name:    solde_top*
G04 File Format:  Gerber RS274X*
G04 File Origin:  Cadence Allegro 16.6-S050*
G04 Origin Date:  Mon Nov 14 11:45:56 2016*
G04 *
G04 Layer:  VIA CLASS/SOLDERMASK_TOP*
G04 Layer:  PIN/SOLDERMASK_TOP*
G04 Layer:  PACKAGE GEOMETRY/SOLDERMASK_TOP*
G04 Layer:  BOARD GEOMETRY/OUTLINE*
G04 Layer:  BOARD GEOMETRY/SOLDERMASK_TOP*
G04 *
G04 Offset:    (0.000 0.000)*
G04 Mirror:    No*
G04 Mode:      Positive*
G04 Rotation:  0*
G04 FullContactRelief:  No*
G04 UndefLineWidth:     1.575*
G04 ================== end FILE IDENTIFICATION RECORD ====================*
%FSLAX25Y25*MOIN*%
%IR0*IPPOS*OFA0.00000B0.00000*MIA0B0*SFA1.00000B1.00000*%
%ADD64R,.066929X.059055*%
%AMMACRO138*
4,1,9,-.012524,-.008142,
-.009024,-.008142,
-.008874,-.008142,
-.000071,-.016929,
.008717,-.008142,
.009878,-.008142,
.012528,-.008142,
.012528,.016929,
-.012524,.016929,
-.012524,-.008142,
0.0*
%
%ADD138MACRO138*%
%ADD29R,.059055X.066929*%
%AMMACRO84*
4,1,9,-.008142,.012524,
-.008142,.009024,
-.008142,.008874,
-.016929,.000071,
-.008142,-.008717,
-.008142,-.009878,
-.008142,-.012528,
.016929,-.012528,
.016929,.012524,
-.008142,.012524,
0.0*
%
%ADD84MACRO84*%
%ADD35O,.102362X.051181*%
%ADD102C,.220472*%
%ADD61C,.100394*%
%ADD20C,.141732*%
%ADD24O,.102362X.074803*%
%ADD10C,.240157*%
%ADD28C,.161417*%
%ADD19O,.110236X.059055*%
%ADD90R,.301181X.08465*%
%ADD73R,.114173X.114173*%
%ADD25R,.222043X.086614*%
%ADD134R,.141732X.141732*%
%AMMACRO81*
4,1,8,-.048217,.003689,
-.048217,.025807,
.048213,.025807,
.048213,.003669,
.047205,.003669,
.047205,-.025811,
.029516,-.025811,
.029516,.003689,
-.048217,.003689,
0.0*
%
%ADD81MACRO81*%
%ADD121O,.062992X.102362*%
%ADD77R,.090551X.240157*%
%AMMACRO74*
4,1,8,.003689,.048217,
.025807,.048217,
.025807,-.048213,
.003669,-.048213,
.003669,-.047205,
-.025811,-.047205,
-.025811,-.029516,
.003689,-.029516,
.003689,.048217,
0.0*
%
%ADD74MACRO74*%
%ADD39R,.102362X.062992*%
%AMMACRO87*
4,1,8,.048327,-.047539,
.048327,-.024681,
.053169,-.024681,
.053169,.047539,
-.053173,.047539,
-.053173,-.02161,
.028598,-.02161,
.028598,-.047539,
.048327,-.047539,
0.0*
%
%ADD87MACRO87*%
%AMMACRO56*
4,1,8,-.047539,-.048327,
-.024681,-.048327,
-.024681,-.053169,
.047539,-.053169,
.047539,.053173,
-.02161,.053173,
-.02161,-.028598,
-.047539,-.028598,
-.047539,-.048327,
0.0*
%
%ADD56MACRO56*%
%ADD15C,.125984*%
%ADD120O,.062992X.141732*%
%ADD52R,.151575X.151575*%
%ADD18C,.137795*%
%ADD44R,.177165X.177165*%
%AMMACRO86*
4,1,9,.017094,-.01252,
.017094,.01252,
-.007846,.01252,
-.007846,.009209,
-.007846,.00902,
-.017094,-.000232,
-.007846,-.00948,
-.007846,-.009661,
-.007846,-.01252,
.017094,-.01252,
0.0*
%
%ADD86MACRO86*%
%AMMACRO37*
4,1,9,.01252,.017094,
-.01252,.017094,
-.01252,-.007846,
-.009209,-.007846,
-.00902,-.007846,
.000232,-.017094,
.00948,-.007846,
.009661,-.007846,
.01252,-.007846,
.01252,.017094,
0.0*
%
%ADD37MACRO37*%
%ADD124R,.015748X.106299*%
%ADD34R,.137795X.055118*%
%ADD145R,.145669X.031496*%
%ADD12O,.141728X.062988*%
%AMMACRO80*
4,1,9,.008142,-.012524,
.008142,-.009024,
.008142,-.008874,
.016929,-.000071,
.008142,.008717,
.008142,.009878,
.008142,.012528,
-.016929,.012528,
-.016929,-.012524,
.008142,-.012524,
0.0*
%
%ADD80MACRO80*%
%AMMACRO38*
4,1,9,.012524,.008142,
.009024,.008142,
.008874,.008142,
.000071,.016929,
-.008717,.008142,
-.009878,.008142,
-.012528,.008142,
-.012528,-.016929,
.012524,-.016929,
.012524,.008142,
0.0*
%
%ADD38MACRO38*%
%ADD13O,.141728X.074799*%
%ADD63R,.02362X.02244*%
%ADD57R,.02244X.02362*%
%ADD105O,.06102X.08661*%
%ADD42O,.035433X.011811*%
%ADD126R,.122047X.141732*%
%ADD58C,.023622*%
%ADD144R,.141732X.122047*%
%ADD43R,.035433X.011811*%
%ADD41R,.011811X.035433*%
%ADD79C,.043307*%
%ADD47R,.030709X.011811*%
%ADD67R,.011811X.030709*%
%ADD66C,.01378*%
%ADD11C,.090551*%
%ADD30C,.047244*%
%ADD123R,.021654X.04626*%
%ADD122R,.04626X.021654*%
%ADD72R,.011811X.031496*%
%ADD71R,.031496X.011811*%
%ADD23C,.074803*%
%ADD22C,.03937*%
%ADD16R,.023622X.023622*%
%ADD92O,.01378X.033465*%
%ADD69C,.028346*%
%ADD65R,.045276X.061024*%
%ADD17C,.063941*%
%ADD131O,.017717X.035433*%
%ADD125R,.043307X.043307*%
%ADD100R,.122047X.206693*%
%ADD91R,.023622X.03937*%
%ADD53R,.061024X.045276*%
%ADD99C,.082681*%
%ADD75R,.021654X.021654*%
%ADD36R,.047244X.035433*%
%ADD139R,.037402X.045276*%
%ADD129R,.051181X.059055*%
%ADD117C,.029528*%
%ADD110R,.023622X.015748*%
%ADD109R,.015748X.023622*%
%ADD93R,.01378X.033465*%
%ADD49R,.03937X.035433*%
%ADD26R,.055118X.041339*%
%ADD21R,.035433X.047244*%
%ADD142O,.055118X.017717*%
%ADD133R,.035433X.017717*%
%ADD132R,.017717X.035433*%
%ADD127R,.045276X.037402*%
%ADD115R,.023622X.015748*%
%ADD103R,.01772X.049209*%
%ADD46R,.035433X.03937*%
%ADD45R,.059055X.051181*%
%ADD40R,.041339X.055118*%
%ADD70C,.063937*%
%ADD14C,.062992*%
%ADD130R,.074803X.074803*%
%ADD98C,.073937*%
%ADD95R,.03937X.03937*%
%ADD89R,.031496X.01378*%
%ADD88R,.01378X.031496*%
%ADD78R,.055118X.031496*%
%AMMACRO62*
4,1,8,-.048327,.047539,
-.048327,.024681,
-.053169,.024681,
-.053169,-.047539,
.053173,-.047539,
.053173,.02161,
-.028598,.02161,
-.028598,.047539,
-.048327,.047539,
0.0*
%
%ADD62MACRO62*%
%ADD59R,.035433X.041929*%
%ADD50R,.041339X.017717*%
%ADD27R,.025591X.025591*%
%ADD147R,.041929X.035433*%
%ADD143R,.055118X.017717*%
%ADD119R,.015748X.01378*%
%ADD97R,.122047X.125988*%
%ADD51R,.017717X.041339*%
%ADD33R,.063941X.063941*%
%ADD118R,.01378X.015748*%
%ADD60R,.029528X.035433*%
%ADD135R,.027559X.035433*%
%ADD96R,.031496X.03937*%
%ADD32C,.066929*%
%ADD136R,.035433X.027559*%
%ADD113R,.01378X.027559*%
%ADD112R,.027559X.01378*%
%ADD106R,.043307X.019685*%
%ADD54O,.047244X.027559*%
%ADD146R,.082677X.035433*%
%ADD141R,.03937X.015748*%
%ADD116O,.03937X.062992*%
%ADD114R,.015748X.031496*%
%ADD111O,.027559X.012795*%
%ADD55R,.047244X.027559*%
%ADD48R,.033465X.019685*%
%AMMACRO137*
4,1,9,-.01252,-.017094,
.01252,-.017094,
.01252,.007846,
.009209,.007846,
.00902,.007846,
-.000232,.017094,
-.00948,.007846,
-.009661,.007846,
-.01252,.007846,
-.01252,-.017094,
0.0*
%
%ADD137MACRO137*%
%ADD85R,.082677X.082677*%
%ADD68R,.019685X.033465*%
%ADD101R,.017717X.098425*%
%AMMACRO83*
4,1,9,-.017094,.01252,
-.017094,-.01252,
.007846,-.01252,
.007846,-.009209,
.007846,-.00902,
.017094,.000232,
.007846,.00948,
.007846,.009661,
.007846,.01252,
-.017094,.01252,
0.0*
%
%ADD83MACRO83*%
%ADD82R,.098425X.042756*%
%ADD31O,.082677X.059055*%
%ADD140R,.045276X.076772*%
%ADD108R,.027559X.012795*%
%ADD107R,.012795X.027559*%
%ADD94R,.066929X.066929*%
%ADD76R,.042756X.098425*%
%ADD128R,.076772X.045276*%
%ADD104O,.049209X.062988*%
%ADD148C,.001575*%
G75*
%LPD*%
G75*
G54D100*
X434052Y467950D03*
X780509D03*
G54D101*
X449800Y449446D03*
X451768D03*
X453737D03*
X455706D03*
X457674D03*
X459642D03*
X461611D03*
X463580D03*
X465548D03*
X471453D03*
X450784Y479565D03*
X452753D03*
X454721D03*
X456690D03*
X458658D03*
X460627D03*
X462595D03*
X464564D03*
X466532D03*
X473422Y449446D03*
X475390D03*
X477359D03*
X479327D03*
X481296D03*
X483265D03*
X485233D03*
X487202D03*
X489170D03*
X491138D03*
X493107D03*
X495076D03*
X497044D03*
X499013D03*
X472438Y479565D03*
X474406D03*
X476375D03*
X478343D03*
X480312D03*
X482280D03*
X484249D03*
X486217D03*
X488186D03*
X490154D03*
X492123D03*
X494091D03*
X496060D03*
X498028D03*
X500981Y449446D03*
X502950D03*
X504918D03*
X506887D03*
X508855D03*
X510824D03*
X512792D03*
X514761D03*
X516729D03*
X518698D03*
X520666D03*
X522635D03*
X524603D03*
X526572D03*
X499997Y479565D03*
X501965D03*
X503934D03*
X505902D03*
X507871D03*
X509839D03*
X511808D03*
X513776D03*
X515745D03*
X517713D03*
X519682D03*
X521650D03*
X523619D03*
X525587D03*
X527556D03*
X528540Y449446D03*
X530509D03*
X532477D03*
X534446D03*
X536414D03*
X538383D03*
X540351D03*
X542320D03*
X544288D03*
X546257D03*
X548225D03*
X550194D03*
X552162D03*
X554131D03*
X529524Y479565D03*
X531493D03*
X533461D03*
X535430D03*
X537398D03*
X539367D03*
X541335D03*
X543304D03*
X545272D03*
X547241D03*
X549209D03*
X551178D03*
X553146D03*
X555115D03*
X556099Y449446D03*
X558068D03*
X560036D03*
X562005D03*
X563973D03*
X565942D03*
X567910D03*
X569879D03*
X571847D03*
X573816D03*
X575784D03*
X577753D03*
X579721D03*
X581690D03*
X557083Y479565D03*
X559052D03*
X561020D03*
X562989D03*
X564957D03*
X566926D03*
X568894D03*
X570863D03*
X572831D03*
X574800D03*
X576768D03*
X578737D03*
X580706D03*
X582674D03*
X583658Y449446D03*
X585627D03*
X587595D03*
X589564D03*
X591532D03*
X593501D03*
X595469D03*
X597438D03*
X599406D03*
X601375D03*
X603343D03*
X605312D03*
X607280D03*
X609249D03*
X611217D03*
X584642Y479565D03*
X586611D03*
X588580D03*
X590548D03*
X592516D03*
X594485D03*
X596454D03*
X598422D03*
X600390D03*
X602359D03*
X604328D03*
X606296D03*
X608264D03*
X610233D03*
X619091Y449446D03*
X621060D03*
X623028D03*
X624997D03*
X626965D03*
X628934D03*
X630902D03*
X632871D03*
X634839D03*
X636808D03*
X638776D03*
X620076Y479565D03*
X622044D03*
X624013D03*
X625981D03*
X627950D03*
X629918D03*
X631887D03*
X633855D03*
X635824D03*
X637792D03*
X640745Y449446D03*
X642713D03*
X644682D03*
X646650D03*
X648619D03*
X650587D03*
X652556D03*
X654524D03*
X656493D03*
X658461D03*
X660430D03*
X662398D03*
X664367D03*
X666335D03*
X639761Y479565D03*
X641729D03*
X643698D03*
X645666D03*
X647635D03*
X649603D03*
X651572D03*
X653540D03*
X655509D03*
X657477D03*
X659446D03*
X661414D03*
X663383D03*
X665351D03*
X668304Y449446D03*
X670272D03*
X672241D03*
X674209D03*
X676178D03*
X678146D03*
X680115D03*
X682083D03*
X684052D03*
X686020D03*
X687989D03*
X689957D03*
X691926D03*
X693894D03*
X667320Y479565D03*
X669288D03*
X671257D03*
X673225D03*
X675194D03*
X677162D03*
X679131D03*
X681099D03*
X683068D03*
X685036D03*
X687005D03*
X688973D03*
X690942D03*
X692910D03*
X694879D03*
X695863Y449446D03*
X697831D03*
X699800D03*
X701768D03*
X703737D03*
X705706D03*
X707674D03*
X709642D03*
X711611D03*
X713580D03*
X715548D03*
X717516D03*
X719485D03*
X721454D03*
X696847Y479565D03*
X698816D03*
X700784D03*
X702753D03*
X704721D03*
X706690D03*
X708658D03*
X710627D03*
X712595D03*
X714564D03*
X716532D03*
X718501D03*
X720469D03*
X722438D03*
X723422Y449446D03*
X725390D03*
X727359D03*
X729328D03*
X731296D03*
X733264D03*
X735233D03*
X737202D03*
X739170D03*
X741138D03*
X743107D03*
X745076D03*
X747044D03*
X749013D03*
X724406Y479565D03*
X726375D03*
X728343D03*
X730312D03*
X732280D03*
X734249D03*
X736217D03*
X738186D03*
X740154D03*
X742123D03*
X744091D03*
X746060D03*
X748028D03*
X749997D03*
X750981Y449446D03*
X752950D03*
X754918D03*
X756887D03*
X758855D03*
X760824D03*
X762792D03*
X764761D03*
X751965Y479565D03*
X753934D03*
X755902D03*
X757871D03*
X759839D03*
X761808D03*
X763776D03*
G54D110*
X595354Y322155D03*
Y320187D03*
X602441D03*
Y322155D03*
G54D111*
X587831Y331814D03*
G54D120*
X663385Y572480D03*
X720472D03*
G54D102*
X563031Y26502D03*
X591574D03*
G54D112*
X590368Y373161D03*
Y371193D03*
Y369224D03*
X598636D03*
Y371193D03*
Y373161D03*
G54D130*
X722441Y325459D03*
Y335459D03*
Y345459D03*
X738189D03*
Y335459D03*
Y325459D03*
G54D103*
X554724Y588445D03*
X564961D03*
X562402D03*
X559843D03*
X557283D03*
G54D121*
X663385Y595945D03*
X720472D03*
G54D10*
X59055Y19685D03*
Y590551D03*
X398268Y68000D03*
X807087Y19685D03*
X806669Y68000D03*
X807087Y590551D03*
G54D104*
X550296Y587874D03*
X569389D03*
G54D140*
X772283Y210843D03*
X782204D03*
G54D113*
X591549Y366075D03*
X593517D03*
X595486D03*
X597454D03*
Y376311D03*
X595486D03*
X593517D03*
X591549D03*
G54D131*
X708372Y375594D03*
G54D122*
X671739Y177165D03*
Y173622D03*
Y170079D03*
Y166536D03*
Y162992D03*
Y198425D03*
Y194882D03*
Y191339D03*
Y187795D03*
Y184252D03*
Y180709D03*
X728333Y162992D03*
Y166536D03*
Y170079D03*
Y173622D03*
Y177165D03*
Y180709D03*
Y184252D03*
Y187795D03*
Y191339D03*
Y194882D03*
Y198425D03*
G54D11*
X55571Y150473D03*
X94340Y326946D03*
Y387930D03*
G54D20*
X79525Y471939D03*
Y523672D03*
X101887Y471939D03*
Y523672D03*
X91217Y547028D03*
Y569391D03*
X142949Y547028D03*
Y569391D03*
G54D114*
X610965Y570672D03*
X608996D03*
X607028D03*
X628682D03*
X626713D03*
X624744D03*
X622776D03*
X620808D03*
X618839D03*
X616870D03*
X614902D03*
X612933D03*
G54D141*
X755720Y356820D03*
Y358788D03*
Y360757D03*
Y362725D03*
Y364694D03*
X763594D03*
Y362725D03*
Y360757D03*
Y358788D03*
Y356820D03*
G54D132*
X710341Y375594D03*
X712309D03*
X714278D03*
X716246D03*
X718215D03*
X720183D03*
X722152D03*
Y394612D03*
X720183D03*
X718215D03*
X716246D03*
X714278D03*
X712309D03*
X710341D03*
X708372D03*
G54D21*
X71940Y541879D03*
X75680Y550541D03*
X68200D03*
X94554Y460160D03*
X87073D03*
X90813Y451498D03*
X116626Y525009D03*
X124106D03*
X120366Y533671D03*
X152781Y289508D03*
X145301D03*
X149041Y280845D03*
X202766Y121181D03*
X210246D03*
X206506Y129843D03*
X202766Y136447D03*
X210246D03*
X206506Y145109D03*
X579902Y364463D03*
X572422D03*
X576162Y355801D03*
X561006Y570156D03*
X564746Y578818D03*
X557266D03*
G54D123*
X677005Y156348D03*
X680548D03*
X684091D03*
X687635D03*
X691178D03*
X694721D03*
Y205069D03*
X691178D03*
X687635D03*
X684091D03*
X680548D03*
X677005D03*
X698265Y156348D03*
X701808D03*
X705351D03*
X708894D03*
X712438D03*
X715981D03*
X719524D03*
X723068D03*
Y205069D03*
X719524D03*
X715981D03*
X712438D03*
X708894D03*
X705351D03*
X701808D03*
X698265D03*
G54D30*
X91222Y426385D03*
X99096D03*
X106970D03*
X110907Y433470D03*
X103033D03*
X93190D03*
X114844Y426385D03*
X122718D03*
X120750Y433470D03*
G54D105*
X545768Y598622D03*
X573917D03*
G54D12*
X51240Y135906D03*
Y174489D03*
G54D31*
X85907Y419259D03*
X128033Y440596D03*
G54D106*
X576628Y313604D03*
Y311242D03*
Y308880D03*
X585486D03*
Y311242D03*
Y313604D03*
G54D40*
X152000Y141406D03*
X158496D03*
X160841Y539890D03*
X167337D03*
X202101Y186661D03*
X195605D03*
X270374Y527439D03*
X276870D03*
X270374Y535630D03*
X276870D03*
X427264Y13386D03*
X433760D03*
X787774Y519307D03*
X794270D03*
G54D115*
X604548Y567168D03*
X631122D03*
X622776D03*
X612933D03*
G54D133*
X705753Y391993D03*
Y390024D03*
Y388056D03*
Y386087D03*
Y384119D03*
Y382150D03*
Y380182D03*
Y378213D03*
X724771D03*
Y380182D03*
Y382150D03*
Y384119D03*
Y386087D03*
Y388056D03*
Y390024D03*
Y391993D03*
G54D142*
X772302Y540710D03*
Y538150D03*
Y535591D03*
X789624D03*
Y538150D03*
Y540710D03*
Y543269D03*
G54D22*
X101181Y35984D03*
X152362D03*
X203543D03*
X254724D03*
X305906D03*
G54D13*
X79980Y137875D03*
Y150473D03*
Y170945D03*
G54D124*
X674213Y569488D03*
X676182D03*
X678150D03*
X680118D03*
X682087D03*
X684056D03*
X686024D03*
X687992D03*
X689961D03*
X691930D03*
X693898D03*
X695866D03*
X697835D03*
X699804D03*
X701772D03*
X703741D03*
X705709D03*
X707678D03*
X709646D03*
G54D107*
X582682Y341687D03*
X581108D03*
X579534D03*
X577958D03*
Y329815D03*
X579534D03*
X581108D03*
X582682D03*
X585832Y341687D03*
X584257D03*
Y329815D03*
X585832D03*
G54D116*
X601595Y578191D03*
X600256Y601617D03*
X634115Y578191D03*
X635453Y601617D03*
G54D32*
X100510Y484026D03*
X90195D03*
X100510Y511585D03*
Y501742D03*
Y493869D03*
X90195Y511585D03*
Y501742D03*
Y493869D03*
X103303Y548406D03*
Y558721D03*
X130862Y548406D03*
X121020D03*
X113146D03*
X130862Y558721D03*
X121020D03*
X113146D03*
G54D143*
X772302Y543269D03*
G54D50*
X140477Y485148D03*
Y483179D03*
Y481211D03*
Y479242D03*
Y477273D03*
Y475305D03*
Y473336D03*
Y471368D03*
X162525D03*
Y473336D03*
Y475305D03*
Y477273D03*
Y479242D03*
Y481211D03*
Y483179D03*
Y485148D03*
X140477Y487116D03*
X162525D03*
G54D14*
X80914Y207168D03*
Y226853D03*
Y217011D03*
G54D125*
X705118Y33858D03*
X793189Y191339D03*
G54D23*
X89764Y25984D03*
X91181Y15984D03*
X111181D03*
Y35984D03*
X91181D03*
X112598Y25984D03*
X140945D03*
X163780D03*
X142362Y15984D03*
X162362D03*
Y35984D03*
X142362D03*
X192126Y25984D03*
X193543Y15984D03*
Y35984D03*
X214961Y25984D03*
X213543Y15984D03*
Y35984D03*
X243307Y25984D03*
X244724Y15984D03*
Y35984D03*
X266142Y25984D03*
X264724Y15984D03*
Y35984D03*
X294488Y25984D03*
X295906Y15984D03*
Y35984D03*
X317323Y25984D03*
X315906Y15984D03*
Y35984D03*
X356746Y40997D03*
Y30997D03*
X346746Y40997D03*
Y30997D03*
X386746Y40997D03*
Y30997D03*
X376746Y40997D03*
Y30997D03*
X366746Y40997D03*
Y30997D03*
X416746Y40997D03*
Y30997D03*
X406746Y40997D03*
Y30997D03*
X396746Y40997D03*
Y30997D03*
X446746Y40997D03*
Y30997D03*
X436746Y40997D03*
Y30997D03*
X426746Y40997D03*
Y30997D03*
X466746Y40997D03*
Y30997D03*
X456746Y40997D03*
Y30997D03*
X496746Y40997D03*
Y30997D03*
X486746Y40997D03*
Y30997D03*
X476746Y40997D03*
Y30997D03*
X526746Y40997D03*
Y30997D03*
X516746Y40997D03*
Y30997D03*
X506746Y40997D03*
Y30997D03*
X536746Y40997D03*
Y30997D03*
X617247Y10993D03*
Y20993D03*
Y30993D03*
G54D41*
X150471Y344827D03*
X152045D03*
X153620D03*
X155195D03*
X156770D03*
X158345D03*
X159919D03*
X161494D03*
X163069D03*
X164644D03*
Y368449D03*
X163069D03*
X161494D03*
X159919D03*
X158345D03*
X156770D03*
X155195D03*
X153620D03*
X152045D03*
X150471D03*
X166219Y344827D03*
X167793D03*
Y368449D03*
X166219D03*
G54D134*
X715262Y385103D03*
G54D108*
X575960Y339688D03*
Y338113D03*
Y336538D03*
Y334964D03*
Y333389D03*
Y331814D03*
X587831Y333389D03*
Y334964D03*
Y336538D03*
Y338113D03*
Y339688D03*
G54D135*
X714458Y530646D03*
Y540094D03*
G54D60*
X167746Y501782D03*
X173454D03*
X167746Y507179D03*
X173454D03*
G54D33*
X117332Y379958D03*
G54D51*
X143627Y468218D03*
X145595D03*
X147564D03*
X149532D03*
X151501D03*
X153470D03*
X155438D03*
X157407D03*
X159375D03*
Y490266D03*
X157407D03*
X155438D03*
X153470D03*
X151501D03*
X149532D03*
X147564D03*
X145595D03*
X143627D03*
G54D117*
X606831Y575829D03*
X608406Y578585D03*
X611556D03*
X613130Y575829D03*
X614705Y578585D03*
X616280Y575829D03*
X619430D03*
X621004Y578585D03*
X622579Y575829D03*
X624154Y578585D03*
X627304D03*
X628878Y575829D03*
G54D144*
X796929Y202362D03*
G54D126*
X716142Y30118D03*
G54D42*
X147321Y365299D03*
G54D15*
X65166Y202444D03*
Y231578D03*
G54D24*
X99713Y66165D03*
Y85850D03*
Y105535D03*
G54D136*
X723701Y558258D03*
X733149D03*
G54D118*
X614134Y548609D03*
X611968D03*
X614134Y546184D03*
X611968D03*
X633819Y555099D03*
X631653D03*
X633819Y552584D03*
X631653D03*
X780192Y305320D03*
X782358D03*
X780192Y307926D03*
X782358D03*
X780192Y321068D03*
X782358D03*
X780192Y323674D03*
X782358D03*
X780192Y336816D03*
X782358D03*
X780192Y339422D03*
X782358D03*
X780192Y356501D03*
X782358D03*
X780192Y359107D03*
X782358D03*
G54D70*
X218519Y548756D03*
X208675D03*
X236234D03*
X226393D03*
G54D127*
X719780Y50804D03*
G54D109*
X595945Y317628D03*
X597913D03*
X599882D03*
X601850D03*
Y324714D03*
X599882D03*
X597913D03*
X595945D03*
G54D16*
X65443Y316841D03*
X61899D03*
X75704Y397838D03*
X72160D03*
X102276Y230453D03*
Y226909D03*
X110935Y210304D03*
Y213848D03*
X131497Y456169D03*
X127953D03*
X131497Y452362D03*
X127953D03*
X137008Y495669D03*
X163132Y328385D03*
Y324841D03*
X159008Y328385D03*
Y324841D03*
X147182Y328385D03*
Y324841D03*
X155158Y328385D03*
Y324841D03*
X151032Y328385D03*
Y324841D03*
X154982Y332816D03*
Y336360D03*
X146920Y332890D03*
Y336434D03*
X162982Y332816D03*
Y336360D03*
X158982Y332816D03*
Y336360D03*
X150920Y332890D03*
Y336434D03*
X153816Y375345D03*
Y378889D03*
X154565Y419678D03*
X151021D03*
X154565Y415872D03*
X151021D03*
X146085Y495870D03*
X149629D03*
X153108Y499679D03*
X149564D03*
X140552Y495669D03*
X156213Y519690D03*
X159757D03*
X163893D03*
X179563Y35984D03*
X176019D03*
X181968Y152172D03*
X177874Y152278D03*
X181968Y155716D03*
X177874Y155822D03*
X176140Y285296D03*
Y281752D03*
X171108Y336360D03*
Y332816D03*
X178710Y344776D03*
X182254D03*
X167132Y328410D03*
Y324866D03*
X168110Y374558D03*
X178529Y361101D03*
X182073D03*
X178710Y348626D03*
X182254D03*
X176194Y374558D03*
X182073Y357164D03*
X178529D03*
X182073Y368975D03*
X178529D03*
X172232Y374558D03*
X182073Y365038D03*
X178529D03*
X168110Y378102D03*
X176194D03*
X172232D03*
X173463Y483495D03*
X169919D03*
X173463Y472275D03*
X169919D03*
X173463Y476015D03*
X169919D03*
X173463Y479755D03*
X169919D03*
X173463Y491173D03*
X169919D03*
X173463Y494913D03*
X169919D03*
X167437Y519690D03*
X195512Y123489D03*
X209998Y151496D03*
X206454D03*
X195512Y127033D03*
Y131686D03*
Y135230D03*
X217200Y145428D03*
Y148972D03*
X218910Y171110D03*
Y167566D03*
X206454Y155287D03*
X209998D03*
X219820Y474986D03*
Y478530D03*
X216080Y474986D03*
Y478530D03*
X207467Y482542D03*
X211011D03*
Y478543D03*
X207467D03*
X207366Y486558D03*
X210910D03*
X207366Y494039D03*
X210910D03*
X207366Y490298D03*
X210910D03*
X231362Y36020D03*
Y32476D03*
X227497D03*
Y36020D03*
X246816Y177374D03*
Y173830D03*
X226733Y180205D03*
X230277D03*
X230308Y184420D03*
Y187964D03*
X226314Y184420D03*
Y187964D03*
X229576Y199796D03*
X233120D03*
X229576Y195920D03*
X233120D03*
X242261Y478530D03*
Y474986D03*
X221991Y468615D03*
X225535D03*
X223560Y478530D03*
Y474986D03*
X227300Y478530D03*
Y474986D03*
X238520Y478530D03*
Y474986D03*
X234780D03*
Y478530D03*
X231040Y474986D03*
Y478530D03*
X228600Y460377D03*
Y463921D03*
X246152Y474917D03*
Y478461D03*
X223009Y524607D03*
Y521063D03*
X235637Y524804D03*
Y521260D03*
X266797Y180242D03*
X270341D03*
X270048Y191011D03*
X266504D03*
X266797Y184033D03*
X270341D03*
X270048Y194802D03*
X266504D03*
X262172Y456000D03*
X258628D03*
X262172Y452000D03*
X258628D03*
X255828Y480000D03*
X259372D03*
X255828Y484000D03*
X259372D03*
X255828Y476400D03*
X259372D03*
X258800Y464172D03*
Y460628D03*
X255783Y514667D03*
X259327D03*
X255783Y503446D03*
X259327D03*
X255783Y499706D03*
X259327D03*
X255783Y495966D03*
X259327D03*
X255783Y492226D03*
X259327D03*
X255783Y510927D03*
X259327D03*
X255783Y507187D03*
X259327D03*
X270906Y507560D03*
X274450D03*
X255828Y487600D03*
X259372D03*
X255783Y525887D03*
X259327D03*
X255783Y522147D03*
X259327D03*
X255783Y518407D03*
X259327D03*
X282221Y39528D03*
Y35984D03*
X278212Y39528D03*
Y35984D03*
X282161Y52525D03*
X278617D03*
X284972Y456000D03*
X281428D03*
Y462800D03*
X284972D03*
X328667Y38189D03*
Y34645D03*
X314370Y167126D03*
Y163582D03*
X330709Y167126D03*
Y163582D03*
X318307D03*
Y167126D03*
X327362Y191732D03*
Y195276D03*
X324544Y220453D03*
Y223997D03*
X313428Y481600D03*
X316972D03*
X314228Y460000D03*
X317772D03*
X325828Y481600D03*
X329372D03*
X327028Y459600D03*
X330572D03*
X313428Y477600D03*
X316972D03*
X325828Y477200D03*
X329372D03*
X324619Y583183D03*
Y579639D03*
X316687Y579637D03*
Y583181D03*
X351914Y49526D03*
Y53070D03*
X386811Y9645D03*
Y13189D03*
X372250Y49526D03*
Y53070D03*
X377160Y49526D03*
Y53070D03*
X386800Y49428D03*
Y52972D03*
X396972Y49165D03*
X393428D03*
X432307Y19791D03*
X428763D03*
X466738Y50491D03*
Y54035D03*
X476777Y50491D03*
Y54035D03*
X581392Y319671D03*
X577602D03*
X571235Y313242D03*
X567691D03*
Y309242D03*
X571235D03*
X581392Y323215D03*
X577602D03*
X581358Y347719D03*
Y351263D03*
X563471Y558537D03*
Y562081D03*
X567471Y558537D03*
Y562081D03*
X582228Y594400D03*
Y598400D03*
X608466Y308021D03*
Y311565D03*
X604676Y308021D03*
Y311565D03*
X608466Y315812D03*
Y319356D03*
X597088Y308021D03*
Y311565D03*
X593298D03*
Y308021D03*
X600885D03*
Y311565D03*
X594430Y334281D03*
Y337825D03*
X608588Y368943D03*
X605044D03*
Y365152D03*
X608588D03*
X589289Y351093D03*
X585745D03*
X600870Y384183D03*
Y387727D03*
X585708Y384183D03*
Y387727D03*
X597080Y384183D03*
Y387727D03*
X604661D03*
Y384183D03*
X589498D03*
Y387727D03*
X593289Y384183D03*
Y387727D03*
X584287Y569561D03*
X591087D03*
X590800Y595028D03*
Y598572D03*
X584287Y573105D03*
X591087D03*
X585772Y594400D03*
Y598400D03*
X618983Y437169D03*
Y433625D03*
X694595Y223941D03*
Y227485D03*
X687015Y223941D03*
Y227485D03*
X690806Y223941D03*
Y227485D03*
X705118Y50804D03*
X708662D03*
X705118D03*
Y47260D03*
X721493Y218529D03*
X714145Y227485D03*
Y223941D03*
X703454D03*
Y227485D03*
X707687Y223941D03*
Y227485D03*
X698434Y223941D03*
Y227485D03*
X717950D03*
Y223941D03*
X719130Y369993D03*
Y366449D03*
X715330Y369993D03*
Y366449D03*
Y358464D03*
Y362008D03*
X719130Y358464D03*
Y362008D03*
X697022Y388994D03*
X700566D03*
X707013Y402080D03*
X697022Y392794D03*
X700566D03*
X717325Y402347D03*
X713525D03*
X707013Y405624D03*
X717325Y405891D03*
X713525D03*
X721004Y531439D03*
X705570Y537035D03*
X709114D03*
X720735Y548876D03*
X714510Y544815D03*
Y548359D03*
X725037Y218529D03*
X732086Y316955D03*
X735630D03*
X749366Y359824D03*
X745822D03*
X749369Y363659D03*
X745825D03*
X736069Y371906D03*
X732525D03*
X724528Y366570D03*
Y370114D03*
X736069Y392356D03*
X732525D03*
X736069Y375957D03*
X732525D03*
X736069Y396406D03*
X732525D03*
X736069Y388305D03*
X732525D03*
X736069Y380007D03*
X732525D03*
X750694Y429054D03*
Y425510D03*
X741137D03*
Y429054D03*
X731036Y531439D03*
X734580D03*
X724548D03*
X729075Y548876D03*
X732619D03*
X724279D03*
X740354Y560826D03*
Y564370D03*
X740239Y594689D03*
Y598233D03*
X777165Y191339D03*
D03*
Y194883D03*
X777952Y292843D03*
X777825Y347961D03*
Y383395D03*
Y399143D03*
Y403080D03*
X759200Y381828D03*
Y385372D03*
X755200Y393372D03*
Y389828D03*
X752041Y529252D03*
X755585D03*
X752041Y533976D03*
X755585D03*
X752041Y538701D03*
X755585D03*
X777399Y519472D03*
X774466Y549293D03*
X770923D03*
X780709Y191339D03*
X781496Y292843D03*
X781369Y347961D03*
Y383395D03*
Y399143D03*
Y403080D03*
X787795Y507256D03*
Y510800D03*
Y501701D03*
Y498157D03*
X780943Y519472D03*
X785433Y560826D03*
Y564370D03*
G54D43*
X147321Y363725D03*
Y362150D03*
Y360575D03*
Y359000D03*
Y357425D03*
Y355851D03*
Y354276D03*
Y352701D03*
Y351126D03*
Y349551D03*
Y347977D03*
X170943D03*
Y349551D03*
Y351126D03*
Y352701D03*
Y354276D03*
Y355851D03*
Y357425D03*
Y359000D03*
Y360575D03*
Y362150D03*
Y363725D03*
Y365299D03*
G54D145*
X797819Y288906D03*
Y292843D03*
Y296780D03*
Y300717D03*
Y304654D03*
Y308591D03*
Y312528D03*
Y316465D03*
Y320402D03*
Y324339D03*
Y328276D03*
Y332213D03*
Y336150D03*
Y340087D03*
Y344024D03*
Y347962D03*
Y351898D03*
Y355836D03*
Y359772D03*
Y363710D03*
Y367647D03*
Y379458D03*
Y383395D03*
Y387332D03*
Y391268D03*
Y395206D03*
Y399143D03*
Y403080D03*
Y407017D03*
Y410954D03*
Y414891D03*
Y418828D03*
G54D34*
X140611Y392868D03*
Y401136D03*
X658266Y205604D03*
Y213872D03*
G54D52*
X151501Y479242D03*
G54D25*
X112325Y137925D03*
Y167059D03*
G54D61*
X184561Y558598D03*
Y594031D03*
X260152Y558598D03*
Y594031D03*
G54D128*
X725804Y55686D03*
Y45765D03*
G54D137*
X740234Y583032D03*
X740268Y571728D03*
X796367Y508373D03*
X785301Y570750D03*
G54D146*
X806197Y506872D03*
Y502148D03*
G54D119*
X645980Y565919D03*
Y568085D03*
X643480Y565919D03*
Y568085D03*
Y573086D03*
Y570919D03*
X645980Y573086D03*
Y570919D03*
X710333Y402459D03*
Y404625D03*
G54D62*
X205474Y175532D03*
G54D26*
X104632Y215905D03*
Y209409D03*
X146013Y533138D03*
Y526642D03*
X171686Y163283D03*
Y156787D03*
X293972Y219409D03*
Y225905D03*
X301572Y219409D03*
Y225905D03*
X286372Y219409D03*
Y225905D03*
X289957Y513330D03*
Y519826D03*
X316372Y219409D03*
Y225905D03*
X309172Y219409D03*
Y225905D03*
X576887Y578369D03*
Y571873D03*
X724241Y402393D03*
Y408889D03*
X732741Y402593D03*
Y409089D03*
G54D53*
X140376Y504473D03*
X150613D03*
Y510773D03*
X140376D03*
G54D17*
X63041Y341355D03*
Y331355D03*
Y373521D03*
Y383521D03*
X107332Y344958D03*
Y334958D03*
Y374958D03*
Y364958D03*
Y354958D03*
X117332Y339958D03*
Y369958D03*
Y359958D03*
Y349958D03*
G54D71*
X240593Y200238D03*
Y198663D03*
Y197088D03*
Y195513D03*
Y193939D03*
Y192364D03*
Y190789D03*
Y189214D03*
X256341D03*
Y190789D03*
Y192364D03*
Y193939D03*
Y195513D03*
Y197088D03*
Y198663D03*
Y200238D03*
G54D80*
X277580Y44206D03*
G54D44*
X159132Y356638D03*
G54D35*
X128033Y419259D03*
G54D54*
X156313Y532690D03*
X270416Y520363D03*
G54D147*
X798200Y536642D03*
X804500D03*
X798200Y542242D03*
X804500D03*
G54D27*
X98476Y226909D03*
Y230453D03*
X98232Y213829D03*
Y210285D03*
X158444Y281435D03*
Y284979D03*
X162522D03*
Y281435D03*
X158135Y375247D03*
X162135D03*
X158135Y378791D03*
X162135D03*
X151961Y403424D03*
X155505D03*
X151021Y423753D03*
X154565D03*
X151021Y427559D03*
X154565D03*
X144911Y499679D03*
X141367D03*
X155637Y509134D03*
Y505590D03*
X140113Y532762D03*
Y529218D03*
X172350Y285296D03*
Y281752D03*
X166982Y336360D03*
Y332816D03*
X178458Y352487D03*
X182002D03*
X173463Y487334D03*
X169919D03*
X206454Y159077D03*
X209998D03*
X217182Y468615D03*
X213638D03*
X239235Y177374D03*
Y173830D03*
X243026Y177374D03*
Y173830D03*
X225527Y196014D03*
Y199558D03*
X224638Y207828D03*
X228182D03*
X234413Y180867D03*
Y184411D03*
X245753Y213332D03*
Y209788D03*
X228600Y451545D03*
Y455089D03*
X231521Y521260D03*
Y524804D03*
X239993D03*
Y521260D03*
X227447D03*
Y524804D03*
X274670Y194770D03*
Y191226D03*
X258184Y213332D03*
Y209788D03*
X253600Y455828D03*
Y459372D03*
X270866Y569278D03*
X274888D03*
X270866Y572822D03*
X274888D03*
X282161Y48425D03*
X278617D03*
X300000Y176575D03*
X303544D03*
X289931Y203574D03*
Y207118D03*
X322441Y167224D03*
Y163680D03*
X326378Y167224D03*
Y163680D03*
X312816Y583287D03*
Y579743D03*
X420528Y10213D03*
Y6669D03*
X459009Y54330D03*
Y57874D03*
X538780Y54330D03*
Y57874D03*
X571235Y305451D03*
X567691D03*
X569920Y339704D03*
Y336160D03*
X577450Y347473D03*
X566130Y336160D03*
Y339704D03*
X578698Y369732D03*
X575154D03*
X577450Y351017D03*
X570894Y577693D03*
Y574149D03*
X589166Y347200D03*
X585622D03*
X585957Y323958D03*
X589501D03*
X585957Y320168D03*
X589501D03*
X599070Y328771D03*
X595526D03*
X595074Y360215D03*
X591530D03*
X584724Y369624D03*
Y373168D03*
X694595Y219366D03*
Y215822D03*
X687015Y219366D03*
Y215822D03*
X690806Y219366D03*
Y215822D03*
X705118Y55509D03*
X708662D03*
X705118Y68206D03*
X708662D03*
X705116Y63578D03*
Y60034D03*
X717950Y232593D03*
Y236137D03*
X703454Y219366D03*
Y215822D03*
X707687Y219366D03*
Y215822D03*
X698434Y219366D03*
Y215822D03*
X721653Y316955D03*
X718110Y417520D03*
Y413976D03*
X718800Y558818D03*
Y555274D03*
X714813D03*
Y558818D03*
X729647Y218529D03*
X733191D03*
X725197Y316955D03*
X749426Y346981D03*
X745882D03*
X749426Y350953D03*
X745882D03*
X749426Y354858D03*
X745882D03*
X732525Y384156D03*
X736069D03*
X745231Y425510D03*
Y429054D03*
X744488Y508661D03*
Y512205D03*
X739960Y519488D03*
X743504D03*
X772460Y191339D03*
Y194883D03*
X759763Y191339D03*
Y194883D03*
X764391Y191337D03*
X767935D03*
X759200Y389828D03*
Y393372D03*
X758252Y504629D03*
X754708D03*
X758252Y508449D03*
X754708D03*
X758268Y514173D03*
X754724D03*
X761073Y538770D03*
X764617D03*
X761073Y529320D03*
X764617D03*
X761073Y534045D03*
X764617D03*
X761073Y542511D03*
X764617D03*
X759252Y518504D03*
Y522048D03*
X761073Y546252D03*
X764617D03*
X782558Y426600D03*
Y430144D03*
X783382Y506566D03*
Y503023D03*
X792011Y507256D03*
Y510800D03*
Y501701D03*
Y498157D03*
X810754Y533461D03*
Y537005D03*
Y541677D03*
Y545221D03*
G54D45*
X165711Y391756D03*
X157048D03*
Y385064D03*
X165711D03*
G54D129*
X724177Y234120D03*
Y225458D03*
X730869D03*
Y234120D03*
G54D36*
X121518Y450525D03*
Y458006D03*
X112856Y454265D03*
X122454Y486514D03*
Y493994D03*
X113792Y490254D03*
X276731Y455460D03*
X268069Y459200D03*
X276731Y462940D03*
G54D72*
X242955Y186852D03*
X244530D03*
X246105D03*
X247680D03*
Y202600D03*
X246105D03*
X244530D03*
X242955D03*
X249254Y186852D03*
X250829D03*
X252404D03*
X253979D03*
Y202600D03*
X252404D03*
X250829D03*
X249254D03*
G54D63*
X201640Y167004D03*
X204199D03*
X206759D03*
X209318D03*
Y179406D03*
X206759D03*
X204199D03*
X296228Y196690D03*
X298787D03*
X301347D03*
X303906Y209092D03*
X301347D03*
X298787D03*
X296228D03*
X763878Y419980D03*
X766436D03*
X768996D03*
X771556Y432382D03*
X768996D03*
X766436D03*
X763878D03*
G54D18*
X82332Y334938D03*
Y379938D03*
G54D81*
X274780Y214823D03*
G54D90*
X313746Y546582D03*
G54D138*
X740232Y587147D03*
X740266Y575842D03*
X796365Y512487D03*
X785299Y574864D03*
G54D148*
G01X826772Y430709D02*
Y494685D01*
X811024D01*
Y514764D01*
X826772D01*
Y598425D01*
G03X814961Y610236I-11811J0D01*
G01X51181D01*
G03X39370Y598425I0J-11811D01*
G01Y11811D01*
G03X51181Y0I11811J0D01*
G01X814961D01*
G03X826772Y11811I0J11811D01*
G01Y276378D01*
X810716D01*
Y367700D01*
X808017Y370400D01*
X791200D01*
G02Y376610I0J3105D01*
G01X808027D01*
X810716Y379300D01*
Y430709D01*
X826772D01*
G01X51181Y0D02*
G02X39370Y11811I0J11811D01*
G01D02*
Y598425D01*
G01X814961Y0D02*
X51181D01*
G01D02*
G02X39370Y11811I0J11811D01*
G01D02*
Y598425D01*
G01X814961Y0D02*
X51181D01*
G01X39370Y598425D02*
G02X51181Y610236I11811J0D01*
G01D02*
X814961D01*
G01X39370Y598425D02*
G02X51181Y610236I11811J0D01*
G01D02*
X814961D01*
G01X810716Y276378D02*
Y367700D01*
X808017Y370400D01*
X791200D01*
G02Y376610I0J3105D01*
G01X808027D01*
X810716Y379300D01*
Y430709D01*
G01X826772Y276378D02*
Y11811D01*
G01D02*
G02X814961Y0I-11811J0D01*
G01X826772Y276378D02*
Y11811D01*
G01D02*
G02X814961Y0I-11811J0D01*
G01X810716Y276378D02*
X826772D01*
G01X810716D02*
X826772D01*
G01Y494685D02*
Y430709D01*
G01D02*
X810716D01*
G01X826772Y494685D02*
Y430709D01*
G01D02*
X810716D01*
G01X811024Y514764D02*
Y494685D01*
G01D02*
X826772D01*
G01X811024Y514764D02*
Y494685D01*
G01D02*
X826772D01*
G01Y598425D02*
Y514764D01*
G01D02*
X811024D01*
G01X826772Y598425D02*
Y514764D01*
G01D02*
X811024D01*
G01X814961Y610236D02*
G02X826772Y598425I0J-11811D01*
G01X814961Y610236D02*
G02X826772Y598425I0J-11811D01*
G54D82*
X274779Y220648D03*
G54D55*
X156313Y528753D03*
Y524816D03*
X167337D03*
Y532690D03*
X270416Y512489D03*
Y516426D03*
X281440Y512489D03*
Y520363D03*
G54D46*
X151433Y408145D03*
X156945D03*
X759433Y500162D03*
X753921D03*
G54D139*
X777165Y204819D03*
G54D91*
X281116Y590102D03*
X285054D03*
X288991D03*
X292928D03*
X296865D03*
X300802D03*
X304739D03*
X283085Y599945D03*
X287022D03*
X290959D03*
X294896D03*
X298833D03*
X302770D03*
X308676Y590102D03*
X312613D03*
X316550D03*
X320487D03*
X324424D03*
X328361D03*
X332298D03*
X306707Y599945D03*
X310644D03*
X314581D03*
X318518D03*
X322455D03*
X326392D03*
X330329D03*
X336235Y590102D03*
X334266Y599945D03*
X338203D03*
X371668Y590102D03*
X375605D03*
X379542D03*
X383479D03*
X387416D03*
X373636Y599945D03*
X377573D03*
X381510D03*
X385447D03*
X391353Y590102D03*
X395290D03*
X399227D03*
X403164D03*
X407101D03*
X411038D03*
X414975D03*
X389384Y599945D03*
X393321D03*
X397258D03*
X401195D03*
X405132D03*
X409069D03*
X413006D03*
X439975Y509394D03*
X443912D03*
X441943Y519236D03*
X418912Y590102D03*
X422849D03*
X426786D03*
X416943Y599945D03*
X420880D03*
X424817D03*
X428754D03*
X447849Y509394D03*
X451786D03*
X455723D03*
X459660D03*
X463597D03*
X467534D03*
X471471D03*
X445880Y519236D03*
X449817D03*
X453754D03*
X457691D03*
X461628D03*
X465565D03*
X469502D03*
X462219Y590102D03*
X466156D03*
X470093D03*
X464187Y599945D03*
X468124D03*
X472061D03*
X475408Y509394D03*
X479345D03*
X483282D03*
X487219D03*
X491156D03*
X495093D03*
X473439Y519236D03*
X477376D03*
X481313D03*
X485250D03*
X489187D03*
X493124D03*
X497061D03*
X474030Y590102D03*
X477967D03*
X481904D03*
X485841D03*
X489778D03*
X493715D03*
X497652D03*
X475998Y599945D03*
X479935D03*
X483872D03*
X487810D03*
X491746D03*
X495684D03*
X499620D03*
X501589Y590102D03*
X505526D03*
X509463D03*
X513400D03*
X517337D03*
X503557Y599945D03*
X507494D03*
X511431D03*
X515369D03*
X519306D03*
G54D37*
X135918Y532323D03*
X796377Y500644D03*
X784974Y589972D03*
G54D73*
X248467Y194726D03*
G54D19*
X85907Y440596D03*
G54D28*
X90793Y280845D03*
X122289Y261160D03*
X130163Y280845D03*
G54D64*
X217355Y192446D03*
Y202682D03*
X282054Y198498D03*
Y188261D03*
G54D83*
X271967Y542805D03*
Y547605D03*
Y552405D03*
X271567Y557205D03*
G54D65*
X216380Y452448D03*
Y462684D03*
X222680Y452448D03*
Y462684D03*
G54D92*
X321456Y174015D03*
G54D47*
X141979Y426378D03*
Y424409D03*
Y420473D03*
Y418504D03*
X145423D03*
Y420473D03*
Y424409D03*
Y426378D03*
G54D38*
X135920Y528209D03*
X796379Y496530D03*
X784976Y585858D03*
G54D56*
X182381Y166760D03*
X727791Y424539D03*
G54D74*
X223097Y216401D03*
G54D29*
X95732Y312693D03*
X104932D03*
G54D48*
X142145Y422441D03*
X145257D03*
G54D93*
X323426Y174015D03*
X325393D03*
X327362D03*
Y185827D03*
X325393D03*
X323426D03*
X321456D03*
G54D75*
X221422Y220241D03*
Y217682D03*
Y215123D03*
X232997Y212564D03*
Y215123D03*
Y217682D03*
Y220241D03*
X270940Y213148D03*
X273499D03*
X276058D03*
Y224723D03*
X273499D03*
X270940D03*
X278617D03*
G54D66*
X220940Y512789D03*
Y510230D03*
Y507670D03*
Y505111D03*
Y502552D03*
Y499993D03*
Y497434D03*
Y494875D03*
Y492316D03*
Y489757D03*
X223499Y512789D03*
X226058D03*
X228617D03*
X231176D03*
X233735D03*
X236295D03*
X238854D03*
X241413D03*
X243972D03*
X223499Y510230D03*
X226058D03*
X228617D03*
X231176D03*
X233735D03*
X236295D03*
X238854D03*
X241413D03*
X243972D03*
X223499Y507670D03*
X241413D03*
X243972D03*
X223499Y505111D03*
X228617D03*
X231176D03*
X233735D03*
X236295D03*
X241413D03*
X243972D03*
X223499Y502552D03*
X228617D03*
X231176D03*
X233735D03*
X236295D03*
X241413D03*
X243972D03*
X223499Y499993D03*
X228617D03*
X231176D03*
X233735D03*
X236295D03*
X241413D03*
X243972D03*
X223499Y497434D03*
X228617D03*
X231176D03*
X233735D03*
X236295D03*
X241413D03*
X243972D03*
X223499Y494875D03*
X241413D03*
X243972D03*
X223499Y492316D03*
X226058D03*
X228617D03*
X231176D03*
X233735D03*
X236295D03*
X238854D03*
X241413D03*
X243972D03*
X223499Y489757D03*
X226058D03*
X228617D03*
X231176D03*
X233735D03*
X236295D03*
X238854D03*
X241413D03*
X243972D03*
G54D57*
X190909Y162926D03*
Y165485D03*
Y168045D03*
Y170604D03*
X178507D03*
Y168045D03*
Y165485D03*
X736319Y420705D03*
Y423264D03*
Y425824D03*
Y428383D03*
X723917D03*
Y425824D03*
Y423264D03*
G54D39*
X148492Y153882D03*
Y164118D03*
X751086Y571542D03*
Y562880D03*
Y594376D03*
Y582565D03*
X775495Y570754D03*
Y590439D03*
Y579022D03*
G54D84*
X276081Y542807D03*
Y547607D03*
Y552407D03*
X275681Y557207D03*
G54D76*
X228922Y216402D03*
G54D94*
X324409Y179921D03*
G54D85*
X272455Y595024D03*
X363006D03*
X348833D03*
X431313Y514315D03*
X439384Y595024D03*
X453557D03*
X507691Y514315D03*
X529935Y595024D03*
G54D49*
X151575Y455906D03*
Y461417D03*
X673247Y214806D03*
Y220318D03*
X713189Y418504D03*
Y412992D03*
X741142Y529921D03*
Y535433D03*
X777763Y425516D03*
Y431028D03*
X763976Y517126D03*
Y522638D03*
G54D67*
X194087Y521655D03*
X196056D03*
X199992D03*
X201961D03*
Y525099D03*
X199992D03*
X196056D03*
X194087D03*
X208087Y521655D03*
X210056D03*
X213992D03*
X215961D03*
Y525099D03*
X213992D03*
X210056D03*
X208087D03*
X601969Y556152D03*
X603937D03*
X607874D03*
X609843D03*
Y559596D03*
X607874D03*
X603937D03*
X601969D03*
X628346Y558908D03*
X630315D03*
X634252D03*
X636220D03*
Y562352D03*
X634252D03*
X630315D03*
X628346D03*
X687076Y555495D03*
X689044D03*
X692981D03*
Y558939D03*
X689044D03*
X687076D03*
X675144Y555495D03*
X677113D03*
X681049D03*
X683018D03*
Y558939D03*
X681049D03*
X677113D03*
X675144D03*
X694950Y555495D03*
Y558939D03*
X699410Y555562D03*
X701378D03*
X705315D03*
X707284D03*
Y559006D03*
X705315D03*
X701378D03*
X699410D03*
G54D58*
X180702Y285320D03*
X229921Y191535D03*
X250816Y177202D03*
X258800Y471200D03*
X268400Y486000D03*
X335712Y582240D03*
X388435Y20882D03*
G54D68*
X198024Y521821D03*
Y524933D03*
X212024Y521821D03*
Y524933D03*
X605906Y556318D03*
Y559430D03*
X632284Y559074D03*
Y562186D03*
X691013Y555661D03*
Y558773D03*
X679081Y555661D03*
Y558773D03*
X703346Y555728D03*
Y558839D03*
G54D59*
X167316Y286590D03*
Y280290D03*
G54D95*
X324442Y233280D03*
Y239580D03*
X584287Y561254D03*
Y554954D03*
X591087Y561254D03*
Y554954D03*
X587546Y582250D03*
Y588550D03*
G54D86*
X281694Y44208D03*
G54D77*
X244543Y230257D03*
X259503D03*
G54D96*
X313041Y465060D03*
X318159D03*
X315600Y472540D03*
X325272Y464322D03*
X330390D03*
X327831Y471802D03*
X720373Y536518D03*
X703154Y541233D03*
X708272D03*
X722932Y543998D03*
X705713Y548713D03*
X748105Y413406D03*
X750664Y420886D03*
X725491Y536518D03*
X730043D03*
X735161D03*
X732602Y543998D03*
X753223Y413406D03*
G54D78*
X236400Y457860D03*
Y454120D03*
X246636D03*
Y457860D03*
X236400Y461600D03*
X246636D03*
G54D69*
X203754Y561354D03*
X206707Y567259D03*
X209660Y561354D03*
X212612Y567259D03*
X215565Y561354D03*
X218519Y567259D03*
X221471Y561354D03*
X209660Y573164D03*
X215565D03*
X221471D03*
X224423Y567259D03*
X227376Y561354D03*
X230329Y567259D03*
X233282Y561354D03*
X236234Y567259D03*
X239187Y561354D03*
X227376Y573164D03*
X233282D03*
X239187D03*
G54D87*
X300072Y200564D03*
X767722Y423854D03*
G54D97*
X346633Y14971D03*
X377280Y15082D03*
G54D88*
X297998Y539692D03*
X299967D03*
X301936D03*
X303904D03*
Y553472D03*
X301936D03*
X299967D03*
X297998D03*
X305872Y539692D03*
X307841D03*
X309810D03*
X311778D03*
X313746D03*
X315715D03*
X317684D03*
X319652D03*
X321620D03*
X323589D03*
X325558D03*
X327526D03*
X329494D03*
Y553472D03*
X327526D03*
X325558D03*
X323589D03*
X321620D03*
X319652D03*
X317684D03*
X315715D03*
X313746D03*
X311778D03*
X309810D03*
X307841D03*
X305872D03*
G54D79*
X242800Y468400D03*
X264800Y480400D03*
X250800Y474400D03*
Y469200D03*
X445863Y464998D03*
X740863Y358396D03*
Y365088D03*
X770138Y360363D03*
Y367056D03*
Y353504D03*
G54D89*
X296030Y549535D03*
Y547566D03*
Y545598D03*
Y543629D03*
X331463D03*
Y545598D03*
Y547566D03*
Y549535D03*
G54D98*
X393926Y13158D03*
X403726D03*
X413526D03*
G54D99*
X446746Y8267D03*
Y18267D03*
X456747Y8232D03*
X466746D03*
X456747Y18232D03*
X466746D03*
X476747Y8232D03*
X486746D03*
X496747D03*
X476747Y18232D03*
X486746D03*
X496747D03*
X506747Y8232D03*
X516746D03*
X526746D03*
X506747Y18232D03*
X516746D03*
X526746D03*
X536746Y8232D03*
Y18232D03*
M02*
